G70*
%OFA0B0*%
%FSLAX24Y24*%
%IPPOS*%
%LPD*%
%ADD46C,0.0039*%
%ADD47C,0.0079*%
%ADD48C,0.0100*%
%ADD50C,0.0118*%
%ADD52C,0.0197*%
%ADD53C,0.0236*%
%ADD54C,0.0315*%
D46*
X032407Y017433D02*
X032407Y017197D01*
X028754Y021474D02*
X028754Y021750D01*
X032407Y017000D02*
X032093Y017000D01*
X032093Y017630D02*
X032407Y017630D01*
X032093Y017197D02*
X032407Y017197D01*
X032407Y017630D02*
X032407Y017433D01*
X032407Y017197D02*
X032407Y017000D01*
X028754Y021238D02*
X028754Y021474D01*
X028754Y020963D02*
X028754Y021238D01*
X029246Y021238D02*
X029246Y020963D01*
X024246Y021238D02*
X023754Y021238D01*
X023754Y021474D02*
X024246Y021474D01*
X024246Y020963D02*
X023754Y020963D01*
X028754Y021474D02*
X029246Y021474D01*
X029246Y020963D02*
X028754Y020963D01*
X028754Y021750D02*
X029246Y021750D01*
X029246Y021474D02*
X029246Y021238D01*
X029246Y021750D02*
X029246Y021474D01*
X029246Y021238D02*
X028754Y021238D01*
X024246Y021238D02*
X024246Y020963D01*
X024246Y021474D02*
X024246Y021238D01*
X024246Y021750D02*
X024246Y021474D01*
X023754Y021238D02*
X023754Y021474D01*
X023754Y020963D02*
X023754Y021238D01*
X023754Y021474D02*
X023754Y021750D01*
X032093Y017000D02*
X032093Y017197D01*
X022343Y016697D02*
X022343Y016933D01*
X022343Y016500D02*
X022343Y016697D01*
X022657Y016697D02*
X022343Y016697D01*
X022657Y017130D02*
X022657Y016933D01*
X022343Y016933D02*
X022343Y017130D01*
X022657Y016933D02*
X022343Y016933D01*
X017500Y015657D02*
X017500Y015343D01*
X016870Y015343D02*
X016870Y015657D01*
X022657Y016933D02*
X022657Y016697D01*
X022657Y016697D02*
X022657Y016500D01*
X017067Y015657D02*
X017067Y015343D01*
X017303Y015343D02*
X017067Y015343D01*
X017067Y015343D02*
X016870Y015343D01*
X017500Y015343D02*
X017303Y015343D01*
X027657Y017183D02*
X027343Y017183D01*
X027343Y017380D02*
X027657Y017380D01*
X027343Y016750D02*
X027343Y016947D01*
X027343Y017183D02*
X027343Y017380D01*
X032093Y017197D02*
X032093Y017433D01*
X032093Y017433D02*
X032407Y017433D01*
X027657Y016750D02*
X027343Y016750D01*
X032093Y017433D02*
X032093Y017630D01*
X027343Y016947D02*
X027343Y017183D01*
X022657Y016500D02*
X022343Y016500D01*
X027657Y016947D02*
X027657Y016750D01*
X022343Y017130D02*
X022657Y017130D01*
X027657Y016947D02*
X027343Y016947D01*
X027657Y017380D02*
X027657Y017183D01*
X027657Y017183D02*
X027657Y016947D01*
X014004Y023988D02*
X014004Y024224D01*
X014004Y023713D02*
X014004Y023988D01*
X018996Y023713D02*
X018504Y023713D01*
X018504Y024500D02*
X018996Y024500D01*
X014004Y024224D02*
X014004Y024500D01*
X017004Y029026D02*
X017004Y029262D01*
X017004Y028750D02*
X017004Y029026D01*
X016213Y035004D02*
X016213Y035496D01*
X016488Y035004D02*
X016488Y035496D01*
X016724Y035496D02*
X016724Y035004D01*
X017000Y035496D02*
X017000Y035004D01*
X017004Y029262D02*
X017004Y029537D01*
X014496Y024500D02*
X014496Y024224D01*
X014496Y023988D02*
X014004Y023988D01*
X014496Y023988D02*
X014496Y023713D01*
X014496Y024224D02*
X014496Y023988D01*
X014004Y024224D02*
X014496Y024224D01*
X014496Y023713D02*
X014004Y023713D01*
X014004Y024500D02*
X014496Y024500D01*
X018504Y024224D02*
X018996Y024224D01*
X017343Y021433D02*
X017343Y021630D01*
X017343Y021197D02*
X017343Y021433D01*
X021907Y021000D02*
X021593Y021000D01*
X021593Y021630D02*
X021907Y021630D01*
X017343Y021433D02*
X017657Y021433D01*
X017657Y021630D02*
X017657Y021433D01*
X017657Y021197D02*
X017657Y021000D01*
X017343Y021000D02*
X017343Y021197D01*
X017657Y021433D02*
X017657Y021197D01*
X021593Y021197D02*
X021907Y021197D01*
X021593Y021433D02*
X021593Y021630D01*
X021593Y021197D02*
X021593Y021433D01*
X023754Y021750D02*
X024246Y021750D01*
X021593Y021433D02*
X021907Y021433D01*
X021907Y021630D02*
X021907Y021433D01*
X021907Y021197D02*
X021907Y021000D01*
X021593Y021000D02*
X021593Y021197D01*
X021907Y021433D02*
X021907Y021197D01*
X017343Y021197D02*
X017657Y021197D01*
X018504Y024224D02*
X018504Y024500D01*
X018996Y024500D02*
X018996Y024224D01*
X018996Y023988D02*
X018504Y023988D01*
X018996Y023988D02*
X018996Y023713D01*
X018996Y024224D02*
X018996Y023988D01*
X018504Y023988D02*
X018504Y024224D01*
X018504Y023713D02*
X018504Y023988D01*
X017657Y021000D02*
X017343Y021000D01*
X017343Y021630D02*
X017657Y021630D01*
X014407Y007303D02*
X014407Y007067D01*
X014407Y007500D02*
X014407Y007303D01*
X013093Y011303D02*
X013093Y011500D01*
X013407Y011303D02*
X013093Y011303D01*
X013093Y010870D02*
X013093Y011067D01*
X013407Y011500D02*
X013407Y011303D01*
X013093Y011067D02*
X013093Y011303D01*
X013093Y011500D02*
X013407Y011500D01*
X014093Y007303D02*
X014407Y007303D01*
X014093Y006870D02*
X014093Y007067D01*
X014093Y007067D02*
X014093Y007303D01*
X013407Y010870D02*
X013093Y010870D01*
X014093Y007303D02*
X014093Y007500D01*
X015657Y007067D02*
X015657Y006870D01*
X015657Y007303D02*
X015657Y007067D01*
X015343Y006870D02*
X015343Y007067D01*
X015343Y007303D02*
X015343Y007500D01*
X015343Y007067D02*
X015343Y007303D01*
X015657Y007067D02*
X015343Y007067D01*
X015657Y007500D02*
X015657Y007303D01*
X014407Y006870D02*
X014093Y006870D01*
X014093Y007500D02*
X014407Y007500D01*
X014093Y007067D02*
X014407Y007067D01*
X014407Y007067D02*
X014407Y006870D01*
X027157Y012130D02*
X027157Y011933D01*
X026843Y011697D02*
X026843Y011933D01*
X027157Y011697D02*
X026843Y011697D01*
X027157Y011697D02*
X027157Y011500D01*
X027157Y011933D02*
X027157Y011697D01*
X026843Y011500D02*
X026843Y011697D01*
X027157Y011500D02*
X026843Y011500D01*
X014657Y011067D02*
X014657Y010870D01*
X026843Y012130D02*
X027157Y012130D01*
X026843Y011933D02*
X026843Y012130D01*
X027157Y011933D02*
X026843Y011933D01*
X023843Y012183D02*
X024157Y012183D01*
X023843Y011750D02*
X023843Y011947D01*
X023843Y011947D02*
X023843Y012183D01*
X023843Y012183D02*
X023843Y012380D01*
X024157Y012183D02*
X024157Y011947D01*
X024157Y011750D02*
X023843Y011750D01*
X023843Y012380D02*
X024157Y012380D01*
X023843Y011947D02*
X024157Y011947D01*
X024157Y012380D02*
X024157Y012183D01*
X024157Y011947D02*
X024157Y011750D01*
X013407Y011303D02*
X013407Y011067D01*
X013407Y011067D02*
X013093Y011067D01*
X013407Y011067D02*
X013407Y010870D01*
X014343Y011067D02*
X014343Y011303D01*
X014343Y010870D02*
X014343Y011067D01*
X014657Y011500D02*
X014657Y011303D01*
X014657Y011303D02*
X014657Y011067D01*
X014657Y011067D02*
X014343Y011067D01*
X014343Y011303D02*
X014343Y011500D01*
X014657Y010870D02*
X014343Y010870D01*
X014657Y011303D02*
X014343Y011303D01*
X014343Y011500D02*
X014657Y011500D01*
X024500Y015157D02*
X024697Y015157D01*
X024933Y015157D02*
X025130Y015157D01*
X024697Y015157D02*
X024933Y015157D01*
X024697Y014843D02*
X024697Y015157D01*
X025130Y014843D02*
X024933Y014843D01*
X024933Y014843D02*
X024933Y015157D01*
X025130Y015157D02*
X025130Y014843D01*
X024697Y014843D02*
X024500Y014843D01*
X024933Y014843D02*
X024697Y014843D01*
X019907Y016933D02*
X019593Y016933D01*
X019593Y017130D02*
X019907Y017130D01*
X019593Y016933D02*
X019593Y017130D01*
X019593Y016697D02*
X019593Y016933D01*
X019593Y016500D02*
X019593Y016697D01*
X019907Y016500D02*
X019593Y016500D01*
X016870Y015657D02*
X017067Y015657D01*
X017303Y015657D02*
X017303Y015343D01*
X017303Y015657D02*
X017500Y015657D01*
X017067Y015657D02*
X017303Y015657D01*
X019907Y016697D02*
X019593Y016697D01*
X019907Y017130D02*
X019907Y016933D01*
X019907Y016933D02*
X019907Y016697D01*
X024500Y014843D02*
X024500Y015157D01*
X019907Y016697D02*
X019907Y016500D01*
X016907Y007303D02*
X016907Y007067D01*
X016907Y007067D02*
X016593Y007067D01*
X016907Y007067D02*
X016907Y006870D01*
X015343Y007500D02*
X015657Y007500D01*
X015657Y006870D02*
X015343Y006870D01*
X016907Y007500D02*
X016907Y007303D01*
X016593Y007067D02*
X016593Y007303D01*
X016593Y006870D02*
X016593Y007067D01*
X015657Y007303D02*
X015343Y007303D01*
X016593Y007500D02*
X016907Y007500D01*
X016907Y006870D02*
X016593Y006870D01*
X016907Y007303D02*
X016593Y007303D01*
X016593Y007303D02*
X016593Y007500D01*
X020803Y033407D02*
X021000Y033407D01*
X020567Y033407D02*
X020803Y033407D01*
X021000Y035496D02*
X021000Y035004D01*
X020213Y035004D02*
X020213Y035496D01*
X020803Y033407D02*
X020803Y033093D01*
X032250Y032504D02*
X031974Y032504D01*
X031738Y032504D02*
X031463Y032504D01*
X020370Y033407D02*
X020567Y033407D01*
X031974Y032504D02*
X031738Y032504D01*
X021000Y035004D02*
X020724Y035004D01*
X020488Y035004D02*
X020213Y035004D01*
X020724Y035004D02*
X020488Y035004D01*
X020724Y035496D02*
X021000Y035496D01*
X020724Y035496D02*
X020724Y035004D01*
X020488Y035004D02*
X020488Y035496D01*
X020488Y035496D02*
X020724Y035496D01*
X020213Y035496D02*
X020488Y035496D01*
X031974Y032996D02*
X032250Y032996D01*
X021000Y033407D02*
X021000Y033093D01*
X020567Y033407D02*
X020567Y033093D01*
X020370Y033093D02*
X020370Y033407D01*
X016567Y033407D02*
X016803Y033407D01*
X016803Y033407D02*
X016803Y033093D01*
X016803Y033407D02*
X017000Y033407D01*
X031974Y032996D02*
X031974Y032504D01*
X031738Y032504D02*
X031738Y032996D01*
X031738Y032996D02*
X031974Y032996D01*
X031463Y032996D02*
X031738Y032996D01*
X032250Y032996D02*
X032250Y032504D01*
X021000Y033093D02*
X020803Y033093D01*
X020567Y033093D02*
X020370Y033093D01*
X031463Y032504D02*
X031463Y032996D01*
X020803Y033093D02*
X020567Y033093D01*
X027488Y032996D02*
X027724Y032996D01*
X027213Y032996D02*
X027488Y032996D01*
X027488Y032504D02*
X027213Y032504D01*
X027724Y032996D02*
X028000Y032996D01*
X027724Y032996D02*
X027724Y032504D01*
X027213Y032504D02*
X027213Y032996D01*
X027488Y032504D02*
X027488Y032996D01*
X028000Y032996D02*
X028000Y032504D01*
X017000Y033093D02*
X016803Y033093D01*
X016567Y033093D02*
X016370Y033093D01*
X016370Y033407D02*
X016567Y033407D01*
X016803Y033093D02*
X016567Y033093D01*
X016567Y033407D02*
X016567Y033093D01*
X027724Y032504D02*
X027488Y032504D01*
X028000Y032504D02*
X027724Y032504D01*
X016370Y033093D02*
X016370Y033407D01*
X017000Y033407D02*
X017000Y033093D01*
X027504Y025463D02*
X027504Y025738D01*
X027504Y025738D02*
X027504Y025974D01*
X032250Y030593D02*
X032053Y030593D01*
X031817Y030593D02*
X031620Y030593D01*
X032250Y030907D02*
X032250Y030593D01*
X031817Y030907D02*
X031817Y030593D01*
X031620Y030593D02*
X031620Y030907D01*
X032053Y030593D02*
X031817Y030593D01*
X026567Y034843D02*
X026370Y034843D01*
X026567Y035157D02*
X026567Y034843D01*
X026803Y034843D02*
X026567Y034843D01*
X027000Y034843D02*
X026803Y034843D01*
X032053Y030907D02*
X032053Y030593D01*
X031620Y030907D02*
X031817Y030907D01*
X026370Y034843D02*
X026370Y035157D01*
X027000Y035157D02*
X027000Y034843D01*
X027803Y030907D02*
X028000Y030907D01*
X024766Y026587D02*
X024766Y025012D01*
X024766Y025012D02*
X026734Y025012D01*
X027370Y030593D02*
X027370Y030907D01*
X028000Y030907D02*
X028000Y030593D01*
X024803Y035157D02*
X024803Y034843D01*
X024370Y035157D02*
X024567Y035157D01*
X024803Y035157D02*
X025000Y035157D01*
X024567Y035157D02*
X024803Y035157D01*
X027370Y030907D02*
X027567Y030907D01*
X027803Y030593D02*
X027567Y030593D01*
X027567Y030907D02*
X027803Y030907D01*
X027803Y030907D02*
X027803Y030593D01*
X027567Y030907D02*
X027567Y030593D01*
X028000Y030593D02*
X027803Y030593D01*
X027567Y030593D02*
X027370Y030593D01*
X027996Y025974D02*
X027996Y025738D01*
X032496Y025738D02*
X032004Y025738D01*
X027996Y025738D02*
X027504Y025738D01*
X027996Y026250D02*
X027996Y025974D01*
X021504Y029026D02*
X021504Y029262D01*
X021504Y028750D02*
X021504Y029026D01*
X032004Y025974D02*
X032496Y025974D01*
X032004Y026250D02*
X032496Y026250D01*
X032496Y026250D02*
X032496Y025974D01*
X027504Y026250D02*
X027996Y026250D01*
X032004Y025738D02*
X032004Y025974D01*
X027504Y025974D02*
X027996Y025974D01*
X027996Y025463D02*
X027504Y025463D01*
X032496Y025738D02*
X032496Y025463D01*
X032496Y025974D02*
X032496Y025738D01*
X032004Y025463D02*
X032004Y025738D01*
X032004Y025974D02*
X032004Y026250D01*
X021504Y029262D02*
X021504Y029537D01*
X026803Y035157D02*
X027000Y035157D01*
X026567Y035157D02*
X026803Y035157D01*
X032053Y030907D02*
X032250Y030907D01*
X031817Y030907D02*
X032053Y030907D01*
X027504Y025974D02*
X027504Y026250D01*
X026370Y035157D02*
X026567Y035157D01*
X026803Y035157D02*
X026803Y034843D01*
X027996Y025738D02*
X027996Y025463D01*
X021996Y029537D02*
X021996Y029262D01*
X021996Y029026D02*
X021504Y029026D01*
X021996Y029026D02*
X021996Y028750D01*
X021996Y029262D02*
X021996Y029026D01*
X021504Y029537D02*
X021996Y029537D01*
X021504Y029262D02*
X021996Y029262D01*
X021996Y028750D02*
X021504Y028750D01*
X024803Y034843D02*
X024567Y034843D01*
X026734Y025012D02*
X026734Y026587D01*
X017004Y029262D02*
X017496Y029262D01*
X017496Y029026D02*
X017004Y029026D01*
X029266Y025012D02*
X031234Y025012D01*
X029266Y026587D02*
X029266Y025012D01*
X026734Y026587D02*
X024766Y026587D01*
X017496Y029537D02*
X017496Y029262D01*
X017496Y029262D02*
X017496Y029026D01*
X014266Y028262D02*
X016234Y028262D01*
X014266Y029837D02*
X014266Y028262D01*
X020484Y029837D02*
X018516Y029837D01*
X017496Y028750D02*
X017004Y028750D01*
X017004Y029537D02*
X017496Y029537D01*
X016234Y029837D02*
X014266Y029837D01*
X020484Y028262D02*
X020484Y029837D01*
X024370Y034843D02*
X024370Y035157D01*
X025000Y035157D02*
X025000Y034843D01*
X031234Y025012D02*
X031234Y026587D01*
X018516Y028262D02*
X020484Y028262D01*
X018516Y029837D02*
X018516Y028262D01*
X031234Y026587D02*
X029266Y026587D01*
X032496Y025463D02*
X032004Y025463D01*
X016724Y035496D02*
X017000Y035496D01*
X016234Y028262D02*
X016234Y029837D01*
X024567Y035157D02*
X024567Y034843D01*
X025000Y034843D02*
X024803Y034843D01*
X024567Y034843D02*
X024370Y034843D01*
X016488Y035004D02*
X016213Y035004D01*
X017000Y035004D02*
X016724Y035004D01*
X016213Y035496D02*
X016488Y035496D01*
X016724Y035004D02*
X016488Y035004D01*
X017496Y029026D02*
X017496Y028750D01*
X016488Y035496D02*
X016724Y035496D01*
D47*
X014484Y009927D02*
X014691Y010045D01*
X013234Y009986D02*
X013234Y009839D01*
X014691Y009839D02*
X014307Y009839D01*
X014484Y009986D02*
X014484Y009839D01*
X014632Y010459D02*
X014691Y010400D01*
X013441Y009839D02*
X013057Y009839D01*
X014484Y010400D02*
X014543Y010459D01*
X014543Y010459D02*
X014632Y010459D01*
X009795Y013634D02*
X009795Y013368D01*
X013175Y010045D02*
X013234Y009986D01*
X014307Y010400D02*
X014366Y010459D01*
X014691Y010400D02*
X014691Y010311D01*
X014425Y010459D02*
X014484Y010400D01*
X014366Y010459D02*
X014425Y010459D01*
X010061Y013693D02*
X010150Y013693D01*
X010209Y013309D02*
X010002Y013309D01*
X010209Y013575D02*
X010002Y013368D01*
X010061Y013693D02*
X010002Y013634D01*
X013057Y009839D02*
X013057Y009986D01*
X010150Y013693D02*
X010209Y013634D01*
X010209Y013575D02*
X010209Y013634D01*
X012000Y026774D02*
X007748Y026774D01*
X012000Y026774D02*
X013181Y026774D01*
X013057Y010252D02*
X013057Y010459D01*
X013181Y027364D02*
X012000Y027364D01*
X013181Y030136D02*
X013181Y030726D01*
X007748Y030726D02*
X012000Y030726D01*
X012000Y030726D02*
X013181Y030726D01*
X014307Y009986D02*
X014366Y010045D01*
X014307Y009839D02*
X014307Y009986D01*
X014425Y010045D02*
X014484Y009986D01*
X014366Y010045D02*
X014425Y010045D01*
X012000Y030136D02*
X013181Y030136D01*
X010002Y013368D02*
X010002Y013309D01*
X013057Y010459D02*
X013146Y010459D01*
X013146Y010459D02*
X013441Y010341D01*
X013146Y010252D02*
X013057Y010252D01*
X013234Y009927D02*
X013441Y010045D01*
X014691Y010311D02*
X014632Y010252D01*
X024191Y012839D02*
X023807Y012839D01*
X023807Y012839D02*
X023807Y012986D01*
X026925Y013209D02*
X026984Y013150D01*
X023984Y012986D02*
X023984Y012839D01*
X023925Y013045D02*
X023984Y012986D01*
X027043Y013209D02*
X027132Y013209D01*
X027132Y013209D02*
X027191Y013150D01*
X026984Y013150D02*
X026984Y013061D01*
X026984Y013150D02*
X027043Y013209D01*
X026925Y012795D02*
X026984Y012736D01*
X026807Y012589D02*
X026807Y012736D01*
X022136Y009931D02*
X022136Y008750D01*
X026866Y012795D02*
X026925Y012795D01*
X027191Y012589D02*
X026807Y012589D01*
X026807Y013150D02*
X026866Y013209D01*
X026925Y013209D02*
X026866Y013209D01*
X026984Y012736D02*
X026984Y012589D01*
X026984Y012677D02*
X027191Y012795D01*
X027191Y013150D02*
X027191Y013061D01*
X027191Y013061D02*
X027132Y013002D01*
X026807Y013061D02*
X026866Y013002D01*
X026807Y013061D02*
X026807Y013150D01*
X022726Y009931D02*
X022136Y009931D01*
X023866Y013045D02*
X023925Y013045D01*
X023807Y012986D02*
X023866Y013045D01*
X022726Y004498D02*
X017774Y004498D01*
X022136Y008750D02*
X018364Y008750D01*
X009795Y013368D02*
X009736Y013309D01*
X009589Y013693D02*
X009736Y013693D01*
X009736Y013693D02*
X009795Y013634D01*
X017774Y004498D02*
X017774Y008750D01*
X014307Y010311D02*
X014307Y010400D01*
X014543Y010252D02*
X014632Y010252D01*
X014484Y010311D02*
X014425Y010252D01*
X014484Y010400D02*
X014484Y010311D01*
X014484Y010311D02*
X014543Y010252D01*
X014425Y010252D02*
X014366Y010252D01*
X009589Y013309D02*
X009589Y013693D01*
X009736Y013309D02*
X009589Y013309D01*
X014366Y010252D02*
X014307Y010311D01*
X023984Y012927D02*
X024191Y013045D01*
X024102Y013193D02*
X024102Y013459D01*
X023896Y013400D02*
X024191Y013400D01*
X026807Y012736D02*
X026866Y012795D01*
X022726Y008750D02*
X022726Y004498D01*
X022726Y008750D02*
X022726Y009931D01*
X018364Y008750D02*
X018364Y009931D01*
X018364Y009931D02*
X017774Y009931D01*
X017774Y008750D02*
X017774Y009931D01*
X023778Y013341D02*
X024102Y013193D01*
X013116Y010045D02*
X013175Y010045D01*
X032089Y014193D02*
X032236Y014193D01*
X032236Y013809D02*
X032089Y013809D01*
X032236Y014193D02*
X032295Y014134D01*
X032295Y013868D02*
X032236Y013809D01*
X032531Y013809D02*
X032650Y013809D01*
X032591Y014193D02*
X032531Y014134D01*
X032591Y014193D02*
X032591Y013809D01*
X032089Y013809D02*
X032089Y014193D01*
X032295Y014134D02*
X032295Y013868D01*
X018622Y010825D02*
X018622Y010884D01*
X013616Y005545D02*
X013882Y005545D01*
X018563Y010943D02*
X018622Y010884D01*
X018002Y010618D02*
X018061Y010559D01*
X018061Y010559D02*
X018150Y010559D01*
X013557Y005486D02*
X013616Y005545D01*
X013882Y005545D02*
X013941Y005486D01*
X013557Y005339D02*
X013557Y005486D01*
X013941Y005339D02*
X013557Y005339D01*
X013941Y005486D02*
X013941Y005339D01*
X017618Y010559D02*
X017736Y010559D01*
X017618Y010943D02*
X017736Y010943D01*
X017677Y010943D02*
X017677Y010559D01*
X013882Y005959D02*
X013941Y005900D01*
X018061Y010943D02*
X018002Y010884D01*
X018002Y010884D02*
X018002Y010618D01*
X018150Y010943D02*
X018061Y010943D01*
X018209Y010618D02*
X018150Y010559D01*
X018150Y010943D02*
X018209Y010884D01*
X013764Y005959D02*
X013882Y005959D01*
X013705Y005900D02*
X013764Y005959D01*
X013705Y005900D02*
X013705Y005752D01*
X013557Y005752D02*
X013557Y005929D01*
X013557Y005752D02*
X013705Y005752D01*
X016441Y005486D02*
X016441Y005339D01*
X016441Y005339D02*
X016057Y005339D01*
X016057Y005339D02*
X016057Y005486D01*
X016382Y005545D02*
X016441Y005486D01*
X016057Y005486D02*
X016116Y005545D01*
X014778Y005841D02*
X015102Y005693D01*
X015191Y005486D02*
X015191Y005339D01*
X015102Y005693D02*
X015102Y005959D01*
X014866Y005545D02*
X015132Y005545D01*
X014896Y005900D02*
X015191Y005900D01*
X013941Y005811D02*
X013882Y005752D01*
X013941Y005900D02*
X013941Y005811D01*
X015132Y005545D02*
X015191Y005486D01*
X014807Y005339D02*
X014807Y005486D01*
X014807Y005486D02*
X014866Y005545D01*
X016441Y005900D02*
X016441Y005811D01*
X016441Y005811D02*
X016382Y005752D01*
X016175Y005959D02*
X016234Y005900D01*
X016234Y005900D02*
X016234Y005811D01*
X016175Y005959D02*
X016116Y005959D01*
X016116Y005545D02*
X016382Y005545D01*
X016057Y005900D02*
X016116Y005959D01*
X016057Y005811D02*
X016116Y005752D01*
X016057Y005811D02*
X016057Y005900D01*
X016382Y005959D02*
X016441Y005900D01*
X016234Y005900D02*
X016293Y005959D01*
X016293Y005959D02*
X016382Y005959D01*
X013557Y006839D02*
X013557Y006986D01*
X015191Y005339D02*
X014807Y005339D01*
X013675Y007045D02*
X013734Y006986D01*
X013557Y006986D02*
X013616Y007045D01*
X013616Y007045D02*
X013675Y007045D01*
X013557Y007341D02*
X013941Y007341D01*
X013941Y007281D02*
X013941Y007400D01*
X013734Y006927D02*
X013941Y007045D01*
X013941Y006839D02*
X013557Y006839D01*
X013734Y006986D02*
X013734Y006839D01*
X014807Y007754D02*
X014866Y007695D01*
X013181Y026774D02*
X013181Y027364D01*
X013057Y009986D02*
X013116Y010045D01*
X007748Y026774D02*
X007748Y030726D01*
X012000Y027364D02*
X012000Y030136D01*
X013557Y007724D02*
X013616Y007665D01*
X013557Y007724D02*
X013557Y007813D01*
X013675Y007872D02*
X013616Y007872D01*
X013557Y007341D02*
X013616Y007281D01*
X013557Y007813D02*
X013616Y007872D01*
X013882Y007665D02*
X013941Y007665D01*
X013941Y007872D02*
X013941Y007665D01*
X013675Y007872D02*
X013882Y007665D01*
X015191Y007695D02*
X015191Y007813D01*
X016441Y007281D02*
X016441Y007400D01*
X016057Y007341D02*
X016116Y007281D01*
X016057Y007341D02*
X016441Y007341D01*
X016234Y006986D02*
X016234Y006839D01*
X016234Y006927D02*
X016441Y007045D01*
X016057Y007724D02*
X016116Y007665D01*
X016057Y007724D02*
X016057Y007813D01*
X016382Y007872D02*
X016441Y007813D01*
X016057Y007813D02*
X016116Y007872D01*
X016116Y007872D02*
X016382Y007872D01*
X018622Y010825D02*
X018415Y010618D01*
X018415Y010618D02*
X018415Y010559D01*
X018622Y010559D02*
X018415Y010559D01*
X018474Y010943D02*
X018415Y010884D01*
X018474Y010943D02*
X018563Y010943D01*
X016057Y006839D02*
X016057Y006986D01*
X016441Y006839D02*
X016057Y006839D01*
X016175Y007045D02*
X016234Y006986D01*
X016057Y006986D02*
X016116Y007045D01*
X016116Y007045D02*
X016175Y007045D01*
X015191Y006839D02*
X014807Y006839D01*
X014984Y006986D02*
X014984Y006839D01*
X014807Y006839D02*
X014807Y006986D01*
X014866Y007045D02*
X014925Y007045D01*
X014925Y007045D02*
X014984Y006986D01*
X014807Y007341D02*
X014866Y007281D01*
X014807Y007754D02*
X015191Y007754D01*
X015191Y007281D02*
X015191Y007400D01*
X014984Y006927D02*
X015191Y007045D01*
X014807Y007341D02*
X015191Y007341D01*
X016441Y007813D02*
X016441Y007724D01*
X016116Y007665D02*
X016382Y007665D01*
X016382Y007665D02*
X016441Y007724D01*
X014807Y006986D02*
X014866Y007045D01*
X022774Y008750D02*
X022774Y009931D01*
X022774Y004498D02*
X022774Y008750D01*
X023364Y009931D02*
X022774Y009931D01*
X023364Y008750D02*
X023364Y009931D01*
X027726Y008750D02*
X027726Y004498D01*
X033502Y007774D02*
X029250Y007774D01*
X029250Y007774D02*
X028069Y007774D01*
X029250Y008364D02*
X028069Y008364D01*
X028069Y008364D02*
X028069Y007774D01*
X028069Y012136D02*
X029250Y012136D01*
X028069Y012726D02*
X028069Y012136D01*
X029250Y012726D02*
X033502Y012726D01*
X029250Y012726D02*
X028069Y012726D01*
X033502Y012726D02*
X033502Y007774D01*
X029250Y012136D02*
X029250Y008364D01*
X013181Y012136D02*
X013181Y012726D01*
X007748Y012726D02*
X012000Y012726D01*
X012000Y012726D02*
X013181Y012726D01*
X012000Y012136D02*
X013181Y012136D01*
X012000Y007774D02*
X007748Y007774D01*
X012000Y008364D02*
X012000Y012136D01*
X013181Y007774D02*
X013181Y008364D01*
X007748Y007774D02*
X007748Y012726D01*
X012000Y007774D02*
X013181Y007774D01*
X013181Y008364D02*
X012000Y008364D01*
X007748Y018774D02*
X007748Y023726D01*
X012000Y019364D02*
X012000Y023136D01*
X013181Y019364D02*
X012000Y019364D01*
X013181Y018774D02*
X013181Y019364D01*
X007748Y030774D02*
X007748Y034726D01*
X012000Y031364D02*
X012000Y034136D01*
X012000Y034136D02*
X013181Y034136D01*
X013181Y034136D02*
X013181Y034726D01*
X007748Y034726D02*
X012000Y034726D01*
X012000Y034726D02*
X013181Y034726D01*
X013181Y031364D02*
X012000Y031364D01*
X013181Y030774D02*
X013181Y031364D01*
X012000Y030774D02*
X007748Y030774D01*
X012000Y030774D02*
X013181Y030774D01*
X012000Y023136D02*
X013181Y023136D01*
X013181Y023136D02*
X013181Y023726D01*
X007748Y023726D02*
X012000Y023726D01*
X012000Y023726D02*
X013181Y023726D01*
X012000Y018774D02*
X007748Y018774D01*
X012000Y018774D02*
X013181Y018774D01*
X027136Y008750D02*
X023364Y008750D01*
X027726Y004498D02*
X022774Y004498D01*
X027726Y008750D02*
X027726Y009931D01*
X027726Y009931D02*
X027136Y009931D01*
X027136Y009931D02*
X027136Y008750D01*
D48*
X022671Y029799D02*
X022593Y029957D01*
X022159Y029799D02*
X022238Y029720D01*
X022159Y029917D02*
X022159Y029799D01*
X022435Y029799D02*
X022356Y029720D01*
X022238Y029720D02*
X022356Y029720D01*
X022671Y028697D02*
X022671Y028815D01*
X022159Y029287D02*
X022671Y029287D01*
X022593Y028618D02*
X022671Y028697D01*
X022159Y028697D02*
X022238Y028618D01*
X022238Y028618D02*
X022593Y028618D01*
X022671Y029209D02*
X022671Y029366D01*
X022238Y029996D02*
X022474Y029996D01*
X022435Y029917D02*
X022435Y029799D01*
X022159Y029917D02*
X022238Y029996D01*
X022159Y029287D02*
X022238Y029209D01*
X022356Y029996D02*
X022435Y029917D01*
X022593Y029957D02*
X022474Y029996D01*
X020118Y034157D02*
X020197Y034079D01*
X032343Y027144D02*
X032421Y027065D01*
X031909Y027065D02*
X031988Y027144D01*
X020197Y034079D02*
X020315Y034079D01*
X019549Y005591D02*
X019667Y005591D01*
X019746Y005079D02*
X019470Y005079D01*
X032343Y026868D02*
X032421Y026947D01*
X032421Y026947D02*
X032421Y027065D01*
X031909Y027616D02*
X031988Y027695D01*
X031909Y027065D02*
X031909Y026947D01*
X031909Y026947D02*
X031988Y026868D01*
X031988Y026868D02*
X032343Y026868D01*
X019549Y005591D02*
X019470Y005512D01*
X020514Y037242D02*
X020415Y037144D01*
X020661Y037242D02*
X020514Y037242D01*
X020760Y037144D02*
X020661Y037242D01*
X020866Y034591D02*
X020945Y034512D01*
X021350Y037488D02*
X021449Y037390D01*
X020415Y037242D02*
X020415Y036848D01*
X019726Y037144D02*
X019726Y036947D01*
X019667Y005591D02*
X019746Y005512D01*
X019746Y005433D02*
X019746Y005512D01*
X019825Y036848D02*
X020071Y036848D01*
X020071Y037144D02*
X020071Y037045D01*
X019726Y037045D02*
X020071Y037045D01*
X022159Y028815D02*
X022159Y028697D01*
X032746Y030183D02*
X032667Y030104D01*
X032667Y030104D02*
X032549Y030104D01*
X032746Y030183D02*
X032746Y030262D01*
X031919Y029907D02*
X031919Y029829D01*
X032667Y030341D02*
X032746Y030262D01*
X020669Y034157D02*
X020669Y034079D01*
X020945Y034433D02*
X020669Y034157D01*
X021417Y034591D02*
X021496Y034512D01*
X032667Y030104D02*
X032746Y030026D01*
X021496Y034433D02*
X021496Y034512D01*
X032195Y030183D02*
X031919Y029907D01*
X031565Y030104D02*
X031368Y030104D01*
X031486Y030104D02*
X031644Y029829D01*
X031368Y029829D02*
X031368Y030341D01*
X031644Y030183D02*
X031565Y030104D01*
X031368Y030341D02*
X031565Y030341D01*
X031998Y030341D02*
X032116Y030341D01*
X032195Y029829D02*
X031919Y029829D01*
X031998Y030341D02*
X031919Y030262D01*
X032116Y030341D02*
X032195Y030262D01*
X032195Y030183D02*
X032195Y030262D01*
X020945Y034079D02*
X020669Y034079D01*
X020748Y034591D02*
X020866Y034591D01*
X021449Y037390D02*
X021449Y036947D01*
X021203Y037488D02*
X021104Y037390D01*
X021449Y036947D02*
X021350Y036848D01*
X022593Y028894D02*
X022671Y028815D01*
X022159Y028815D02*
X022238Y028894D01*
X019195Y005079D02*
X019195Y005591D01*
X020748Y034591D02*
X020669Y034512D01*
X020945Y034433D02*
X020945Y034512D01*
X021203Y037488D02*
X021350Y037488D01*
X032549Y030341D02*
X032667Y030341D01*
X032667Y029829D02*
X032549Y029829D01*
X032549Y030341D02*
X032470Y030262D01*
X032746Y030026D02*
X032746Y029907D01*
X032746Y029907D02*
X032667Y029829D01*
X021104Y036947D02*
X021203Y036848D01*
X021104Y037390D02*
X021104Y036947D01*
X021350Y036848D02*
X021203Y036848D01*
X032549Y029829D02*
X032470Y029907D01*
X021941Y037488D02*
X021941Y036848D01*
X032067Y027695D02*
X031988Y027695D01*
X026116Y028091D02*
X026195Y028012D01*
X026116Y028091D02*
X025998Y028091D01*
X025998Y028091D02*
X025919Y028012D01*
X025407Y027579D02*
X025565Y027579D01*
X025407Y028091D02*
X025565Y028091D01*
X026195Y027657D02*
X026116Y027579D01*
X026746Y027657D02*
X026667Y027579D01*
X026667Y027894D02*
X026746Y027815D01*
X026746Y027815D02*
X026746Y027657D01*
X025919Y028012D02*
X025919Y027657D01*
X025919Y027657D02*
X025998Y027579D01*
X025998Y027579D02*
X026116Y027579D01*
X025486Y028091D02*
X025486Y027579D01*
X015740Y037537D02*
X015494Y036996D01*
X015494Y036996D02*
X015937Y036996D01*
X015839Y037341D02*
X015839Y036848D01*
X016626Y036848D02*
X016626Y037488D01*
X016281Y037488D02*
X016626Y036848D01*
X016281Y036848D02*
X016281Y037488D01*
X015150Y036848D02*
X014904Y036848D01*
X014904Y037488D02*
X015150Y037488D01*
X015150Y037488D02*
X015248Y037390D01*
X015248Y037390D02*
X015248Y036947D01*
X019470Y005157D02*
X019470Y005079D01*
X014904Y036848D02*
X014904Y037488D01*
X023618Y005157D02*
X023697Y005079D01*
X023697Y005079D02*
X023815Y005079D01*
X024169Y005079D02*
X024169Y005591D01*
X023815Y005591D02*
X023697Y005591D01*
X023697Y005591D02*
X023618Y005512D01*
X023618Y005512D02*
X023618Y005157D01*
X013526Y037488D02*
X013870Y036848D01*
X024169Y005591D02*
X024445Y005079D01*
X023815Y005591D02*
X023894Y005512D01*
X026667Y027579D02*
X026549Y027579D01*
X026549Y027579D02*
X026470Y027657D01*
X015248Y036947D02*
X015150Y036848D01*
X026667Y027894D02*
X026470Y027894D01*
X026470Y028091D02*
X026470Y027894D01*
X026470Y028091D02*
X026707Y028091D01*
X014165Y037488D02*
X014165Y036848D01*
X013870Y036848D02*
X013870Y037488D01*
X023894Y005157D02*
X023815Y005079D01*
X014559Y037488D02*
X014559Y036848D01*
X014362Y037291D02*
X014559Y037488D01*
X014165Y037488D02*
X014362Y037291D01*
X018004Y037488D02*
X017659Y037144D01*
X017659Y037488D02*
X017659Y036848D01*
X019746Y005433D02*
X019470Y005157D01*
X019037Y037242D02*
X019185Y036848D01*
X018299Y036848D02*
X018693Y036848D01*
X017758Y037242D02*
X018004Y036848D01*
X020197Y034591D02*
X020118Y034512D01*
X020315Y034591D02*
X020197Y034591D01*
X027409Y027065D02*
X027409Y026947D01*
X027843Y027144D02*
X027921Y027065D01*
X027409Y027065D02*
X027488Y027144D01*
X020118Y034512D02*
X020118Y034157D01*
X019185Y036848D02*
X019333Y037242D01*
X032067Y027695D02*
X032343Y027419D01*
X032343Y027419D02*
X032421Y027419D01*
X031909Y028089D02*
X032421Y028089D01*
X031909Y027498D02*
X031988Y027419D01*
X031909Y027498D02*
X031909Y027616D01*
X032421Y027695D02*
X032421Y027419D01*
X019972Y037242D02*
X019825Y037242D01*
X020071Y037144D02*
X019972Y037242D01*
X019726Y036947D02*
X019825Y036848D01*
X032421Y028010D02*
X032421Y028167D01*
X031909Y028089D02*
X031988Y028010D01*
X019825Y037242D02*
X019726Y037144D01*
X027488Y027970D02*
X027843Y027970D01*
X027843Y027970D02*
X027921Y028049D01*
X027921Y028167D02*
X027921Y028049D01*
X027843Y028246D02*
X027921Y028167D01*
X027409Y028049D02*
X027488Y027970D01*
X027409Y028049D02*
X027409Y028167D01*
X017315Y037488D02*
X017315Y036848D01*
X016970Y036848D02*
X016970Y037488D01*
X016970Y037193D02*
X017315Y037193D01*
X020315Y034591D02*
X020394Y034512D01*
X020394Y034157D02*
X020315Y034079D01*
X027488Y028246D02*
X027843Y028246D01*
X027921Y026947D02*
X027921Y027065D01*
X027409Y027616D02*
X027488Y027695D01*
X027567Y027695D02*
X027488Y027695D01*
X027409Y026947D02*
X027488Y026868D01*
X027488Y026868D02*
X027843Y026868D01*
X027843Y026868D02*
X027921Y026947D01*
X027567Y027695D02*
X027843Y027419D01*
X027843Y027419D02*
X027921Y027419D01*
X027409Y028167D02*
X027488Y028246D01*
X027409Y027498D02*
X027488Y027419D01*
X027409Y027498D02*
X027409Y027616D01*
X027921Y027695D02*
X027921Y027419D01*
X024996Y005433D02*
X024996Y005512D01*
X024917Y005591D02*
X024996Y005512D01*
X024445Y005079D02*
X024445Y005591D01*
X025748Y033604D02*
X025669Y033526D01*
X025669Y033526D02*
X025669Y033407D01*
X024996Y005433D02*
X024917Y005354D01*
X008159Y030140D02*
X008238Y030061D01*
X008671Y030061D02*
X008671Y030219D01*
X008159Y030140D02*
X008671Y030140D01*
X025748Y033604D02*
X025669Y033683D01*
X025669Y033683D02*
X025669Y033762D01*
X025669Y033762D02*
X025748Y033841D01*
X018565Y005591D02*
X018644Y005512D01*
X018644Y005157D02*
X018565Y005079D01*
X024799Y005591D02*
X024720Y005512D01*
X018447Y005591D02*
X018368Y005512D01*
X025866Y033329D02*
X025748Y033329D01*
X018565Y005591D02*
X018447Y005591D01*
X024917Y005354D02*
X024799Y005354D01*
X025748Y033329D02*
X025669Y033407D01*
X025866Y033604D02*
X025748Y033604D01*
X024996Y005157D02*
X024917Y005079D01*
X024996Y005276D02*
X024996Y005157D01*
X024917Y005354D02*
X024996Y005276D01*
X029998Y033565D02*
X029919Y033644D01*
X030116Y033565D02*
X029998Y033565D01*
X030195Y033762D02*
X030195Y033526D01*
X008159Y028565D02*
X008238Y028644D01*
X008593Y028644D02*
X008671Y028565D01*
X030116Y033841D02*
X029998Y033841D01*
X029368Y033329D02*
X029368Y033841D01*
X029565Y033329D02*
X029368Y033329D01*
X029368Y033841D02*
X029565Y033841D01*
X030116Y033841D02*
X030195Y033762D01*
X030195Y033644D02*
X030116Y033565D01*
X029644Y033762D02*
X029644Y033407D01*
X025748Y033841D02*
X025866Y033841D01*
X008671Y029195D02*
X008159Y029195D01*
X008159Y028919D02*
X008671Y029195D01*
X008159Y029589D02*
X008238Y029510D01*
X008671Y029510D02*
X008671Y029667D01*
X008159Y029589D02*
X008671Y029589D01*
X008238Y028368D02*
X008593Y028368D01*
X008159Y028447D02*
X008238Y028368D01*
X008159Y028565D02*
X008159Y028447D01*
X008671Y028919D02*
X008159Y028919D01*
X008671Y028447D02*
X008671Y028565D01*
X008593Y028368D02*
X008671Y028447D01*
X025866Y033604D02*
X025945Y033526D01*
X025945Y033526D02*
X025945Y033407D01*
X025866Y033841D02*
X025945Y033762D01*
X025118Y033329D02*
X025118Y033841D01*
X025394Y033762D02*
X025394Y033407D01*
X025945Y033407D02*
X025866Y033329D01*
X020695Y032329D02*
X020419Y032329D01*
X020498Y032841D02*
X020616Y032841D01*
X020498Y032841D02*
X020419Y032762D01*
X025945Y033762D02*
X025945Y033683D01*
X025945Y033683D02*
X025866Y033604D01*
X020695Y032683D02*
X020419Y032407D01*
X015868Y032841D02*
X016065Y032841D01*
X016144Y032683D02*
X016065Y032604D01*
X016144Y032762D02*
X016144Y032683D01*
X029919Y033762D02*
X029919Y033644D01*
X029998Y033329D02*
X030156Y033407D01*
X030156Y033407D02*
X030195Y033526D01*
X025315Y033841D02*
X025394Y033762D01*
X025118Y033841D02*
X025315Y033841D01*
X025315Y033329D02*
X025118Y033329D01*
X018919Y005079D02*
X018919Y005591D01*
X025394Y033407D02*
X025315Y033329D01*
X016065Y032841D02*
X016144Y032762D01*
X013909Y031868D02*
X013909Y032065D01*
X013909Y032065D02*
X013988Y032144D01*
X014343Y032144D02*
X014421Y032065D01*
X013988Y032144D02*
X014343Y032144D01*
X014421Y031868D02*
X013909Y031868D01*
X014421Y032065D02*
X014421Y031868D01*
X008593Y022144D02*
X008671Y022065D01*
X008159Y022065D02*
X008238Y022144D01*
X018368Y005512D02*
X018368Y005157D01*
X024917Y005079D02*
X024799Y005079D01*
X024799Y005591D02*
X024917Y005591D01*
X018368Y005157D02*
X018447Y005079D01*
X014028Y032459D02*
X013909Y032537D01*
X014209Y032419D02*
X014343Y032419D01*
X014146Y032498D02*
X014224Y032419D01*
X029998Y033841D02*
X029919Y033762D01*
X024799Y005079D02*
X024720Y005157D01*
X014028Y032459D02*
X014209Y032419D01*
X014224Y032695D02*
X014343Y032695D01*
X014146Y032616D02*
X014224Y032695D01*
X014343Y032695D02*
X014421Y032616D01*
X014146Y032616D02*
X014146Y032498D01*
X014421Y032498D02*
X014343Y032419D01*
X014421Y032616D02*
X014421Y032498D01*
X021299Y034591D02*
X021417Y034591D01*
X028496Y030144D02*
X028417Y030065D01*
X028417Y030341D02*
X028496Y030262D01*
X027787Y030341D02*
X027709Y030262D01*
X021299Y034079D02*
X021220Y034157D01*
X021417Y034079D02*
X021299Y034079D01*
X028417Y030341D02*
X028299Y030341D01*
X028299Y030341D02*
X028220Y030262D01*
X028220Y030262D02*
X028220Y030144D01*
X028496Y030262D02*
X028496Y030026D01*
X028417Y030065D02*
X028299Y030065D01*
X028299Y030065D02*
X028220Y030144D01*
X021010Y032329D02*
X021167Y032329D01*
X021089Y032841D02*
X021010Y032762D01*
X023417Y036848D02*
X023270Y036848D01*
X016970Y032841D02*
X017246Y032841D01*
X020419Y032407D02*
X020419Y032329D01*
X021089Y032841D02*
X021089Y032329D01*
X027236Y030104D02*
X027394Y029829D01*
X027787Y030341D02*
X027787Y029829D01*
X027709Y029829D02*
X027866Y029829D01*
X027118Y030341D02*
X027315Y030341D01*
X027118Y029829D02*
X027118Y030341D01*
X027315Y030104D02*
X027118Y030104D01*
X021843Y036848D02*
X022039Y036848D01*
X031565Y030341D02*
X031644Y030262D01*
X021299Y034591D02*
X021220Y034512D01*
X022630Y036996D02*
X022581Y036996D01*
X021941Y037488D02*
X021843Y037390D01*
X018919Y005591D02*
X019195Y005079D01*
X021417Y034354D02*
X021299Y034354D01*
X021496Y034433D02*
X021417Y034354D01*
X031644Y030262D02*
X031644Y030183D01*
X021496Y034157D02*
X021417Y034079D01*
X021496Y034276D02*
X021496Y034157D01*
X021417Y034354D02*
X021496Y034276D01*
X023171Y037390D02*
X023171Y036947D01*
X023270Y037488D02*
X023417Y037488D01*
X023270Y037488D02*
X023171Y037390D01*
X028299Y029829D02*
X028457Y029907D01*
X028457Y029907D02*
X028496Y030026D01*
X023171Y036947D02*
X023270Y036848D01*
X022630Y036996D02*
X022630Y036947D01*
X022581Y036947D02*
X022630Y036947D01*
X022581Y036996D02*
X022581Y036947D01*
X023516Y036947D02*
X023417Y036848D01*
X023516Y037390D02*
X023516Y036947D01*
X023417Y037488D02*
X023516Y037390D01*
X020144Y032683D02*
X020065Y032604D01*
X020144Y032762D02*
X020144Y032683D01*
X020065Y032841D02*
X020144Y032762D01*
X020065Y032604D02*
X019868Y032604D01*
X019868Y032329D02*
X019868Y032841D01*
X019868Y032841D02*
X020065Y032841D01*
X016537Y032841D02*
X016537Y032329D01*
X016459Y032329D02*
X016616Y032329D01*
X016537Y032841D02*
X016459Y032762D01*
X015868Y032329D02*
X015868Y032841D01*
X016065Y032604D02*
X015868Y032604D01*
X015986Y032604D02*
X016144Y032329D01*
X008238Y021868D02*
X008593Y021868D01*
X008593Y021868D02*
X008671Y021947D01*
X008671Y021947D02*
X008671Y022065D01*
X029565Y033841D02*
X029644Y033762D01*
X008159Y022065D02*
X008159Y021947D01*
X008159Y021947D02*
X008238Y021868D01*
X020695Y032683D02*
X020695Y032762D01*
X020616Y032841D02*
X020695Y032762D01*
X019986Y032604D02*
X020144Y032329D01*
X008671Y022419D02*
X008159Y022419D01*
X029644Y033407D02*
X029565Y033329D01*
X018447Y005079D02*
X018565Y005079D01*
X017246Y032722D02*
X017089Y032329D01*
X023860Y036947D02*
X023959Y036848D01*
X023860Y037390D02*
X023860Y036947D01*
X017909Y032065D02*
X017988Y032144D01*
X018343Y032144D02*
X018421Y032065D01*
X017246Y032841D02*
X017246Y032722D01*
X024205Y037390D02*
X024205Y036947D01*
X024106Y037488D02*
X024205Y037390D01*
X016970Y032722D02*
X016970Y032841D01*
X023959Y037488D02*
X024106Y037488D01*
X023959Y037488D02*
X023860Y037390D01*
X024205Y036947D02*
X024106Y036848D01*
X024106Y036848D02*
X023959Y036848D01*
X027315Y030341D02*
X027394Y030262D01*
X027394Y030262D02*
X027394Y030183D01*
X017909Y032419D02*
X017909Y032695D01*
X018028Y032419D02*
X017909Y032419D01*
X018028Y032695D02*
X018421Y032537D01*
X018421Y031868D02*
X017909Y031868D01*
X018421Y032065D02*
X018421Y031868D01*
X017909Y031868D02*
X017909Y032065D01*
X027394Y030183D02*
X027315Y030104D01*
X017909Y032695D02*
X018028Y032695D01*
X017988Y032144D02*
X018343Y032144D01*
X018778Y017417D02*
X019171Y017417D01*
X018659Y016787D02*
X018738Y016709D01*
X018620Y017339D02*
X019053Y017142D01*
X019053Y017142D02*
X019053Y017496D01*
X019171Y016709D02*
X019171Y016866D01*
X018896Y016315D02*
X018896Y016118D01*
X019171Y016118D02*
X018659Y016118D01*
X018659Y016787D02*
X019171Y016787D01*
X018896Y016236D02*
X019171Y016394D01*
X024644Y016012D02*
X024644Y015933D01*
X024565Y016091D02*
X024644Y016012D01*
X024368Y016091D02*
X024565Y016091D01*
X024644Y015933D02*
X024565Y015854D01*
X008356Y012167D02*
X008356Y011970D01*
X008593Y012246D02*
X008671Y012167D01*
X008671Y011695D02*
X008159Y011695D01*
X008435Y012246D02*
X008593Y012246D01*
X008356Y012167D02*
X008435Y012246D01*
X018659Y016118D02*
X018659Y016315D01*
X017549Y016591D02*
X017667Y016591D01*
X017549Y016591D02*
X017470Y016512D01*
X017549Y016079D02*
X017470Y016157D01*
X017667Y016079D02*
X017549Y016079D01*
X017746Y016157D02*
X017667Y016079D01*
X017667Y016354D02*
X017549Y016354D01*
X017746Y016433D02*
X017667Y016354D01*
X017746Y016276D02*
X017746Y016157D01*
X017667Y016354D02*
X017746Y016276D01*
X018659Y016315D02*
X018738Y016394D01*
X008159Y011419D02*
X008671Y011695D01*
X018817Y016394D02*
X018896Y016315D01*
X018738Y016394D02*
X018817Y016394D01*
X008671Y011419D02*
X008159Y011419D01*
X008238Y010868D02*
X008593Y010868D01*
X008159Y010947D02*
X008238Y010868D01*
X008671Y010947D02*
X008671Y011065D01*
X008593Y010868D02*
X008671Y010947D01*
X024368Y015579D02*
X024368Y016091D01*
X008671Y012049D02*
X008593Y011970D01*
X025667Y015854D02*
X025746Y015776D01*
X025746Y015657D02*
X025667Y015579D01*
X025667Y015579D02*
X025549Y015579D01*
X025746Y015776D02*
X025746Y015657D01*
X025037Y016091D02*
X024959Y016012D01*
X024486Y015854D02*
X024644Y015579D01*
X024565Y015854D02*
X024368Y015854D01*
X024959Y015579D02*
X025116Y015579D01*
X025037Y016091D02*
X025037Y015579D01*
X008159Y011970D02*
X008356Y011970D01*
X025510Y015972D02*
X025470Y015791D01*
X008671Y012167D02*
X008671Y012049D01*
X008159Y011970D02*
X008159Y012207D01*
X025510Y015972D02*
X025589Y016091D01*
X025667Y015854D02*
X025549Y015854D01*
X025549Y015579D02*
X025470Y015657D01*
X025470Y015791D02*
X025470Y015657D01*
X025549Y015854D02*
X025470Y015776D01*
X028146Y016315D02*
X028146Y016118D01*
X028421Y016118D02*
X027909Y016118D01*
X027909Y016866D02*
X027988Y016945D01*
X028146Y016236D02*
X028421Y016394D01*
X027909Y016118D02*
X027909Y016315D01*
X027909Y016315D02*
X027988Y016394D01*
X032370Y009839D02*
X032803Y009642D01*
X028067Y016394D02*
X028146Y016315D01*
X027988Y016394D02*
X028067Y016394D01*
X027909Y017417D02*
X027988Y017496D01*
X028343Y016669D02*
X028421Y016669D01*
X028343Y017496D02*
X028421Y017417D01*
X027988Y017496D02*
X028343Y017496D01*
X028067Y016945D02*
X028343Y016669D01*
X027909Y016748D02*
X027988Y016669D01*
X028067Y016945D02*
X027988Y016945D01*
X028421Y016945D02*
X028421Y016669D01*
X027909Y016748D02*
X027909Y016866D01*
X032803Y009642D02*
X032803Y009996D01*
X032317Y018945D02*
X032593Y018669D01*
X032671Y018945D02*
X032671Y018669D01*
X032278Y019417D02*
X032671Y019417D01*
X032593Y018669D02*
X032671Y018669D01*
X032159Y018748D02*
X032159Y018866D01*
X032159Y018866D02*
X032238Y018945D01*
X032396Y018236D02*
X032671Y018394D01*
X032159Y018748D02*
X032238Y018669D01*
X032317Y018945D02*
X032238Y018945D01*
X032409Y009169D02*
X032921Y009445D01*
X032921Y009169D02*
X032409Y009169D01*
X032528Y009917D02*
X032921Y009917D01*
X032921Y009445D02*
X032409Y009445D01*
X032921Y008697D02*
X032921Y008815D01*
X032120Y019339D02*
X032553Y019142D01*
X032553Y019142D02*
X032553Y019496D01*
X032843Y008618D02*
X032921Y008697D01*
X032488Y008618D02*
X032843Y008618D01*
X027909Y017299D02*
X027988Y017220D01*
X016565Y016591D02*
X016644Y016512D01*
X008159Y011065D02*
X008159Y010947D01*
X016644Y016433D02*
X016565Y016354D01*
X016644Y016512D02*
X016644Y016433D01*
X008159Y011065D02*
X008238Y011144D01*
X021409Y017220D02*
X021409Y017457D01*
X021409Y017220D02*
X021606Y017220D01*
X021921Y017299D02*
X021843Y017220D01*
X021921Y017417D02*
X021921Y017299D01*
X017037Y016591D02*
X016959Y016512D01*
X016959Y016079D02*
X017116Y016079D01*
X017746Y016433D02*
X017746Y016512D01*
X017667Y016591D02*
X017746Y016512D01*
X017037Y016591D02*
X017037Y016079D01*
X016368Y016079D02*
X016368Y016591D01*
X016368Y016591D02*
X016565Y016591D01*
X016486Y016354D02*
X016644Y016079D01*
X016565Y016354D02*
X016368Y016354D01*
X021606Y017417D02*
X021606Y017220D01*
X021488Y016394D02*
X021567Y016394D01*
X021409Y016315D02*
X021488Y016394D01*
X021409Y016118D02*
X021409Y016315D01*
X021567Y016394D02*
X021646Y016315D01*
X008593Y011144D02*
X008671Y011065D01*
X027988Y017220D02*
X028343Y017220D01*
X027909Y017299D02*
X027909Y017417D01*
X028421Y017417D02*
X028421Y017299D01*
X028343Y017220D02*
X028421Y017299D01*
X021843Y017496D02*
X021921Y017417D01*
X021409Y016787D02*
X021488Y016709D01*
X021685Y017496D02*
X021843Y017496D01*
X021606Y017417D02*
X021685Y017496D01*
X021921Y016709D02*
X021921Y016866D01*
X021646Y016315D02*
X021646Y016118D01*
X021921Y016118D02*
X021409Y016118D01*
X021409Y016787D02*
X021921Y016787D01*
X021646Y016236D02*
X021921Y016394D01*
X010823Y017943D02*
X010764Y017884D01*
X010823Y018061D02*
X010823Y017943D01*
X010498Y018120D02*
X010439Y018061D01*
X010764Y018120D02*
X010498Y018120D01*
X010823Y018061D02*
X010764Y018120D01*
X011909Y015549D02*
X011909Y015667D01*
X011909Y015549D02*
X011988Y015470D01*
X012421Y015549D02*
X012343Y015470D01*
X012421Y015667D02*
X012421Y015549D01*
X010439Y017470D02*
X010823Y017470D01*
X010823Y017677D02*
X010439Y017470D01*
X010498Y017884D02*
X010439Y017943D01*
X010764Y017884D02*
X010498Y017884D01*
X010439Y017677D02*
X010823Y017677D01*
X010439Y017943D02*
X010439Y018061D01*
X012067Y014368D02*
X012146Y014447D01*
X012067Y014368D02*
X011988Y014368D01*
X012421Y014919D02*
X012146Y015037D01*
X011909Y014880D02*
X012421Y014919D01*
X012421Y014447D02*
X012343Y014368D01*
X011909Y014447D02*
X011988Y014368D01*
X012343Y014644D02*
X012421Y014565D01*
X012421Y014565D02*
X012421Y014447D01*
X011909Y014447D02*
X011909Y014565D01*
X012146Y015667D02*
X012224Y015746D01*
X012146Y015667D02*
X012146Y015549D01*
X012343Y015746D02*
X012421Y015667D01*
X012224Y015746D02*
X012343Y015746D01*
X012067Y015746D02*
X012146Y015667D01*
X012146Y015037D02*
X012421Y015156D01*
X012421Y015156D02*
X011909Y015195D01*
X012067Y015746D02*
X011988Y015746D01*
X011909Y015667D02*
X011988Y015746D01*
X012224Y014644D02*
X012343Y014644D01*
X011909Y014565D02*
X011988Y014644D01*
X012146Y014565D02*
X012224Y014644D01*
X012146Y014565D02*
X012146Y014447D01*
X032396Y018315D02*
X032396Y018118D01*
X008671Y022695D02*
X008159Y022695D01*
X008159Y022419D02*
X008671Y022695D01*
X008396Y023167D02*
X008474Y023246D01*
X008593Y023246D02*
X008671Y023167D01*
X017659Y029799D02*
X017659Y029917D01*
X017896Y029799D02*
X017817Y029720D01*
X017974Y029720D02*
X018093Y029720D01*
X017738Y029720D02*
X017659Y029799D01*
X017817Y029720D02*
X017738Y029720D01*
X017299Y034591D02*
X017220Y034512D01*
X017299Y034591D02*
X017417Y034591D01*
X017417Y034591D02*
X017496Y034512D01*
X017496Y034433D02*
X017496Y034512D01*
X017496Y034079D02*
X017220Y034079D01*
X008671Y023167D02*
X008671Y023049D01*
X008474Y023246D02*
X008593Y023246D01*
X017496Y034433D02*
X017220Y034157D01*
X017220Y034157D02*
X017220Y034079D01*
X017896Y029799D02*
X017974Y029720D01*
X017659Y029287D02*
X018171Y029287D01*
X018171Y028697D02*
X018171Y028815D01*
X017659Y029287D02*
X017738Y029209D01*
X018171Y029209D02*
X018171Y029366D01*
X018093Y028618D02*
X018171Y028697D01*
X017659Y028815D02*
X017659Y028697D01*
X017659Y028815D02*
X017738Y028894D01*
X017738Y028618D02*
X018093Y028618D01*
X017659Y028697D02*
X017738Y028618D01*
X018171Y029917D02*
X018171Y029799D01*
X017817Y029996D02*
X017896Y029917D01*
X017896Y029917D02*
X017896Y029799D01*
X018171Y029799D02*
X018093Y029720D01*
X017738Y029996D02*
X017817Y029996D01*
X017896Y029917D02*
X017974Y029996D01*
X018093Y029996D02*
X018171Y029917D01*
X017659Y029917D02*
X017738Y029996D01*
X017974Y029996D02*
X018093Y029996D01*
X014343Y022144D02*
X014421Y022065D01*
X016394Y034157D02*
X016315Y034079D01*
X016315Y034591D02*
X016394Y034512D01*
X008396Y023167D02*
X008396Y023049D01*
X008671Y023049D02*
X008593Y022970D01*
X016315Y034591D02*
X016197Y034591D01*
X016118Y034157D02*
X016197Y034079D01*
X016197Y034079D02*
X016315Y034079D01*
X016197Y034591D02*
X016118Y034512D01*
X016118Y034512D02*
X016118Y034157D01*
X016445Y021183D02*
X016445Y021262D01*
X016366Y021341D02*
X016445Y021262D01*
X016248Y021341D02*
X016366Y021341D01*
X016248Y021341D02*
X016169Y021262D01*
X015894Y020907D02*
X015894Y021341D01*
X015618Y020907D02*
X015697Y020829D01*
X015894Y020907D02*
X015815Y020829D01*
X015618Y021341D02*
X015618Y020907D01*
X015697Y020829D02*
X015815Y020829D01*
X016866Y034591D02*
X016945Y034512D01*
X013909Y022537D02*
X014421Y022537D01*
X014421Y021947D02*
X014421Y022065D01*
X013909Y022537D02*
X013988Y022459D01*
X014421Y022459D02*
X014421Y022616D01*
X014343Y021868D02*
X014421Y021947D01*
X013909Y022065D02*
X013909Y021947D01*
X013909Y022065D02*
X013988Y022144D01*
X013988Y021868D02*
X014343Y021868D01*
X013909Y021947D02*
X013988Y021868D01*
X016748Y034591D02*
X016866Y034591D01*
X016945Y034079D02*
X016669Y034079D01*
X016945Y034433D02*
X016945Y034512D01*
X016748Y034591D02*
X016669Y034512D01*
X016945Y034433D02*
X016669Y034157D01*
X014303Y022892D02*
X014303Y023246D01*
X014028Y023167D02*
X014421Y023167D01*
X016669Y034157D02*
X016669Y034079D01*
X013870Y023089D02*
X014303Y022892D01*
X030970Y027791D02*
X030970Y027657D01*
X031049Y027854D02*
X030970Y027776D01*
X031010Y027972D02*
X030970Y027791D01*
X031010Y027972D02*
X031089Y028091D01*
X012148Y036947D02*
X012246Y036848D01*
X012246Y036848D02*
X012394Y036848D01*
X018986Y031341D02*
X018986Y030829D01*
X012148Y037390D02*
X012148Y036947D01*
X012787Y036848D02*
X012984Y037488D01*
X031167Y027854D02*
X031049Y027854D01*
X030695Y027657D02*
X030616Y027579D01*
X029907Y028091D02*
X030065Y028091D01*
X030616Y028091D02*
X030498Y028091D01*
X030616Y028091D02*
X030695Y028012D01*
X029907Y027579D02*
X030065Y027579D01*
X012837Y036996D02*
X013132Y036996D01*
X013526Y036848D02*
X013526Y037488D01*
X029986Y028091D02*
X029986Y027579D01*
X012984Y037488D02*
X013181Y036848D01*
X031246Y027776D02*
X031246Y027657D01*
X031167Y027854D02*
X031246Y027776D01*
X031049Y027579D02*
X030970Y027657D01*
X031167Y027579D02*
X031049Y027579D01*
X031246Y027657D02*
X031167Y027579D01*
X030419Y028012D02*
X030419Y027657D01*
X030498Y028091D02*
X030419Y028012D01*
X030498Y027579D02*
X030616Y027579D01*
X030419Y027657D02*
X030498Y027579D01*
X018907Y030829D02*
X019065Y030829D01*
X015996Y031183D02*
X015996Y031262D01*
X015917Y031341D02*
X015996Y031262D01*
X015917Y031104D02*
X015799Y031104D01*
X015996Y031183D02*
X015917Y031104D01*
X015248Y030829D02*
X015366Y030829D01*
X015248Y031341D02*
X015169Y031262D01*
X015366Y031341D02*
X015248Y031341D01*
X015169Y030907D02*
X015248Y030829D01*
X015169Y031262D02*
X015169Y030907D01*
X015799Y030829D02*
X015720Y030907D01*
X015917Y030829D02*
X015799Y030829D01*
X018093Y028894D02*
X018171Y028815D01*
X012492Y036947D02*
X012394Y036848D01*
X015799Y031341D02*
X015917Y031341D01*
X015996Y031026D02*
X015996Y030907D01*
X015917Y031104D02*
X015996Y031026D01*
X015799Y031341D02*
X015720Y031262D01*
X015996Y030907D02*
X015917Y030829D01*
X015366Y031341D02*
X015445Y031262D01*
X019419Y030907D02*
X019498Y030829D01*
X019419Y031262D02*
X019419Y030907D01*
X020167Y031222D02*
X020167Y030829D01*
X019498Y030829D02*
X019616Y030829D01*
X019498Y031341D02*
X019419Y031262D01*
X019695Y030907D02*
X019616Y030829D01*
X018907Y031341D02*
X019065Y031341D01*
X019616Y031341D02*
X019498Y031341D01*
X019616Y031341D02*
X019695Y031262D01*
X014657Y030829D02*
X014815Y030829D01*
X014736Y031341D02*
X014736Y030829D01*
X015445Y030907D02*
X015366Y030829D01*
X014657Y031341D02*
X014815Y031341D01*
X012394Y037488D02*
X012492Y037390D01*
X020089Y031380D02*
X019892Y030947D01*
X019892Y030947D02*
X020246Y030947D01*
X012394Y037488D02*
X012246Y037488D01*
X012246Y037488D02*
X012148Y037390D01*
X016445Y020829D02*
X016169Y020829D01*
X024171Y020417D02*
X024171Y020299D01*
X023974Y020496D02*
X024093Y020496D01*
X023896Y020417D02*
X023896Y020299D01*
X024171Y020299D02*
X024093Y020220D01*
X023896Y020417D02*
X023974Y020496D01*
X024171Y019709D02*
X024171Y019866D01*
X023659Y019787D02*
X024171Y019787D01*
X024093Y020496D02*
X024171Y020417D01*
X023659Y019787D02*
X023738Y019709D01*
X025618Y018157D02*
X025697Y018079D01*
X025894Y018157D02*
X025815Y018079D01*
X025618Y018591D02*
X025618Y018157D01*
X025697Y018079D02*
X025815Y018079D01*
X032409Y008815D02*
X032488Y008894D01*
X023959Y020220D02*
X024093Y020220D01*
X023896Y020299D02*
X023974Y020220D01*
X023778Y020260D02*
X023959Y020220D01*
X023778Y020260D02*
X023659Y020339D01*
X024171Y019197D02*
X024171Y019315D01*
X020445Y021026D02*
X020445Y020907D01*
X020366Y021104D02*
X020445Y021026D01*
X020248Y021341D02*
X020169Y021262D01*
X020445Y020907D02*
X020366Y020829D01*
X020366Y021104D02*
X020248Y021104D01*
X020366Y021341D02*
X020445Y021262D01*
X019894Y020907D02*
X019894Y021341D01*
X020445Y021183D02*
X020366Y021104D01*
X020445Y021183D02*
X020445Y021262D01*
X023659Y019197D02*
X023738Y019118D01*
X023659Y019315D02*
X023659Y019197D01*
X024093Y019118D02*
X024171Y019197D01*
X023738Y019118D02*
X024093Y019118D01*
X023659Y019315D02*
X023738Y019394D01*
X020366Y020829D02*
X020248Y020829D01*
X020248Y021341D02*
X020366Y021341D01*
X024093Y019394D02*
X024171Y019315D01*
X020248Y020829D02*
X020169Y020907D01*
X025894Y018157D02*
X025894Y018591D01*
X031366Y018394D02*
X031445Y018315D01*
X031445Y018157D02*
X031366Y018079D01*
X031366Y018394D02*
X031169Y018394D01*
X031445Y018315D02*
X031445Y018157D01*
X030894Y018157D02*
X030894Y018591D01*
X030618Y018157D02*
X030697Y018079D01*
X030894Y018157D02*
X030815Y018079D01*
X030618Y018591D02*
X030618Y018157D01*
X030697Y018079D02*
X030815Y018079D01*
X032317Y018394D02*
X032396Y018315D01*
X032238Y018394D02*
X032317Y018394D01*
X032671Y018118D02*
X032159Y018118D01*
X032159Y018118D02*
X032159Y018315D01*
X032159Y018315D02*
X032238Y018394D01*
X031169Y018591D02*
X031406Y018591D01*
X031169Y018591D02*
X031169Y018394D01*
X031248Y018079D02*
X031169Y018157D01*
X031366Y018079D02*
X031248Y018079D01*
X032409Y008697D02*
X032488Y008618D01*
X028909Y019197D02*
X028988Y019118D01*
X028909Y019315D02*
X028909Y019197D01*
X029343Y019118D02*
X029421Y019197D01*
X028988Y019118D02*
X029343Y019118D01*
X028909Y019315D02*
X028988Y019394D01*
X026091Y018197D02*
X026445Y018197D01*
X026366Y018472D02*
X026366Y018079D01*
X029343Y019394D02*
X029421Y019315D01*
X026287Y018630D02*
X026091Y018197D01*
X029028Y020220D02*
X028909Y020220D01*
X029028Y020496D02*
X029421Y020339D01*
X032409Y008815D02*
X032409Y008697D01*
X028909Y020220D02*
X028909Y020496D01*
X028909Y020496D02*
X029028Y020496D01*
X028909Y019787D02*
X029421Y019787D01*
X029421Y019197D02*
X029421Y019315D01*
X028909Y019787D02*
X028988Y019709D01*
X029421Y019709D02*
X029421Y019866D01*
X017238Y019394D02*
X017317Y019394D01*
X017159Y019315D02*
X017238Y019394D01*
X017159Y019118D02*
X017159Y019315D01*
X017317Y019394D02*
X017396Y019315D01*
X018921Y023049D02*
X018843Y022970D01*
X018409Y022970D02*
X018606Y022970D01*
X018606Y023167D02*
X018606Y022970D01*
X018921Y023167D02*
X018921Y023049D01*
X018409Y022970D02*
X018409Y023207D01*
X017593Y020496D02*
X017671Y020417D01*
X017159Y019787D02*
X017238Y019709D01*
X017474Y020496D02*
X017593Y020496D01*
X017396Y020417D02*
X017474Y020496D01*
X017671Y019709D02*
X017671Y019866D01*
X017396Y019315D02*
X017396Y019118D01*
X017671Y019118D02*
X017159Y019118D01*
X017159Y019787D02*
X017671Y019787D01*
X017396Y019236D02*
X017671Y019394D01*
X018685Y023246D02*
X018843Y023246D01*
X018843Y022144D02*
X018921Y022065D01*
X008278Y023010D02*
X008459Y022970D01*
X018409Y022065D02*
X018409Y021947D01*
X018409Y022065D02*
X018488Y022144D01*
X008278Y023010D02*
X008159Y023089D01*
X016169Y020907D02*
X016169Y020829D01*
X016445Y021183D02*
X016169Y020907D01*
X008459Y022970D02*
X008593Y022970D01*
X008396Y023049D02*
X008474Y022970D01*
X018409Y022537D02*
X018488Y022459D01*
X018921Y022459D02*
X018921Y022616D01*
X018606Y023167D02*
X018685Y023246D01*
X018843Y023246D02*
X018921Y023167D01*
X018409Y022537D02*
X018921Y022537D01*
X018488Y021868D02*
X018843Y021868D01*
X018409Y021947D02*
X018488Y021868D01*
X018921Y021947D02*
X018921Y022065D01*
X018843Y021868D02*
X018921Y021947D01*
X017159Y020417D02*
X017238Y020496D01*
X021409Y020417D02*
X021488Y020496D01*
X021843Y019669D02*
X021921Y019669D01*
X021409Y020299D02*
X021488Y020220D01*
X021567Y020496D02*
X021488Y020496D01*
X021567Y019945D02*
X021843Y019669D01*
X021409Y019748D02*
X021488Y019669D01*
X021567Y019945D02*
X021488Y019945D01*
X021921Y019945D02*
X021921Y019669D01*
X021409Y019748D02*
X021409Y019866D01*
X019618Y020907D02*
X019697Y020829D01*
X019894Y020907D02*
X019815Y020829D01*
X019618Y021341D02*
X019618Y020907D01*
X019697Y020829D02*
X019815Y020829D01*
X032843Y008894D02*
X032921Y008815D01*
X021921Y020496D02*
X021921Y020220D01*
X021409Y020299D02*
X021409Y020417D01*
X021843Y020220D02*
X021921Y020220D01*
X021567Y020496D02*
X021843Y020220D01*
X021409Y019866D02*
X021488Y019945D01*
X017474Y020220D02*
X017593Y020220D01*
X017396Y020299D02*
X017474Y020220D01*
X017317Y020220D02*
X017238Y020220D01*
X017396Y020299D02*
X017317Y020220D01*
X017396Y020417D02*
X017396Y020299D01*
X017317Y020496D02*
X017396Y020417D01*
X017238Y020496D02*
X017317Y020496D01*
X017671Y020299D02*
X017593Y020220D01*
X017671Y020417D02*
X017671Y020299D01*
X021921Y019118D02*
X021409Y019118D01*
X021409Y019118D02*
X021409Y019315D01*
X021646Y019236D02*
X021921Y019394D01*
X021646Y019315D02*
X021646Y019118D01*
X021567Y019394D02*
X021646Y019315D01*
X017159Y020299D02*
X017159Y020417D01*
X017238Y020220D02*
X017159Y020299D01*
X021488Y019394D02*
X021567Y019394D01*
X021409Y019315D02*
X021488Y019394D01*
X023868Y036091D02*
X024065Y036091D01*
X024144Y035933D02*
X024065Y035854D01*
X024144Y036012D02*
X024144Y035933D01*
X023868Y035579D02*
X023868Y036091D01*
X024616Y036091D02*
X024695Y036012D01*
X023986Y035854D02*
X024144Y035579D01*
X024065Y035854D02*
X023868Y035854D01*
X028500Y037265D02*
X028500Y037315D01*
X022817Y032195D02*
X022738Y032195D01*
X028057Y036004D02*
X028116Y035945D01*
X028500Y037315D02*
X028550Y037315D01*
X024065Y036091D02*
X024144Y036012D01*
X028550Y037265D02*
X028500Y037265D01*
X028550Y037315D02*
X028550Y037265D01*
X022659Y031998D02*
X022738Y031919D01*
X008159Y034100D02*
X008238Y034022D01*
X008159Y034100D02*
X008159Y034219D01*
X008238Y034022D02*
X008593Y034022D01*
X008593Y034297D02*
X008671Y034219D01*
X024498Y036091D02*
X024616Y036091D01*
X024498Y036091D02*
X024419Y036012D01*
X024695Y035933D02*
X024695Y036012D01*
X022817Y032195D02*
X023093Y031919D01*
X023171Y032195D02*
X023171Y031919D01*
X022659Y031998D02*
X022659Y032116D01*
X023093Y031919D02*
X023171Y031919D01*
X008593Y034022D02*
X008671Y034100D01*
X008671Y034219D02*
X008671Y034100D01*
X023093Y032746D02*
X023171Y032667D01*
X028441Y035945D02*
X028441Y036063D01*
X029550Y037315D02*
X029550Y037265D01*
X029500Y037315D02*
X029550Y037315D01*
X029500Y037265D02*
X029500Y037315D01*
X029550Y037265D02*
X029500Y037265D01*
X028057Y035089D02*
X028057Y035236D01*
X028057Y035236D02*
X028116Y035295D01*
X028382Y035295D02*
X028441Y035236D01*
X029057Y035974D02*
X029116Y035915D01*
X029382Y036122D02*
X029441Y036063D01*
X029116Y036122D02*
X029382Y036122D01*
X029057Y035974D02*
X029057Y036063D01*
X029441Y036063D02*
X029441Y035974D01*
X029382Y035915D02*
X029441Y035974D01*
X029116Y035915D02*
X029382Y035915D01*
X028441Y035236D02*
X028441Y035089D01*
X023171Y031447D02*
X023171Y031565D01*
X023093Y031368D02*
X023171Y031447D01*
X022738Y031368D02*
X023093Y031368D01*
X022659Y032116D02*
X022738Y032195D01*
X028057Y036004D02*
X028441Y036004D01*
X028057Y035591D02*
X028116Y035531D01*
X028441Y035531D02*
X028441Y035650D01*
X028057Y035591D02*
X028441Y035591D01*
X028116Y035295D02*
X028382Y035295D01*
X028441Y035089D02*
X028057Y035089D01*
X023093Y031644D02*
X023171Y031565D01*
X022659Y031447D02*
X022738Y031368D01*
X022659Y031565D02*
X022659Y031447D01*
X022659Y031565D02*
X022738Y031644D01*
X026394Y035933D02*
X026315Y035854D01*
X026394Y036012D02*
X026394Y035933D01*
X026315Y036091D02*
X026394Y036012D01*
X026118Y036091D02*
X026315Y036091D01*
X026236Y035854D02*
X026394Y035579D01*
X026315Y035854D02*
X026118Y035854D01*
X026118Y035579D02*
X026118Y036091D01*
X025167Y035854D02*
X025049Y035854D01*
X025049Y035579D02*
X024970Y035657D01*
X025167Y035579D02*
X025049Y035579D01*
X025049Y035854D02*
X024970Y035776D01*
X025010Y035972D02*
X024970Y035791D01*
X025010Y035972D02*
X025089Y036091D01*
X024970Y035791D02*
X024970Y035657D01*
X026866Y036091D02*
X026945Y036012D01*
X026669Y035657D02*
X026669Y035579D01*
X026945Y035933D02*
X026669Y035657D01*
X026945Y035579D02*
X026669Y035579D01*
X027496Y035657D02*
X027417Y035579D01*
X027417Y035894D02*
X027496Y035815D01*
X027496Y035815D02*
X027496Y035657D01*
X027417Y035894D02*
X027220Y035894D01*
X027299Y035579D02*
X027220Y035657D01*
X026748Y036091D02*
X026669Y036012D01*
X026945Y035933D02*
X026945Y036012D01*
X027417Y035579D02*
X027299Y035579D01*
X026748Y036091D02*
X026866Y036091D01*
X027220Y036091D02*
X027220Y035894D01*
X027220Y036091D02*
X027457Y036091D01*
X025246Y035776D02*
X025246Y035657D01*
X008159Y032919D02*
X008671Y033195D01*
X008671Y033195D02*
X008159Y033195D01*
X008159Y033589D02*
X008671Y033589D01*
X008671Y032919D02*
X008159Y032919D01*
X025167Y035854D02*
X025246Y035776D01*
X025246Y035657D02*
X025167Y035579D01*
X008671Y032447D02*
X008671Y032565D01*
X024419Y035657D02*
X024419Y035579D01*
X024695Y035933D02*
X024419Y035657D01*
X024695Y035579D02*
X024419Y035579D01*
X008238Y034297D02*
X008593Y034297D01*
X008671Y033510D02*
X008671Y033667D01*
X008159Y033589D02*
X008238Y033510D01*
X008159Y034219D02*
X008238Y034297D01*
X008593Y032368D02*
X008671Y032447D01*
X022896Y032667D02*
X022896Y032549D01*
X023171Y032549D02*
X023093Y032470D01*
X023171Y032667D02*
X023171Y032549D01*
X022896Y032549D02*
X022974Y032470D01*
X022778Y032510D02*
X022959Y032470D01*
X022778Y032510D02*
X022659Y032589D01*
X022959Y032470D02*
X023093Y032470D01*
X008159Y032565D02*
X008159Y032447D01*
X008159Y032447D02*
X008238Y032368D01*
X008238Y032368D02*
X008593Y032368D01*
X008159Y032565D02*
X008238Y032644D01*
X022974Y032746D02*
X023093Y032746D01*
X022896Y032667D02*
X022974Y032746D01*
X008593Y032644D02*
X008671Y032565D01*
X031368Y032262D02*
X031368Y031907D01*
X031447Y032341D02*
X031368Y032262D01*
X031447Y031829D02*
X031565Y031829D01*
X031368Y031907D02*
X031447Y031829D01*
X031565Y032341D02*
X031447Y032341D01*
X028339Y032380D02*
X028142Y031947D01*
X028142Y031947D02*
X028496Y031947D01*
X031565Y032341D02*
X031644Y032262D01*
X031644Y031907D02*
X031565Y031829D01*
X022738Y025868D02*
X023093Y025868D01*
X032195Y032183D02*
X032195Y032262D01*
X032116Y032341D02*
X032195Y032262D01*
X031998Y032341D02*
X032116Y032341D01*
X031998Y032341D02*
X031919Y032262D01*
X022659Y026498D02*
X022738Y026419D01*
X023171Y025947D02*
X023171Y026065D01*
X023093Y025868D02*
X023171Y025947D01*
X022817Y026695D02*
X022738Y026695D01*
X022659Y026616D02*
X022738Y026695D01*
X027315Y032341D02*
X027197Y032341D01*
X027315Y032341D02*
X027394Y032262D01*
X027118Y032262D02*
X027118Y031907D01*
X027197Y032341D02*
X027118Y032262D01*
X027394Y031907D02*
X027315Y031829D01*
X022659Y026065D02*
X022659Y025947D01*
X022659Y025947D02*
X022738Y025868D01*
X023093Y026144D02*
X023171Y026065D01*
X022659Y026065D02*
X022738Y026144D01*
X027118Y031907D02*
X027197Y031829D01*
X027945Y032183D02*
X027669Y031907D01*
X027945Y031829D02*
X027669Y031829D01*
X028417Y032222D02*
X028417Y031829D01*
X027669Y031907D02*
X027669Y031829D01*
X027748Y032341D02*
X027866Y032341D01*
X027866Y032341D02*
X027945Y032262D01*
X027197Y031829D02*
X027315Y031829D01*
X027748Y032341D02*
X027669Y032262D01*
X027945Y032183D02*
X027945Y032262D01*
X022659Y026498D02*
X022659Y026616D01*
X029382Y035295D02*
X029441Y035236D01*
X022659Y026970D02*
X022659Y027246D01*
X029057Y035236D02*
X029116Y035295D01*
X032549Y031829D02*
X032470Y031907D01*
X032470Y032341D02*
X032707Y032341D01*
X032667Y031829D02*
X032549Y031829D01*
X022778Y026970D02*
X022659Y026970D01*
X029057Y035089D02*
X029057Y035236D01*
X029057Y035591D02*
X029441Y035591D01*
X029441Y035531D02*
X029441Y035650D01*
X029057Y035591D02*
X029116Y035531D01*
X029116Y035295D02*
X029382Y035295D01*
X029441Y035236D02*
X029441Y035089D01*
X029057Y036063D02*
X029116Y036122D01*
X029441Y035089D02*
X029057Y035089D01*
X032746Y032065D02*
X032746Y031907D01*
X032667Y032144D02*
X032746Y032065D01*
X032470Y032341D02*
X032470Y032144D01*
X032667Y032144D02*
X032470Y032144D01*
X032195Y031829D02*
X031919Y031829D01*
X031919Y031907D02*
X031919Y031829D01*
X032195Y032183D02*
X031919Y031907D01*
X022817Y026695D02*
X023093Y026419D01*
X023171Y026695D02*
X023171Y026419D01*
X022778Y027246D02*
X023171Y027089D01*
X032746Y031907D02*
X032667Y031829D01*
X022659Y027246D02*
X022778Y027246D01*
X023093Y026419D02*
X023171Y026419D01*
D50*
X021449Y033291D02*
X021449Y033685D01*
X021646Y033488D02*
X021252Y033488D01*
X021449Y027823D02*
X021449Y028217D01*
X021646Y028020D02*
X021252Y028020D01*
X029000Y036815D02*
X029500Y036815D01*
X028000Y036815D02*
X028500Y036815D01*
X017988Y033936D02*
X017988Y033561D01*
X017988Y035096D02*
X017988Y033936D01*
X019012Y033936D02*
X019012Y033561D01*
X017988Y033936D02*
X019012Y033936D01*
X019012Y035096D02*
X019012Y033936D01*
X026748Y019565D02*
X026748Y021376D01*
X025252Y019565D02*
X025252Y021376D01*
X026748Y019565D02*
X025252Y019565D01*
X025252Y021376D02*
X026748Y021376D01*
X030252Y019565D02*
X030252Y021376D01*
X031748Y019565D02*
X030252Y019565D01*
X030252Y021376D02*
X031748Y021376D01*
X031748Y019565D02*
X031748Y021376D01*
X018864Y034919D02*
X018136Y034919D01*
X018864Y035293D02*
X018864Y034919D01*
X018136Y035293D02*
X018136Y034919D01*
X018864Y033738D02*
X018864Y033364D01*
X018136Y033738D02*
X018864Y033738D01*
X018136Y033364D02*
X018136Y033738D01*
X018864Y033364D02*
X018136Y033364D01*
X018864Y035293D02*
X018136Y035293D01*
X019012Y033561D02*
X017988Y033561D01*
X017988Y035096D02*
X019012Y035096D01*
X020998Y022315D02*
X020998Y024126D01*
X019502Y022315D02*
X019502Y024126D01*
X020998Y022315D02*
X019502Y022315D01*
X019502Y024126D02*
X020998Y024126D01*
X032435Y013500D02*
X032435Y013000D01*
X021378Y011240D02*
X021378Y013760D01*
X021378Y013760D02*
X021260Y013878D01*
X021260Y011122D02*
X021378Y011240D01*
X018622Y013760D02*
X018622Y011240D01*
X018622Y011240D02*
X018740Y011122D01*
X021260Y013878D02*
X018740Y013878D01*
X018740Y013878D02*
X018622Y013760D01*
X018740Y011122D02*
X021260Y011122D01*
X013988Y033936D02*
X015012Y033936D01*
X013988Y035096D02*
X015012Y035096D01*
X015012Y035096D02*
X015012Y033936D01*
X014864Y033738D02*
X014864Y033364D01*
X014136Y033738D02*
X014864Y033738D01*
X013988Y033936D02*
X013988Y033561D01*
X013988Y035096D02*
X013988Y033936D01*
X015012Y033936D02*
X015012Y033561D01*
X014136Y033364D02*
X014136Y033738D01*
X014864Y033364D02*
X014136Y033364D01*
X014864Y035293D02*
X014136Y035293D01*
X015012Y033561D02*
X013988Y033561D01*
X014864Y034919D02*
X014136Y034919D01*
X014864Y035293D02*
X014864Y034919D01*
X014136Y035293D02*
X014136Y034919D01*
X009250Y016000D02*
X010250Y016000D01*
X010250Y015500D02*
X009250Y015500D01*
X016748Y022315D02*
X016748Y024126D01*
X009250Y015000D02*
X009250Y014500D01*
X010000Y015000D02*
X010000Y014500D01*
X010250Y015000D02*
X010250Y014500D01*
X015252Y022315D02*
X015252Y024126D01*
X010000Y016000D02*
X010000Y015500D01*
X010250Y016000D02*
X010250Y015500D01*
X009250Y017000D02*
X010250Y017000D01*
X016748Y022315D02*
X015252Y022315D01*
X015252Y024126D02*
X016748Y024126D01*
X009250Y016000D02*
X009250Y015500D01*
X010250Y014500D02*
X009250Y014500D01*
X010000Y018000D02*
X010000Y017500D01*
X010250Y018000D02*
X010250Y017500D01*
X009250Y015000D02*
X010250Y015000D01*
X009250Y018000D02*
X010250Y018000D01*
X010250Y017500D02*
X009250Y017500D01*
X009250Y018000D02*
X009250Y017500D01*
X024988Y031436D02*
X024988Y031061D01*
X024988Y031436D02*
X026012Y031436D01*
X025864Y032793D02*
X025864Y032419D01*
X025864Y032419D02*
X025136Y032419D01*
X014500Y005565D02*
X014000Y005565D01*
X024988Y032596D02*
X024988Y031436D01*
X025136Y031238D02*
X025864Y031238D01*
X025864Y031238D02*
X025864Y030864D01*
X030114Y032419D02*
X029386Y032419D01*
X015750Y005565D02*
X015250Y005565D01*
X026012Y031436D02*
X026012Y031061D01*
X026012Y032596D02*
X026012Y031436D01*
X025136Y030864D02*
X025136Y031238D01*
X030262Y031436D02*
X030262Y031061D01*
X030262Y032596D02*
X030262Y031436D01*
X030114Y031238D02*
X030114Y030864D01*
X029238Y032596D02*
X029238Y031436D01*
X008815Y013000D02*
X008815Y013500D01*
X029238Y031436D02*
X030262Y031436D01*
X029238Y031436D02*
X029238Y031061D01*
X029386Y031238D02*
X030114Y031238D01*
X025864Y032793D02*
X025136Y032793D01*
X025864Y030864D02*
X025136Y030864D01*
X025136Y032793D02*
X025136Y032419D01*
X026012Y031061D02*
X024988Y031061D01*
X029386Y030864D02*
X029386Y031238D01*
X017000Y005565D02*
X016500Y005565D01*
X024988Y032596D02*
X026012Y032596D01*
X030114Y032793D02*
X030114Y032419D01*
X007801Y018557D02*
X007801Y013943D01*
X007801Y018400D02*
X007959Y018557D01*
X007801Y018281D02*
X008077Y018557D01*
X011699Y018557D02*
X007801Y018557D01*
X007801Y013943D02*
X011699Y013943D01*
X011699Y013943D02*
X011699Y018557D01*
X010537Y018533D02*
X010537Y018415D01*
X010000Y017000D02*
X010000Y016500D01*
X009250Y017000D02*
X009250Y016500D01*
X010250Y016500D02*
X009250Y016500D01*
X010250Y017000D02*
X010250Y016500D01*
X008963Y018415D02*
X008963Y018533D01*
X010537Y018415D02*
X008963Y018415D01*
X010537Y018494D02*
X008963Y018494D01*
X029386Y032793D02*
X029386Y032419D01*
X029238Y032596D02*
X030262Y032596D01*
X030114Y030864D02*
X029386Y030864D01*
X030262Y031061D02*
X029238Y031061D01*
X030114Y032793D02*
X029386Y032793D01*
D52*
X032868Y012896D03*
X008382Y013604D03*
X016396Y005132D03*
X013896Y005132D03*
X015146Y005132D03*
D53*
X033220Y023925D02*
X023378Y023925D01*
X023378Y029043D02*
X033220Y029043D01*
X023378Y029043D02*
X023378Y023925D01*
X033220Y023925D02*
X033220Y029043D01*
X022000Y025500D02*
X023378Y025500D01*
X022000Y027469D02*
X023378Y027469D01*
X023378Y034512D02*
X023378Y029394D01*
X033220Y029394D02*
X023378Y029394D01*
X033220Y029394D02*
X033220Y034512D01*
X023378Y034512D02*
X033220Y034512D01*
X022000Y030969D02*
X023378Y030969D01*
X022000Y032937D02*
X023378Y032937D01*
X029502Y025287D03*
X018752Y028537D03*
X019778Y022630D03*
X030528Y019880D03*
X025528Y019880D03*
X015528Y022630D03*
X014502Y028537D03*
X025002Y025287D03*
D54*
X020984Y011516D03*
M02*
