G70*
%OFA0B0*%
%FSLAX24Y24*%
%IPPOS*%
%LPD*%
%ADD12R,0.0315X0.0748*%
%ADD18R,0.0512X0.0512*%
%ADD19R,0.0512X0.0787*%
%ADD22R,0.0630X0.0630*%
%ADD26R,0.0787X0.0787*%
%ADD27R,0.0827X0.0315*%
%ADD31R,0.1024X0.0472*%
%ADD32R,0.1024X0.1378*%
%ADD36R,0.1181X0.1969*%
%ADD38R,0.2362X0.2362*%
%ADD39R,0.2362X0.3150*%
%ADD41R,0.3150X0.1969*%
%ADD43R,0.3937X0.3150*%
%ADD44R,0.3937X0.3937*%
%ADD46C,0.0039*%
%ADD49C,0.0110*%
%ADD51C,0.0157*%
%ADD52C,0.0197*%
%ADD53C,0.0236*%
%ADD55C,0.0394*%
%ADD56C,0.0630*%
%ADD58C,0.0787*%
%ADD60C,0.1969*%
%ADD61C,0.2362*%
%ADD62C,0.2756*%
%ADD63C,0.3150*%
D12*
X009144Y009522D03*
X032106Y010978D03*
X008356Y010978D03*
X032106Y009522D03*
X008356Y009522D03*
X032894Y009522D03*
X032894Y010978D03*
X009144Y010978D03*
D18*
X030620Y009500D03*
X031250Y009500D03*
X030620Y011000D03*
X031250Y011000D03*
X010370Y011000D03*
X011000Y012250D03*
X015250Y010000D03*
X011000Y011000D03*
X014620Y010000D03*
X010370Y012250D03*
D19*
X016250Y009000D03*
X014250Y009000D03*
X015250Y009000D03*
X013250Y009000D03*
X017250Y009000D03*
D22*
X023500Y013250D03*
X015250Y011000D03*
X016037Y011000D03*
X020500Y014750D03*
X020500Y013963D03*
X020963Y013000D03*
X019250Y013963D03*
X017750Y013000D03*
X017750Y011750D03*
X019250Y014750D03*
X021750Y013000D03*
X018537Y011750D03*
X023500Y014037D03*
X010213Y008750D03*
X011000Y008750D03*
X030463Y012500D03*
X021000Y011287D03*
X021000Y010500D03*
X026963Y009750D03*
X018537Y013000D03*
X027750Y009750D03*
X020750Y005250D03*
X031250Y012500D03*
X008250Y017750D03*
X026500Y006287D03*
X026500Y005500D03*
X020750Y006037D03*
D26*
X019750Y008750D03*
X029250Y009750D03*
X029250Y008750D03*
X022000Y030969D03*
X012000Y031750D03*
X029250Y010750D03*
X029250Y011750D03*
X022000Y032937D03*
X012000Y032750D03*
X012000Y033750D03*
X012000Y027750D03*
X012000Y010750D03*
X018750Y008750D03*
X012000Y028750D03*
X012000Y011750D03*
X022000Y025500D03*
X012000Y029750D03*
X012000Y008750D03*
X012000Y009750D03*
X022000Y027469D03*
X012000Y019750D03*
X012000Y022750D03*
X020750Y008750D03*
X021750Y008750D03*
X012000Y020750D03*
X025750Y008750D03*
X012000Y021750D03*
X026750Y008750D03*
X023750Y008750D03*
X024750Y008750D03*
D27*
X024951Y005500D03*
X022549Y005500D03*
X024951Y006500D03*
X022549Y006500D03*
X024951Y006000D03*
X024951Y007000D03*
X022549Y007000D03*
X022549Y006000D03*
D31*
X025990Y011500D03*
X025990Y012406D03*
X025990Y010594D03*
D32*
X023510Y011500D03*
D36*
X032250Y027433D03*
X014000Y030500D03*
X027750Y027433D03*
X025750Y027433D03*
X016000Y018250D03*
X014000Y018250D03*
X018500Y019750D03*
X018500Y030500D03*
X016000Y030500D03*
X020500Y030500D03*
X027750Y016683D03*
X025750Y016683D03*
X030250Y027433D03*
X030250Y015183D03*
X020500Y019750D03*
X032250Y015183D03*
D38*
X014000Y018250D03*
X025750Y027433D03*
X018500Y030500D03*
X014000Y030500D03*
X018500Y019750D03*
X030250Y027433D03*
X030250Y015183D03*
X025750Y016683D03*
D39*
X025500Y036250D03*
X023000Y020750D03*
D41*
X015250Y026250D03*
X031000Y023250D03*
X018750Y028250D03*
X027000Y025250D03*
D43*
X026750Y036250D03*
D44*
X015000Y035817D03*
X019500Y035817D03*
X015000Y023567D03*
X019500Y025067D03*
X026750Y022000D03*
X031250Y032750D03*
X031250Y020500D03*
X026750Y032750D03*
D46*
X028250Y030250D02*
X029500Y029000D01*
X026500Y030250D02*
X028250Y030250D01*
X018500Y032750D02*
X018250Y033000D01*
X018500Y032000D02*
X018500Y032750D01*
X025000Y030250D02*
X024000Y030250D01*
X025000Y030250D02*
X025000Y029000D01*
X026500Y030250D02*
X025000Y030250D01*
X012000Y014250D02*
X012000Y019750D01*
X012500Y013750D02*
X012000Y014250D01*
X014750Y013750D02*
X012500Y013750D01*
X016000Y010500D02*
X016000Y010963D01*
X018000Y007500D02*
X017750Y007750D01*
X014750Y013750D02*
X016000Y013750D01*
X016000Y010963D02*
X016037Y011000D01*
X019750Y007500D02*
X018000Y007500D01*
X017750Y007750D02*
X013500Y007750D01*
X018000Y008000D02*
X017750Y007750D01*
X013250Y008000D02*
X013250Y009000D01*
X013500Y007750D02*
X013250Y008000D01*
X018000Y009250D02*
X018000Y008000D01*
X016750Y010287D02*
X016037Y011000D01*
X016750Y010000D02*
X016750Y010287D01*
X018250Y009500D02*
X018000Y009250D01*
X019500Y009500D02*
X018250Y009500D01*
X012500Y033750D02*
X012000Y033750D01*
X024000Y032750D02*
X023000Y033750D01*
X024000Y030250D02*
X024000Y032750D01*
X023750Y025500D02*
X024000Y025750D01*
X022000Y025500D02*
X023750Y025500D01*
X024000Y025750D02*
X024000Y030250D01*
X014000Y033000D02*
X014000Y032000D01*
X013250Y033000D02*
X012500Y033750D01*
X014000Y033000D02*
X013250Y033000D01*
X018250Y033000D02*
X014000Y033000D01*
D49*
X016750Y008250D02*
X015500Y008250D01*
X022250Y009500D02*
X021000Y009500D01*
X022500Y009750D02*
X021250Y009750D01*
X015500Y008250D02*
X015250Y008500D01*
X015250Y008500D02*
X015250Y009000D01*
X023250Y007500D02*
X023000Y007750D01*
X023250Y005750D02*
X023250Y007500D01*
X022549Y009201D02*
X022250Y009500D01*
X022549Y007000D02*
X022549Y009201D01*
X023000Y005500D02*
X023250Y005750D01*
X022549Y005500D02*
X023000Y005500D01*
X009144Y011394D02*
X009250Y011500D01*
X009144Y010978D02*
X009144Y011394D01*
X023000Y007750D02*
X023000Y009250D01*
X023000Y009250D02*
X022500Y009750D01*
X009750Y013500D02*
X009750Y012750D01*
X010000Y014500D02*
X010000Y013000D01*
X030620Y009500D02*
X030620Y008870D01*
X032106Y011644D02*
X032000Y011750D01*
X030620Y008870D02*
X030000Y008250D01*
X017250Y009000D02*
X017250Y010750D01*
X017250Y010750D02*
X016750Y011250D01*
X031250Y011750D02*
X032000Y011750D01*
X032106Y010978D02*
X032106Y011644D01*
X010000Y022750D02*
X009750Y022500D01*
X012000Y022750D02*
X010000Y022750D01*
X010000Y021500D02*
X010000Y014500D01*
X009750Y022500D02*
X009750Y013500D01*
X010250Y021750D02*
X010000Y021500D01*
X012000Y021750D02*
X010250Y021750D01*
X013750Y010250D02*
X012500Y010250D01*
X012500Y010250D02*
X012000Y010750D01*
X029250Y008000D02*
X029750Y008000D01*
X030000Y009750D02*
X030000Y011250D01*
X030500Y011750D02*
X031250Y011750D01*
X031250Y012500D02*
X031250Y011750D01*
X030000Y011250D02*
X030500Y011750D01*
X030250Y009500D02*
X030000Y009750D01*
X029750Y008000D02*
X030000Y008250D01*
X030620Y009500D02*
X030250Y009500D01*
D51*
X027800Y007481D02*
X027806Y007481D01*
X027897Y007586D02*
X027906Y007586D01*
X032815Y007481D02*
X032981Y007481D01*
X032713Y007586D02*
X033086Y007586D01*
X028906Y007691D02*
X029106Y007691D01*
X028906Y007586D02*
X029261Y007586D01*
X028906Y008006D02*
X028943Y008006D01*
X028906Y007481D02*
X029161Y007481D01*
X028906Y007796D02*
X029010Y007796D01*
X032461Y009056D02*
X033500Y009056D01*
X032461Y008951D02*
X033500Y008951D01*
X032461Y009265D02*
X033500Y009265D01*
X032461Y009160D02*
X033500Y009160D01*
X031703Y009265D02*
X031752Y009265D01*
X032511Y007796D02*
X033296Y007796D01*
X032612Y007691D02*
X033191Y007691D01*
X031703Y009160D02*
X031752Y009160D01*
X031703Y009056D02*
X031752Y009056D01*
X023514Y005907D02*
X023594Y005907D01*
X023514Y006012D02*
X023594Y006012D01*
X025594Y007586D02*
X025603Y007586D01*
X024187Y005592D02*
X030163Y005592D01*
X023514Y006117D02*
X023594Y006117D01*
X023514Y006327D02*
X023706Y006327D01*
X024110Y006851D02*
X024341Y006851D01*
X023514Y006431D02*
X023589Y006431D01*
X023514Y006222D02*
X023636Y006222D01*
X029360Y007691D02*
X029374Y007691D01*
X029562Y006746D02*
X029576Y006746D01*
X028906Y008111D02*
X028943Y008111D01*
X028906Y007901D02*
X028943Y007901D01*
X029464Y006641D02*
X029472Y006641D01*
X027806Y007481D02*
X028094Y007481D01*
X025694Y007481D02*
X025700Y007481D01*
X028028Y007691D02*
X028094Y007691D01*
X028014Y007691D02*
X028028Y007691D01*
X031752Y008951D02*
X032461Y008951D01*
X013844Y009838D02*
X013844Y009943D01*
X013844Y009838D02*
X013844Y009943D01*
X014088Y013406D02*
X014068Y013406D01*
X014963Y010453D02*
X014963Y010488D01*
X014088Y013406D02*
X014412Y013406D01*
X012591Y010533D02*
X012609Y010514D01*
X012591Y010533D02*
X012591Y011159D01*
X014432Y013406D02*
X014412Y013406D01*
X013844Y009818D02*
X013844Y009838D01*
X011135Y009577D02*
X011323Y009389D01*
X010884Y009823D02*
X010889Y009823D01*
X010932Y013406D02*
X010918Y013406D01*
X011135Y009577D02*
X011147Y009577D01*
X010884Y009823D02*
X010881Y009827D01*
X014412Y013406D02*
X014432Y013406D01*
X014068Y013406D02*
X011182Y013406D01*
X014412Y013406D02*
X014432Y013406D01*
X014412Y013406D02*
X014088Y013406D01*
X031651Y008846D02*
X031656Y008846D01*
X031651Y008951D02*
X031656Y008951D01*
X031656Y008846D02*
X033500Y008846D01*
X031656Y008951D02*
X031752Y008951D01*
X033396Y007901D02*
X033401Y007901D01*
X031464Y008636D02*
X031478Y008636D01*
X031562Y008741D02*
X031576Y008741D01*
X031478Y008636D02*
X033500Y008636D01*
X031576Y008741D02*
X033500Y008741D01*
X008926Y011549D02*
X008943Y011549D01*
X014088Y013406D02*
X014412Y013406D01*
X008943Y011566D02*
X008943Y011575D01*
X008926Y011549D02*
X008943Y011566D01*
X012591Y010514D02*
X012591Y010533D01*
X030620Y011000D02*
X030620Y011370D01*
X009498Y010691D02*
X009498Y010407D01*
X012591Y011341D02*
X012591Y012341D01*
X030620Y011370D02*
X030750Y011500D01*
X025372Y007796D02*
X025386Y007796D01*
X025470Y007691D02*
X025484Y007691D01*
X029472Y006641D02*
X030163Y006641D01*
X027906Y007586D02*
X028094Y007586D01*
X025344Y008006D02*
X025349Y008006D01*
X023589Y006431D02*
X023601Y006431D01*
X023511Y005697D02*
X023715Y005697D01*
X025344Y008111D02*
X025349Y008111D01*
X025344Y007901D02*
X025349Y007901D01*
X031346Y008531D02*
X033500Y008531D01*
X029785Y006956D02*
X030163Y006956D01*
X031034Y008216D02*
X033500Y008216D01*
X031242Y008426D02*
X033500Y008426D01*
X029889Y007061D02*
X030267Y007061D01*
X029576Y006746D02*
X030163Y006746D01*
X029681Y006851D02*
X030163Y006851D01*
X029993Y007166D02*
X030370Y007166D01*
X030097Y007271D02*
X030473Y007271D01*
X026341Y008426D02*
X027344Y008426D01*
X026341Y008531D02*
X027344Y008531D01*
X026341Y008321D02*
X027344Y008321D01*
X026341Y008216D02*
X027344Y008216D01*
X026341Y008636D02*
X027344Y008636D01*
X026341Y008951D02*
X027344Y008951D01*
X026341Y009056D02*
X027344Y009056D01*
X026341Y008741D02*
X027344Y008741D01*
X026341Y008846D02*
X027344Y008846D01*
X025561Y005802D02*
X025988Y005802D01*
X025561Y005907D02*
X025988Y005907D01*
X023511Y005802D02*
X023617Y005802D01*
X025561Y005697D02*
X030163Y005697D01*
X025561Y006012D02*
X025988Y006012D01*
X023813Y005592D02*
X024187Y005592D01*
X026341Y009160D02*
X027344Y009160D01*
X025561Y006117D02*
X025988Y006117D01*
X029106Y007691D02*
X029360Y007691D01*
X031138Y008321D02*
X033500Y008321D01*
X027012Y006327D02*
X030163Y006327D01*
X030458Y004962D02*
X030462Y004962D01*
X027012Y006431D02*
X030163Y006431D01*
X027012Y006536D02*
X030163Y006536D01*
X030560Y005067D02*
X030567Y005067D01*
X024077Y007376D02*
X024760Y007376D01*
X024077Y006956D02*
X024341Y006956D01*
X029374Y007691D02*
X029393Y007691D01*
X023706Y006327D02*
X023712Y006327D01*
X025561Y006327D02*
X025988Y006327D01*
X025561Y006222D02*
X025988Y006222D01*
X025561Y006431D02*
X025988Y006431D01*
X025561Y006536D02*
X025988Y006536D01*
X027012Y005802D02*
X030163Y005802D01*
X027012Y006012D02*
X030163Y006012D01*
X027012Y006117D02*
X030163Y006117D01*
X027012Y006222D02*
X030163Y006222D01*
X027012Y005907D02*
X030163Y005907D01*
X030409Y007586D02*
X030782Y007586D01*
X030201Y007376D02*
X030576Y007376D01*
X024077Y007691D02*
X025470Y007691D01*
X030305Y007481D02*
X030679Y007481D01*
X030618Y007796D02*
X030988Y007796D01*
X030930Y008111D02*
X033500Y008111D01*
X030722Y007901D02*
X033396Y007901D01*
X030514Y007691D02*
X030885Y007691D01*
X030826Y008006D02*
X033500Y008006D01*
X024077Y007271D02*
X024341Y007271D01*
X024077Y007481D02*
X025694Y007481D01*
X024077Y007061D02*
X024341Y007061D01*
X024077Y007166D02*
X024341Y007166D01*
X024077Y007796D02*
X025372Y007796D01*
X024077Y007901D02*
X025344Y007901D01*
X024077Y007586D02*
X025594Y007586D01*
X024077Y008006D02*
X025344Y008006D01*
X024077Y008111D02*
X025344Y008111D01*
X009557Y011638D02*
X009557Y011362D01*
X009557Y011362D02*
X009498Y011303D01*
X009112Y011807D02*
X009388Y011807D01*
X009388Y011807D02*
X009557Y011638D01*
X008693Y012362D02*
X008693Y012638D01*
X009138Y012807D02*
X009307Y012638D01*
X009307Y012638D02*
X009307Y012599D01*
X008693Y012638D02*
X008862Y012807D01*
X008862Y012807D02*
X009138Y012807D01*
X024360Y015293D02*
X024374Y015293D01*
X024374Y015293D02*
X024374Y015305D01*
X024660Y014125D02*
X024374Y014410D01*
X024374Y014410D02*
X024374Y015293D01*
X012591Y009312D02*
X012591Y009986D01*
X009443Y012888D02*
X009486Y012931D01*
X008943Y011638D02*
X009112Y011807D01*
X011409Y009312D02*
X011409Y010159D01*
X009443Y012612D02*
X009443Y012888D01*
X009917Y011797D02*
X009917Y011963D01*
X008789Y010093D02*
X008856Y010093D01*
X009917Y010547D02*
X009917Y010691D01*
X009917Y011797D02*
X010547Y011797D01*
X008789Y009312D02*
X008789Y010093D01*
X008789Y010407D02*
X008789Y011549D01*
X013797Y009591D02*
X013844Y009591D01*
X008789Y011549D02*
X008917Y011549D01*
X009498Y010407D02*
X009431Y010407D01*
X013612Y009943D02*
X013569Y009986D01*
X014738Y011512D02*
X015624Y011512D01*
X008862Y012193D02*
X008693Y012362D01*
X013612Y010557D02*
X013844Y010557D01*
X015624Y010488D02*
X015537Y010488D01*
X009917Y011453D02*
X010547Y011453D01*
X009917Y010547D02*
X010547Y010547D01*
X014738Y010488D02*
X014738Y011512D01*
X014797Y009312D02*
X014797Y009547D01*
X024610Y014125D02*
X024360Y014375D01*
X018738Y015156D02*
X018738Y015262D01*
X018738Y015156D02*
X018588Y015156D01*
X019762Y014344D02*
X019988Y014344D01*
X018812Y014238D02*
X018698Y014125D01*
X018738Y015151D02*
X018738Y015156D01*
X022838Y015467D02*
X022997Y015307D01*
X022838Y015467D02*
X022818Y015467D01*
X022997Y015307D02*
X023011Y015293D01*
X022997Y015307D02*
X022977Y015307D01*
X017551Y014125D02*
X017582Y014156D01*
X018082Y014656D02*
X018578Y015151D01*
X017537Y014125D02*
X017568Y014156D01*
X017568Y014156D02*
X017582Y014156D01*
X020728Y015860D02*
X020906Y015682D01*
X020094Y015262D02*
X020094Y015318D01*
X019762Y014344D02*
X019762Y014238D01*
X020728Y015860D02*
X021804Y015860D01*
X020906Y015318D02*
X020906Y015262D01*
X020094Y015318D02*
X020094Y015682D01*
X019988Y015156D02*
X019988Y015262D01*
X017844Y014418D02*
X018078Y014651D01*
X020906Y015262D02*
X021012Y015262D01*
X019988Y015156D02*
X019762Y015156D01*
X024157Y015307D02*
X023498Y015307D01*
X024360Y014375D02*
X024360Y015293D01*
X019076Y015860D02*
X019125Y015860D01*
X023498Y015293D02*
X024360Y015293D01*
X018584Y015151D02*
X018738Y015151D01*
X019125Y015860D02*
X020272Y015860D01*
X022818Y015467D02*
X022197Y015467D01*
X018584Y015151D02*
X018344Y014912D01*
X019076Y015860D02*
X017590Y014374D01*
X017582Y014156D02*
X017844Y014418D01*
X017844Y014418D02*
X017844Y014432D01*
X017570Y014374D02*
X018390Y015194D01*
X017570Y014374D02*
X016410Y014374D01*
X010547Y010547D02*
X010823Y010547D01*
X010823Y010547D02*
X011409Y010547D01*
X014656Y009547D02*
X014703Y009547D01*
X010547Y011453D02*
X010594Y011453D01*
X010547Y011797D02*
X010594Y011797D01*
X008856Y010093D02*
X008856Y010407D01*
X009498Y009827D02*
X009498Y010093D01*
X011453Y012594D02*
X011453Y012341D01*
X011453Y012594D02*
X013844Y012594D01*
X013844Y009943D02*
X013844Y009838D01*
X014963Y010488D02*
X014738Y010488D01*
X013844Y010557D02*
X013844Y012594D01*
X013844Y009943D02*
X013612Y009943D01*
X015537Y010488D02*
X015537Y010453D01*
X014703Y009547D02*
X014797Y009547D01*
X014703Y009547D02*
X014703Y009312D01*
X014797Y010453D02*
X014963Y010453D01*
X014656Y010453D02*
X014797Y010453D01*
X011162Y013406D02*
X011182Y013406D01*
X010932Y013406D02*
X011162Y013406D01*
X009132Y011966D02*
X009128Y011966D01*
X008901Y012193D02*
X008862Y012193D01*
X011182Y013406D02*
X011162Y013406D01*
X010932Y013406D02*
X010918Y013406D01*
X010932Y013406D02*
X011162Y013406D01*
X011162Y013406D02*
X011182Y013406D01*
X011162Y013406D02*
X010932Y013406D01*
X009431Y010407D02*
X009431Y010093D01*
X013844Y009591D02*
X013844Y009818D01*
X008917Y011549D02*
X008926Y011549D01*
X008917Y011549D02*
X008943Y011575D01*
X009486Y013619D02*
X009486Y014125D01*
X010906Y013418D02*
X010918Y013406D01*
X009132Y011966D02*
X009135Y011963D01*
X009486Y013381D02*
X009486Y013619D01*
X010906Y013418D02*
X010906Y013406D01*
X013569Y010514D02*
X012609Y010514D01*
X010889Y009823D02*
X011135Y009577D01*
X011323Y009389D02*
X011323Y009312D01*
X011147Y009577D02*
X011327Y009397D01*
X011327Y009397D02*
X011327Y009312D01*
X010611Y009823D02*
X010884Y009823D01*
X014068Y013406D02*
X014088Y013406D01*
X012612Y009989D02*
X012591Y009989D01*
X014412Y013406D02*
X014088Y013406D01*
X013844Y009818D02*
X013844Y009838D01*
X009486Y013381D02*
X009486Y013619D01*
X010906Y014125D02*
X010906Y013418D01*
X013797Y009312D02*
X013797Y009591D01*
X009486Y013381D02*
X009486Y013619D01*
X009135Y011963D02*
X009917Y011963D01*
X009128Y011966D02*
X008901Y012193D01*
X011162Y013406D02*
X010932Y013406D01*
X008963Y012135D02*
X009132Y011966D01*
X009372Y011966D02*
X009132Y011966D01*
X009486Y012931D02*
X009486Y013381D01*
X009517Y012537D02*
X009443Y012612D01*
X011453Y012341D02*
X012591Y012341D01*
X012591Y011159D02*
X012591Y011341D01*
X009517Y012537D02*
X009369Y012537D01*
X009307Y012599D02*
X009369Y012537D01*
X013569Y010514D02*
X013612Y010557D01*
X008943Y011549D02*
X008943Y011566D01*
X009498Y011303D02*
X009498Y011266D01*
X008880Y011512D02*
X008917Y011549D01*
X015624Y013406D02*
X014432Y013406D01*
X011077Y009631D02*
X010884Y009823D01*
X010881Y009827D02*
X009498Y009827D01*
X014068Y013406D02*
X014088Y013406D01*
X012591Y009986D02*
X013569Y009986D01*
X011409Y010159D02*
X011409Y010341D01*
X007750Y009312D02*
X007750Y014125D01*
X011409Y010341D02*
X011409Y010547D01*
X026341Y009265D02*
X027238Y009265D01*
X031703Y010735D02*
X031752Y010735D01*
X031703Y011050D02*
X031752Y011050D01*
X031703Y010840D02*
X031752Y010840D01*
X031703Y010945D02*
X031752Y010945D01*
X031703Y011365D02*
X031752Y011365D01*
X032461Y009475D02*
X033500Y009475D01*
X032461Y009370D02*
X033500Y009370D01*
X031703Y011260D02*
X031752Y011260D01*
X031703Y011155D02*
X031752Y011155D01*
X031762Y012204D02*
X033500Y012204D01*
X031762Y012309D02*
X033500Y012309D01*
X031762Y012834D02*
X033500Y012834D01*
X031762Y012099D02*
X033500Y012099D01*
X031762Y012729D02*
X033500Y012729D01*
X031762Y012414D02*
X033500Y012414D01*
X031703Y010630D02*
X031752Y010630D01*
X031762Y012624D02*
X033500Y012624D01*
X031762Y012519D02*
X033500Y012519D01*
X032461Y010735D02*
X033500Y010735D01*
X032461Y011050D02*
X033500Y011050D01*
X032461Y010840D02*
X033500Y010840D01*
X032461Y010945D02*
X033500Y010945D01*
X032461Y011365D02*
X033500Y011365D01*
X031703Y009475D02*
X031752Y009475D01*
X031703Y009370D02*
X031752Y009370D01*
X032461Y011260D02*
X033500Y011260D01*
X032461Y011155D02*
X033500Y011155D01*
X032461Y009580D02*
X033500Y009580D01*
X032461Y009895D02*
X033500Y009895D01*
X032461Y009685D02*
X033500Y009685D01*
X032461Y009790D02*
X033500Y009790D01*
X032461Y010000D02*
X033500Y010000D01*
X032461Y010420D02*
X033500Y010420D01*
X032461Y010630D02*
X033500Y010630D01*
X032461Y011470D02*
X033500Y011470D01*
X032461Y010525D02*
X033500Y010525D01*
X031762Y012939D02*
X033500Y012939D01*
X007750Y008846D02*
X010488Y008846D01*
X007750Y008951D02*
X008789Y008951D01*
X007750Y008636D02*
X010488Y008636D01*
X007750Y008741D02*
X010488Y008741D01*
X007750Y009056D02*
X008789Y009056D01*
X032336Y011784D02*
X032344Y011784D01*
X032344Y011784D02*
X033500Y011784D01*
X007750Y009160D02*
X008789Y009160D01*
X007750Y009265D02*
X008789Y009265D01*
X007849Y007901D02*
X007854Y007901D01*
X007750Y008006D02*
X015365Y008006D01*
X008059Y007691D02*
X008638Y007691D01*
X007954Y007796D02*
X008739Y007796D01*
X007750Y008111D02*
X015266Y008111D01*
X007750Y008426D02*
X010488Y008426D01*
X007750Y008531D02*
X010488Y008531D01*
X007750Y008216D02*
X015167Y008216D01*
X007750Y008321D02*
X010488Y008321D01*
X031628Y013989D02*
X033500Y013989D01*
X032133Y011994D02*
X032142Y011994D01*
X031656Y010000D02*
X031752Y010000D01*
X031628Y013884D02*
X033500Y013884D01*
X032370Y011680D02*
X033500Y011680D01*
X032142Y011994D02*
X033500Y011994D01*
X032232Y011889D02*
X032243Y011889D01*
X032370Y011575D02*
X033500Y011575D01*
X032243Y011889D02*
X033500Y011889D01*
X032433Y010315D02*
X033500Y010315D01*
X032433Y010105D02*
X033500Y010105D01*
X032129Y011994D02*
X032133Y011994D01*
X032433Y010210D02*
X033500Y010210D01*
X031656Y010525D02*
X031752Y010525D01*
X031656Y010315D02*
X031780Y010315D01*
X031656Y010105D02*
X031780Y010105D01*
X031656Y010420D02*
X031752Y010420D01*
X031656Y010210D02*
X031780Y010210D01*
X030804Y013779D02*
X033500Y013779D01*
X029740Y011365D02*
X029748Y011365D01*
X030597Y013569D02*
X033500Y013569D01*
X030701Y013674D02*
X033500Y013674D01*
X029834Y011470D02*
X029844Y011470D01*
X028638Y011680D02*
X030059Y011680D01*
X028539Y011784D02*
X030161Y011784D01*
X028901Y011365D02*
X028906Y011365D01*
X028441Y011889D02*
X030262Y011889D01*
X024241Y011575D02*
X024254Y011575D01*
X029978Y012939D02*
X030738Y012939D01*
X030264Y010105D02*
X030844Y010105D01*
X030264Y010000D02*
X030844Y010000D01*
X030081Y013044D02*
X033500Y013044D01*
X030391Y013359D02*
X033500Y013359D01*
X030494Y013464D02*
X033500Y013464D01*
X030185Y013149D02*
X033500Y013149D01*
X030288Y013254D02*
X033500Y013254D01*
X024700Y010105D02*
X027238Y010105D01*
X028059Y010525D02*
X028094Y010525D01*
X024798Y010210D02*
X025281Y010210D01*
X024896Y010315D02*
X024906Y010315D01*
X027963Y010630D02*
X028094Y010630D01*
X027835Y010735D02*
X028094Y010735D01*
X027726Y010840D02*
X027734Y010840D01*
X027734Y010840D02*
X028094Y010840D01*
X027634Y010945D02*
X028094Y010945D01*
X028863Y011470D02*
X029834Y011470D01*
X024784Y010210D02*
X024798Y010210D01*
X028906Y011365D02*
X029740Y011365D01*
X028765Y011575D02*
X029957Y011575D01*
X024882Y010315D02*
X024896Y010315D01*
X024901Y010525D02*
X024906Y010525D01*
X024901Y010630D02*
X024906Y010630D01*
X024685Y010105D02*
X024700Y010105D01*
X024901Y010420D02*
X024906Y010420D01*
X030264Y010315D02*
X030844Y010315D01*
X024906Y011050D02*
X028094Y011050D01*
X031057Y011470D02*
X031752Y011470D01*
X024906Y010840D02*
X025281Y010840D01*
X024906Y010945D02*
X025281Y010945D01*
X030262Y011889D02*
X030274Y011889D01*
X028849Y011470D02*
X028863Y011470D01*
X024467Y009895D02*
X024473Y009895D01*
X030364Y011994D02*
X030370Y011994D01*
X028751Y011575D02*
X028765Y011575D01*
X031703Y009580D02*
X031752Y009580D01*
X031703Y009895D02*
X031752Y009895D01*
X031703Y009685D02*
X031752Y009685D01*
X031703Y009790D02*
X031752Y009790D01*
X024906Y010420D02*
X025281Y010420D01*
X024906Y010315D02*
X025281Y010315D01*
X024906Y010735D02*
X025281Y010735D01*
X024906Y010525D02*
X025281Y010525D01*
X024906Y010630D02*
X025281Y010630D01*
X030267Y013254D02*
X030288Y013254D01*
X030370Y013359D02*
X030391Y013359D01*
X030061Y013044D02*
X030081Y013044D01*
X030164Y013149D02*
X030185Y013149D01*
X030473Y013464D02*
X030494Y013464D01*
X030264Y010420D02*
X030844Y010420D01*
X030264Y010210D02*
X030844Y010210D01*
X025105Y013674D02*
X025134Y013674D01*
X030264Y010525D02*
X030844Y010525D01*
X024572Y010000D02*
X027238Y010000D01*
X024559Y011889D02*
X024565Y011889D01*
X024566Y010000D02*
X024572Y010000D01*
X024473Y009895D02*
X027238Y009895D01*
X024362Y011680D02*
X024368Y011680D01*
X027949Y010630D02*
X027963Y010630D01*
X029958Y012939D02*
X029978Y012939D01*
X024461Y011784D02*
X024467Y011784D01*
X028045Y010525D02*
X028059Y010525D01*
X017703Y008951D02*
X018159Y008951D01*
X017703Y009056D02*
X018159Y009056D01*
X017703Y008741D02*
X018159Y008741D01*
X017703Y008846D02*
X018159Y008846D01*
X017703Y008426D02*
X018159Y008426D01*
X016703Y009265D02*
X016797Y009265D01*
X016703Y008636D02*
X016797Y008636D01*
X017703Y008531D02*
X018159Y008531D01*
X016703Y009160D02*
X016797Y009160D01*
X023470Y005592D02*
X023813Y005592D01*
X023376Y005487D02*
X030218Y005487D01*
X021341Y009056D02*
X022285Y009056D01*
X022734Y006117D02*
X022986Y006117D01*
X023461Y005592D02*
X023470Y005592D01*
X017703Y009265D02*
X018159Y009265D01*
X017703Y008636D02*
X018159Y008636D01*
X023367Y005487D02*
X023376Y005487D01*
X017703Y009160D02*
X018159Y009160D01*
X013087Y005592D02*
X020238Y005592D01*
X013386Y006431D02*
X020238Y006431D01*
X017057Y008216D02*
X018159Y008216D01*
X017057Y008111D02*
X020344Y008111D01*
X013287Y006536D02*
X020238Y006536D01*
X011512Y008426D02*
X013797Y008426D01*
X011512Y008531D02*
X013797Y008531D01*
X013188Y006641D02*
X020344Y006641D01*
X011512Y008321D02*
X015048Y008321D01*
X016703Y008951D02*
X016797Y008951D01*
X016703Y009056D02*
X016797Y009056D01*
X016703Y008741D02*
X016797Y008741D01*
X016703Y008846D02*
X016797Y008846D01*
X023159Y005172D02*
X030522Y005172D01*
X017049Y008111D02*
X017057Y008111D01*
X017057Y008321D02*
X018159Y008321D01*
X023159Y005277D02*
X030421Y005277D01*
X016953Y008006D02*
X020344Y008006D01*
X021341Y008951D02*
X022285Y008951D01*
X021156Y007796D02*
X022285Y007796D01*
X023255Y005382D02*
X030320Y005382D01*
X021156Y007586D02*
X022285Y007586D01*
X021156Y007691D02*
X022285Y007691D01*
X023353Y005487D02*
X023367Y005487D01*
X021262Y005907D02*
X022986Y005907D01*
X021262Y006012D02*
X022986Y006012D01*
X023246Y005382D02*
X023255Y005382D01*
X021262Y005592D02*
X021939Y005592D01*
X021156Y007901D02*
X022285Y007901D01*
X021156Y006956D02*
X021939Y006956D01*
X021156Y008006D02*
X022285Y008006D01*
X021156Y008111D02*
X022285Y008111D01*
X021156Y007061D02*
X021939Y007061D01*
X021156Y007376D02*
X022285Y007376D01*
X021156Y007481D02*
X022285Y007481D01*
X021156Y007166D02*
X021939Y007166D01*
X021156Y007271D02*
X021939Y007271D01*
X021341Y008216D02*
X022285Y008216D01*
X021341Y009160D02*
X022216Y009160D01*
X015703Y009056D02*
X015797Y009056D01*
X021341Y008321D02*
X022285Y008321D01*
X021341Y008426D02*
X022285Y008426D01*
X021341Y008741D02*
X022285Y008741D01*
X021341Y008846D02*
X022285Y008846D01*
X021341Y008531D02*
X022285Y008531D01*
X021341Y008636D02*
X022285Y008636D01*
X015703Y009160D02*
X015797Y009160D01*
X015703Y009265D02*
X015797Y009265D01*
X021262Y005697D02*
X021939Y005697D01*
X021262Y005802D02*
X021939Y005802D01*
X015703Y008531D02*
X015797Y008531D01*
X015703Y008846D02*
X015797Y008846D01*
X015703Y008951D02*
X015797Y008951D01*
X015703Y008636D02*
X015797Y008636D01*
X015703Y008741D02*
X015797Y008741D01*
X011087Y006117D02*
X012539Y006117D01*
X011087Y006222D02*
X012441Y006222D01*
X011087Y005907D02*
X012772Y005907D01*
X011087Y006012D02*
X012670Y006012D01*
X011087Y006327D02*
X012344Y006327D01*
X011087Y006641D02*
X012344Y006641D01*
X011087Y006746D02*
X012412Y006746D01*
X011087Y006431D02*
X012344Y006431D01*
X011087Y006536D02*
X012344Y006536D01*
X010728Y005172D02*
X021939Y005172D01*
X010829Y005277D02*
X021939Y005277D01*
X012591Y009160D02*
X013797Y009160D01*
X012591Y009265D02*
X013797Y009265D01*
X010930Y005382D02*
X021939Y005382D01*
X011087Y005697D02*
X012975Y005697D01*
X011087Y005802D02*
X012873Y005802D01*
X011032Y005487D02*
X021939Y005487D01*
X011087Y005592D02*
X013077Y005592D01*
X011103Y004647D02*
X030147Y004647D01*
X010998Y004752D02*
X030252Y004752D01*
X010262Y007796D02*
X020344Y007796D01*
X011208Y004542D02*
X030042Y004542D01*
X010893Y004857D02*
X030357Y004857D01*
X008269Y007481D02*
X008435Y007481D01*
X008164Y007586D02*
X008537Y007586D01*
X010788Y004962D02*
X010792Y004962D01*
X010683Y005067D02*
X010690Y005067D01*
X010983Y007061D02*
X020344Y007061D01*
X010880Y007166D02*
X020344Y007166D01*
X011087Y006851D02*
X012510Y006851D01*
X011086Y006956D02*
X020344Y006956D01*
X010777Y007271D02*
X020344Y007271D01*
X010468Y007586D02*
X020344Y007586D01*
X010365Y007691D02*
X020344Y007691D01*
X010674Y007376D02*
X020344Y007376D01*
X010571Y007481D02*
X020344Y007481D01*
X009498Y009160D02*
X010488Y009160D01*
X012873Y005802D02*
X012886Y005802D01*
X013075Y006746D02*
X013088Y006746D01*
X013077Y005592D02*
X013083Y005592D01*
X012975Y005697D02*
X012984Y005697D01*
X012976Y006851D02*
X012990Y006851D01*
X015365Y008006D02*
X015369Y008006D01*
X015266Y008111D02*
X015274Y008111D01*
X013083Y005592D02*
X013087Y005592D01*
X015048Y008321D02*
X015057Y008321D01*
X011512Y008846D02*
X013797Y008846D01*
X011512Y008951D02*
X013797Y008951D01*
X011512Y008636D02*
X013797Y008636D01*
X011512Y008741D02*
X013797Y008741D01*
X011512Y009056D02*
X013797Y009056D01*
X010792Y004962D02*
X030458Y004962D01*
X010690Y005067D02*
X030560Y005067D01*
X011512Y009160D02*
X012591Y009160D01*
X007854Y007901D02*
X020344Y007901D01*
X014703Y008951D02*
X014797Y008951D01*
X014703Y009056D02*
X014797Y009056D01*
X014703Y008741D02*
X014797Y008741D01*
X014703Y008846D02*
X014797Y008846D01*
X014703Y009160D02*
X014797Y009160D01*
X009498Y008951D02*
X010488Y008951D01*
X009498Y009056D02*
X010488Y009056D01*
X014703Y009265D02*
X014797Y009265D01*
X008789Y008951D02*
X009498Y008951D01*
X012441Y006222D02*
X012456Y006222D01*
X013088Y006746D02*
X020344Y006746D01*
X011327Y009265D02*
X011409Y009265D01*
X012539Y006117D02*
X012554Y006117D01*
X012990Y006851D02*
X020344Y006851D01*
X014703Y008531D02*
X014797Y008531D01*
X014703Y008636D02*
X014797Y008636D01*
X012344Y006327D02*
X012357Y006327D01*
X014703Y008426D02*
X014797Y008426D01*
X017590Y014374D02*
X017570Y014374D01*
X013037Y017743D02*
X015213Y017743D01*
X013037Y017638D02*
X015213Y017638D01*
X013037Y017533D02*
X015213Y017533D01*
X013037Y017953D02*
X015213Y017953D01*
X013037Y018162D02*
X015213Y018162D01*
X013037Y018057D02*
X015213Y018057D01*
X013037Y017848D02*
X015213Y017848D01*
X013037Y017323D02*
X015213Y017323D01*
X013037Y017218D02*
X015213Y017218D01*
X013037Y017428D02*
X015213Y017428D01*
X013037Y017113D02*
X015213Y017113D01*
X013037Y016798D02*
X026963Y016798D01*
X013037Y016693D02*
X026963Y016693D01*
X013037Y017008D02*
X026963Y017008D01*
X013037Y016903D02*
X026963Y016903D01*
X013037Y018267D02*
X015213Y018267D01*
X013723Y015433D02*
X018028Y015433D01*
X013826Y015329D02*
X017924Y015329D01*
X013619Y015538D02*
X018132Y015538D01*
X013037Y019002D02*
X015213Y019002D01*
X013037Y018897D02*
X015213Y018897D01*
X013037Y019212D02*
X015213Y019212D01*
X013037Y019107D02*
X015213Y019107D01*
X013037Y018792D02*
X015213Y018792D01*
X013037Y018477D02*
X015213Y018477D01*
X013037Y018372D02*
X015213Y018372D01*
X013037Y018687D02*
X015213Y018687D01*
X013037Y018582D02*
X015213Y018582D01*
X014138Y015014D02*
X017613Y015014D01*
X014241Y014909D02*
X017509Y014909D01*
X013930Y015224D02*
X017820Y015224D01*
X014034Y015119D02*
X017716Y015119D01*
X014345Y014804D02*
X017405Y014804D01*
X013037Y019422D02*
X015213Y019422D01*
X013037Y019317D02*
X015213Y019317D01*
X013037Y019632D02*
X016094Y019632D01*
X013037Y019527D02*
X016094Y019527D01*
X021287Y020157D02*
X024585Y020157D01*
X021287Y019842D02*
X024585Y019842D01*
X021287Y020367D02*
X024585Y020367D01*
X021287Y020262D02*
X024585Y020262D01*
X021287Y019737D02*
X029085Y019737D01*
X021287Y019632D02*
X029085Y019632D01*
X021287Y019527D02*
X029085Y019527D01*
X021287Y019422D02*
X029085Y019422D01*
X021287Y019317D02*
X029085Y019317D01*
X021287Y020052D02*
X024585Y020052D01*
X021287Y019947D02*
X024585Y019947D01*
X021287Y018687D02*
X029085Y018687D01*
X021287Y018582D02*
X029085Y018582D01*
X021287Y020891D02*
X024585Y020891D01*
X021287Y020577D02*
X024585Y020577D01*
X021287Y020472D02*
X024585Y020472D01*
X021287Y020786D02*
X024585Y020786D01*
X021287Y020681D02*
X024585Y020681D01*
X016787Y017323D02*
X026963Y017323D01*
X016787Y017218D02*
X026963Y017218D01*
X016787Y017533D02*
X026963Y017533D01*
X016787Y017428D02*
X026963Y017428D01*
X016787Y017113D02*
X026963Y017113D01*
X017165Y021941D02*
X024585Y021941D01*
X017165Y021836D02*
X024585Y021836D01*
X017165Y022151D02*
X024577Y022151D01*
X017165Y022046D02*
X024585Y022046D01*
X016787Y018267D02*
X027681Y018267D01*
X016787Y018162D02*
X027594Y018162D01*
X016787Y018477D02*
X029085Y018477D01*
X016787Y018372D02*
X027779Y018372D01*
X016787Y018057D02*
X027594Y018057D01*
X016787Y017743D02*
X026963Y017743D01*
X016787Y017638D02*
X026963Y017638D01*
X016787Y017953D02*
X027594Y017953D01*
X016787Y017848D02*
X026963Y017848D01*
X021287Y018792D02*
X029085Y018792D01*
X013037Y016378D02*
X026963Y016378D01*
X013037Y016273D02*
X018859Y016273D01*
X013037Y016588D02*
X026963Y016588D01*
X013037Y016483D02*
X026963Y016483D01*
X013037Y016168D02*
X018755Y016168D01*
X016906Y019422D02*
X019713Y019422D01*
X016906Y019317D02*
X019713Y019317D01*
X016749Y019842D02*
X019713Y019842D01*
X016847Y019737D02*
X019713Y019737D01*
X021126Y021206D02*
X024585Y021206D01*
X021156Y021101D02*
X024585Y021101D01*
X016899Y019317D02*
X016906Y019317D01*
X021028Y021311D02*
X024585Y021311D01*
X021156Y020996D02*
X024585Y020996D01*
X021287Y019002D02*
X029085Y019002D01*
X021287Y018897D02*
X029085Y018897D01*
X021287Y019212D02*
X029085Y019212D01*
X021287Y019107D02*
X029085Y019107D01*
X016906Y019632D02*
X019713Y019632D01*
X016906Y019527D02*
X019713Y019527D01*
X033037Y027609D02*
X033500Y027609D01*
X033037Y027819D02*
X033500Y027819D01*
X033037Y027714D02*
X033500Y027714D01*
X033037Y027504D02*
X033500Y027504D01*
X033037Y028239D02*
X033500Y028239D01*
X033037Y028554D02*
X033500Y028554D01*
X033037Y028134D02*
X033500Y028134D01*
X033037Y028344D02*
X033500Y028344D01*
X033037Y027084D02*
X033500Y027084D01*
X033037Y026874D02*
X033500Y026874D01*
X033037Y026244D02*
X033500Y026244D01*
X033037Y027189D02*
X033500Y027189D01*
X033037Y026979D02*
X033500Y026979D01*
X033037Y028029D02*
X033500Y028029D01*
X033037Y027924D02*
X033500Y027924D01*
X033037Y027399D02*
X033500Y027399D01*
X033037Y027294D02*
X033500Y027294D01*
X032772Y023515D02*
X033500Y023515D01*
X032772Y023410D02*
X033500Y023410D01*
X032772Y024145D02*
X033500Y024145D01*
X032772Y024040D02*
X033500Y024040D01*
X032772Y022991D02*
X033500Y022991D01*
X032772Y022676D02*
X033500Y022676D01*
X032772Y024355D02*
X033500Y024355D01*
X032772Y022886D02*
X033500Y022886D01*
X032772Y022781D02*
X033500Y022781D01*
X033415Y022466D02*
X033500Y022466D01*
X033415Y022361D02*
X033500Y022361D01*
X033037Y028449D02*
X033500Y028449D01*
X033415Y022571D02*
X033500Y022571D01*
X033415Y022256D02*
X033500Y022256D01*
X032772Y023725D02*
X033500Y023725D01*
X032772Y023620D02*
X033500Y023620D01*
X032772Y023935D02*
X033500Y023935D01*
X032772Y023830D02*
X033500Y023830D01*
X024360Y026139D02*
X024372Y026139D01*
X024360Y027189D02*
X024372Y027189D01*
X024360Y026349D02*
X024372Y026349D01*
X024360Y026244D02*
X024372Y026244D01*
X024360Y027084D02*
X024372Y027084D01*
X024360Y027399D02*
X024372Y027399D01*
X024360Y027294D02*
X024372Y027294D01*
X024360Y026874D02*
X024372Y026874D01*
X024360Y026979D02*
X024372Y026979D01*
X024360Y026559D02*
X024372Y026559D01*
X024360Y026454D02*
X024372Y026454D01*
X024360Y026664D02*
X024372Y026664D01*
X033037Y026769D02*
X033500Y026769D01*
X033037Y026664D02*
X033500Y026664D01*
X029036Y023201D02*
X029083Y023201D01*
X029136Y023096D02*
X029183Y023096D01*
X033037Y026559D02*
X033500Y026559D01*
X033037Y026454D02*
X033500Y026454D01*
X033037Y026349D02*
X033500Y026349D01*
X024360Y027819D02*
X024372Y027819D01*
X024360Y027714D02*
X024372Y027714D01*
X024360Y028029D02*
X024372Y028029D01*
X024360Y027924D02*
X024372Y027924D01*
X024360Y027609D02*
X024372Y027609D01*
X028025Y029183D02*
X028036Y029183D01*
X028936Y023306D02*
X028984Y023306D01*
X024360Y027504D02*
X024372Y027504D01*
X027928Y029288D02*
X027940Y029288D01*
X013287Y021101D02*
X020344Y021101D01*
X013287Y020996D02*
X020344Y020996D01*
X013287Y021311D02*
X020472Y021311D01*
X013287Y021206D02*
X020374Y021206D01*
X013287Y020891D02*
X019713Y020891D01*
X013287Y020577D02*
X019713Y020577D01*
X013287Y020472D02*
X019713Y020472D01*
X013287Y020786D02*
X019713Y020786D01*
X013287Y020681D02*
X019713Y020681D01*
X031751Y024460D02*
X031800Y024460D01*
X013254Y019842D02*
X016251Y019842D01*
X032525Y029183D02*
X032536Y029183D01*
X031656Y024565D02*
X031703Y024565D01*
X013159Y019737D02*
X016153Y019737D01*
X013287Y020052D02*
X019713Y020052D01*
X013287Y019947D02*
X019713Y019947D01*
X013241Y019842D02*
X013254Y019842D01*
X013144Y019737D02*
X013159Y019737D01*
X013287Y020157D02*
X019713Y020157D01*
X013100Y016063D02*
X018651Y016063D01*
X013287Y020367D02*
X019713Y020367D01*
X013287Y020262D02*
X019713Y020262D01*
X013204Y015958D02*
X018547Y015958D01*
X013515Y015643D02*
X018236Y015643D01*
X013308Y015853D02*
X018444Y015853D01*
X013412Y015748D02*
X018340Y015748D01*
X032428Y029288D02*
X032440Y029288D01*
X032577Y028868D02*
X033500Y028868D01*
X032577Y029078D02*
X033500Y029078D01*
X032577Y028659D02*
X033500Y028659D01*
X032577Y028973D02*
X033500Y028973D01*
X032315Y029393D02*
X033500Y029393D01*
X031640Y026139D02*
X033500Y026139D01*
X031640Y026034D02*
X033500Y026034D01*
X032217Y029498D02*
X033500Y029498D01*
X031640Y026244D02*
X033037Y026244D01*
X032772Y023201D02*
X033500Y023201D01*
X032772Y023096D02*
X033500Y023096D01*
X032772Y024250D02*
X033500Y024250D01*
X032772Y023306D02*
X033500Y023306D01*
X032308Y029393D02*
X032315Y029393D01*
X032536Y029183D02*
X033500Y029183D01*
X032577Y028763D02*
X033500Y028763D01*
X032211Y029498D02*
X032217Y029498D01*
X032440Y029288D02*
X033500Y029288D01*
X031640Y024880D02*
X033500Y024880D01*
X031640Y024775D02*
X033500Y024775D01*
X031640Y025090D02*
X033500Y025090D01*
X031640Y024985D02*
X033500Y024985D01*
X031640Y024670D02*
X033500Y024670D01*
X031703Y024565D02*
X033500Y024565D01*
X031800Y024460D02*
X033500Y024460D01*
X031628Y026244D02*
X031640Y026244D01*
X031628Y026139D02*
X031640Y026139D01*
X031640Y025720D02*
X033500Y025720D01*
X031640Y025615D02*
X033500Y025615D01*
X031640Y025930D02*
X033500Y025930D01*
X031640Y025825D02*
X033500Y025825D01*
X031640Y025510D02*
X033500Y025510D01*
X031640Y025300D02*
X033500Y025300D01*
X031640Y025195D02*
X033500Y025195D01*
X031640Y025405D02*
X033500Y025405D01*
X017165Y021731D02*
X024585Y021731D01*
X012750Y020000D02*
X012750Y019628D01*
X012591Y021341D02*
X012591Y022159D01*
X007750Y023750D02*
X012835Y023750D01*
X013000Y020000D02*
X012750Y020000D01*
X011409Y021341D02*
X011409Y021486D01*
X012591Y022341D02*
X012591Y023341D01*
X011409Y022341D02*
X011409Y022486D01*
X012591Y021159D02*
X012591Y021341D01*
X011409Y021159D02*
X011409Y021341D01*
X009486Y018937D02*
X009486Y022619D01*
X009486Y022619D02*
X009631Y022764D01*
X010144Y022014D02*
X010014Y021883D01*
X010138Y022011D02*
X010362Y022011D01*
X009631Y022764D02*
X009641Y022764D01*
X010318Y020656D02*
X010332Y020656D01*
X007750Y018937D02*
X007750Y023750D01*
X010838Y021156D02*
X010834Y021151D01*
X010828Y021151D02*
X010834Y021151D01*
X011409Y022014D02*
X010144Y022014D01*
X011409Y022014D02*
X011409Y022159D01*
X010359Y021486D02*
X011409Y021486D01*
X010359Y021486D02*
X010264Y021391D01*
X011168Y020344D02*
X011409Y020344D01*
X011409Y021156D02*
X011409Y021159D01*
X010834Y021151D02*
X010594Y020912D01*
X011168Y020344D02*
X010906Y020082D01*
X011409Y021156D02*
X010838Y021156D01*
X013000Y021402D02*
X012835Y021402D01*
X013000Y021402D02*
X013000Y020000D01*
X012591Y022159D02*
X012591Y022341D01*
X011409Y022159D02*
X011409Y022341D01*
X010109Y022486D02*
X011409Y022486D01*
X011409Y023014D02*
X011409Y023341D01*
X009641Y022764D02*
X009888Y023011D01*
X010109Y022486D02*
X010014Y022391D01*
X011409Y023014D02*
X009894Y023014D01*
X009489Y022388D02*
X009489Y022612D01*
X025548Y013859D02*
X030201Y013859D01*
X025651Y013754D02*
X030098Y013754D01*
X025341Y014069D02*
X030408Y014069D01*
X025444Y013964D02*
X030305Y013964D01*
X025755Y013649D02*
X029995Y013649D01*
X026065Y013334D02*
X029685Y013334D01*
X030615Y014279D02*
X030620Y014279D01*
X025858Y013544D02*
X029891Y013544D01*
X025962Y013439D02*
X029788Y013439D01*
X033415Y021836D02*
X033500Y021836D01*
X033415Y021731D02*
X033500Y021731D01*
X033415Y022046D02*
X033500Y022046D01*
X033415Y021941D02*
X033500Y021941D01*
X033415Y021626D02*
X033500Y021626D01*
X025134Y014279D02*
X030615Y014279D01*
X025237Y014174D02*
X030511Y014174D01*
X033415Y021521D02*
X033500Y021521D01*
X033415Y021416D02*
X033500Y021416D01*
X011409Y023341D02*
X012591Y023341D01*
X012622Y019628D02*
X012750Y019628D01*
X012591Y020159D02*
X011409Y020159D01*
X011409Y020159D02*
X011409Y020344D01*
X012622Y018937D02*
X012622Y019628D01*
X009489Y022612D02*
X009641Y022764D01*
X009888Y023011D02*
X010112Y023011D01*
X012835Y021402D02*
X012835Y023750D01*
X009894Y023014D02*
X009736Y022856D01*
X030511Y014174D02*
X030524Y014174D01*
X030620Y014279D02*
X030632Y014279D01*
X012591Y020159D02*
X012591Y021159D01*
X013424Y015110D02*
X013375Y015110D01*
X012624Y016872D02*
X012624Y017090D01*
X014180Y014374D02*
X014194Y014360D01*
X013424Y015110D02*
X012624Y015910D01*
X017844Y014432D02*
X018068Y014656D01*
X020094Y015682D02*
X020272Y015860D01*
X020906Y015682D02*
X020906Y015318D01*
X018068Y014656D02*
X018082Y014656D01*
X020094Y015318D02*
X020094Y015682D01*
X011509Y016250D02*
X011486Y016226D01*
X011509Y017250D02*
X011774Y016986D01*
X010906Y014335D02*
X010906Y014125D01*
X011509Y016250D02*
X011774Y015986D01*
X011509Y017250D02*
X011486Y017226D01*
X013444Y015110D02*
X013424Y015110D01*
X014180Y014374D02*
X014160Y014374D01*
X010906Y018165D02*
X011014Y018274D01*
X013444Y015110D02*
X014180Y014374D01*
X018588Y015156D02*
X018584Y015151D01*
X017849Y014422D02*
X018082Y014656D01*
X022977Y015307D02*
X022818Y015467D01*
X022197Y015467D02*
X021804Y015860D01*
X018578Y015151D02*
X018584Y015151D01*
X015624Y014360D02*
X017556Y014360D01*
X017556Y014360D02*
X017570Y014374D01*
X020906Y015682D02*
X020906Y015318D01*
X019125Y015860D02*
X019076Y015860D01*
X019988Y014238D02*
X021012Y014238D01*
X019988Y014238D02*
X019988Y014344D01*
X019988Y015262D02*
X020094Y015262D01*
X021012Y015262D02*
X021012Y014238D01*
X018738Y015262D02*
X019762Y015262D01*
X023011Y015293D02*
X023498Y015293D01*
X023498Y015307D02*
X022997Y015307D01*
X019762Y015262D02*
X019762Y015156D01*
X019762Y014238D02*
X018812Y014238D01*
X011509Y015250D02*
X011486Y015226D01*
X011774Y014514D02*
X011774Y014986D01*
X011774Y014514D02*
X011486Y014226D01*
X012622Y016872D02*
X012622Y018937D01*
X011486Y015274D02*
X011509Y015250D01*
X011486Y014226D02*
X011014Y014226D01*
X011774Y015514D02*
X011774Y015986D01*
X011774Y015514D02*
X011509Y015250D01*
X011014Y014226D02*
X010906Y014335D01*
X011486Y016274D02*
X011509Y016250D01*
X010264Y020587D02*
X010332Y020656D01*
X010264Y020602D02*
X010318Y020656D01*
X010834Y021151D02*
X011172Y021151D01*
X010332Y020656D02*
X010828Y021151D01*
X010264Y020602D02*
X010264Y020587D01*
X010014Y021887D02*
X010138Y022011D01*
X010906Y020082D02*
X010906Y018937D01*
X010014Y022391D02*
X010014Y021883D01*
X010264Y021391D02*
X010264Y020602D01*
X012610Y015875D02*
X012610Y018875D01*
X013375Y015110D02*
X012610Y015875D01*
X014194Y014360D02*
X015624Y014360D01*
X013360Y015194D02*
X013444Y015110D01*
X015340Y014374D02*
X014180Y014374D01*
X007750Y014125D02*
X007750Y018937D01*
X011509Y015250D02*
X011774Y014986D01*
X014160Y014374D02*
X013424Y015110D01*
X012624Y015910D02*
X012624Y016872D01*
X011774Y016514D02*
X011509Y016250D01*
X011014Y018274D02*
X011486Y018274D01*
X011486Y017274D02*
X011509Y017250D01*
X011774Y016514D02*
X011774Y016986D01*
X011486Y018274D02*
X011774Y017986D01*
X009486Y014125D02*
X009486Y018937D01*
X010906Y018937D02*
X010906Y018165D01*
X011774Y017986D02*
X011774Y017514D01*
X011774Y017514D02*
X011509Y017250D01*
X028537Y016273D02*
X031463Y016273D01*
X028537Y016168D02*
X031463Y016168D01*
X028537Y015853D02*
X031463Y015853D01*
X028537Y016063D02*
X031463Y016063D01*
X028915Y021311D02*
X029085Y021311D01*
X028915Y020996D02*
X029085Y020996D01*
X028915Y020052D02*
X029085Y020052D01*
X028915Y021206D02*
X029085Y021206D01*
X028915Y021101D02*
X029085Y021101D01*
X028537Y017638D02*
X033500Y017638D01*
X028537Y017533D02*
X033500Y017533D01*
X028537Y017848D02*
X033500Y017848D01*
X028537Y017743D02*
X033500Y017743D01*
X028537Y017428D02*
X033500Y017428D01*
X028537Y017113D02*
X033500Y017113D01*
X028537Y015958D02*
X031463Y015958D01*
X028537Y017323D02*
X033500Y017323D01*
X028537Y017218D02*
X033500Y017218D01*
X028915Y022046D02*
X029085Y022046D01*
X028915Y021941D02*
X029085Y021941D01*
X028915Y019842D02*
X029085Y019842D01*
X028915Y022151D02*
X029085Y022151D01*
X028915Y021836D02*
X029085Y021836D01*
X028915Y021521D02*
X029085Y021521D01*
X028915Y021416D02*
X029085Y021416D01*
X028915Y021731D02*
X029085Y021731D01*
X028915Y021626D02*
X029085Y021626D01*
X028915Y020786D02*
X029085Y020786D01*
X028915Y020681D02*
X029085Y020681D01*
X028915Y019947D02*
X029085Y019947D01*
X028915Y020891D02*
X029085Y020891D01*
X028915Y020577D02*
X029085Y020577D01*
X028915Y020262D02*
X029085Y020262D01*
X028915Y020157D02*
X029085Y020157D01*
X028915Y020472D02*
X029085Y020472D01*
X028915Y020367D02*
X029085Y020367D01*
X028537Y016378D02*
X032094Y016378D01*
X022344Y016063D02*
X026963Y016063D01*
X022141Y016273D02*
X026963Y016273D01*
X022446Y015958D02*
X026963Y015958D01*
X022548Y015853D02*
X026963Y015853D01*
X022242Y016168D02*
X026963Y016168D01*
X016827Y019002D02*
X019713Y019002D01*
X016827Y018897D02*
X019713Y018897D01*
X016827Y019212D02*
X019713Y019212D01*
X016827Y019107D02*
X019713Y019107D01*
X017165Y021416D02*
X024585Y021416D01*
X016806Y018582D02*
X019713Y018582D01*
X017165Y021626D02*
X024585Y021626D01*
X017165Y021521D02*
X024585Y021521D01*
X016823Y018792D02*
X019713Y018792D01*
X022135Y016273D02*
X022141Y016273D01*
X022231Y016168D02*
X022242Y016168D01*
X016823Y018687D02*
X019713Y018687D01*
X016798Y018582D02*
X016806Y018582D01*
X028537Y015538D02*
X031463Y015538D01*
X028537Y017008D02*
X033500Y017008D01*
X028537Y015748D02*
X031463Y015748D01*
X028537Y015643D02*
X031463Y015643D01*
X028537Y016903D02*
X032308Y016903D01*
X028537Y016588D02*
X032094Y016588D01*
X028537Y016483D02*
X032094Y016483D01*
X028537Y016798D02*
X032210Y016798D01*
X028537Y016693D02*
X032112Y016693D01*
X018755Y016168D02*
X018769Y016168D01*
X018865Y016273D02*
X022135Y016273D01*
X016787Y018582D02*
X016798Y018582D01*
X018859Y016273D02*
X018865Y016273D01*
X028221Y018372D02*
X029085Y018372D01*
X028406Y018057D02*
X033500Y018057D01*
X028406Y017953D02*
X033500Y017953D01*
X028319Y018267D02*
X033500Y018267D01*
X028406Y018162D02*
X033500Y018162D01*
X033415Y018687D02*
X033500Y018687D01*
X033415Y018582D02*
X033500Y018582D01*
X033415Y018897D02*
X033500Y018897D01*
X033415Y018792D02*
X033500Y018792D01*
X033415Y019737D02*
X033500Y019737D01*
X033415Y019632D02*
X033500Y019632D01*
X033415Y019527D02*
X033500Y019527D01*
X033415Y019422D02*
X033500Y019422D01*
X033415Y019317D02*
X033500Y019317D01*
X033037Y014699D02*
X033500Y014699D01*
X033037Y014594D02*
X033500Y014594D01*
X033037Y014909D02*
X033500Y014909D01*
X033037Y014804D02*
X033500Y014804D01*
X033037Y014489D02*
X033500Y014489D01*
X033415Y019107D02*
X033500Y019107D01*
X033415Y019002D02*
X033500Y019002D01*
X033037Y014384D02*
X033500Y014384D01*
X033415Y019212D02*
X033500Y019212D01*
X033415Y020577D02*
X033500Y020577D01*
X033415Y020472D02*
X033500Y020472D01*
X033415Y020786D02*
X033500Y020786D01*
X033415Y020681D02*
X033500Y020681D01*
X033415Y020367D02*
X033500Y020367D01*
X033415Y019842D02*
X033500Y019842D01*
X033415Y022151D02*
X033500Y022151D01*
X033415Y020262D02*
X033500Y020262D01*
X033415Y020157D02*
X033500Y020157D01*
X033415Y021311D02*
X033500Y021311D01*
X033415Y021206D02*
X033500Y021206D01*
X033415Y018477D02*
X033500Y018477D01*
X033415Y018372D02*
X033500Y018372D01*
X033415Y021101D02*
X033500Y021101D01*
X033415Y019947D02*
X033500Y019947D01*
X033415Y020891D02*
X033500Y020891D01*
X033415Y020996D02*
X033500Y020996D01*
X033415Y020052D02*
X033500Y020052D01*
X033037Y015014D02*
X033500Y015014D01*
X024787Y014909D02*
X031463Y014909D01*
X024787Y014804D02*
X031463Y014804D01*
X024787Y015119D02*
X031463Y015119D01*
X024787Y015014D02*
X031463Y015014D01*
X024787Y014699D02*
X031463Y014699D01*
X025016Y014384D02*
X031463Y014384D01*
X032308Y016903D02*
X032692Y016903D01*
X024819Y014594D02*
X031463Y014594D01*
X024917Y014489D02*
X031463Y014489D01*
X024658Y015748D02*
X024672Y015748D01*
X024754Y015643D02*
X024767Y015643D01*
X024787Y015538D02*
X026963Y015538D01*
X024787Y015433D02*
X031463Y015433D01*
X024672Y015748D02*
X026963Y015748D01*
X024787Y015329D02*
X031463Y015329D01*
X024787Y015224D02*
X031463Y015224D01*
X024767Y015643D02*
X026963Y015643D01*
X024577Y022151D02*
X024585Y022151D01*
X033037Y016063D02*
X033500Y016063D01*
X033037Y016273D02*
X033500Y016273D01*
X033037Y015958D02*
X033500Y015958D01*
X033037Y015853D02*
X033500Y015853D01*
X033037Y016168D02*
X033500Y016168D01*
X033037Y015224D02*
X033500Y015224D01*
X033037Y015119D02*
X033500Y015119D01*
X033037Y015433D02*
X033500Y015433D01*
X033037Y015329D02*
X033500Y015329D01*
X032888Y016693D02*
X033500Y016693D01*
X032906Y016588D02*
X033500Y016588D01*
X032692Y016903D02*
X033500Y016903D01*
X032790Y016798D02*
X033500Y016798D01*
X032906Y016483D02*
X033500Y016483D01*
X033037Y015643D02*
X033500Y015643D01*
X033037Y015538D02*
X033500Y015538D01*
X032906Y016378D02*
X033500Y016378D01*
X033037Y015748D02*
X033500Y015748D01*
X012582Y006094D02*
X012568Y006094D01*
X012582Y006094D02*
X012349Y006328D01*
X018159Y008159D02*
X018159Y009312D01*
X018159Y008159D02*
X019159Y008159D01*
X013084Y005599D02*
X013078Y005599D01*
X015141Y008236D02*
X014989Y008388D01*
X011327Y009262D02*
X011409Y009262D01*
X013084Y005599D02*
X013088Y005594D01*
X015141Y008236D02*
X015131Y008236D01*
X020238Y006549D02*
X020344Y006549D01*
X020182Y005594D02*
X019818Y005594D01*
X020238Y005526D02*
X020238Y005594D01*
X021262Y005526D02*
X020238Y005526D01*
X019818Y006406D02*
X020182Y006406D01*
X017057Y008112D02*
X016888Y007943D01*
X017057Y008112D02*
X017057Y008388D01*
X016612Y007943D02*
X016569Y007986D01*
X016888Y007943D02*
X016612Y007943D01*
X012922Y006901D02*
X013156Y006668D01*
X012844Y005838D02*
X013084Y005599D01*
X013078Y005599D02*
X012582Y006094D01*
X013422Y005599D02*
X013084Y005599D01*
X015624Y006406D02*
X013418Y006406D01*
X014986Y008381D02*
X014986Y008409D01*
X014989Y008388D02*
X014989Y008409D01*
X013088Y005594D02*
X015624Y005594D01*
X015131Y008236D02*
X014986Y008381D01*
X011409Y009262D02*
X011409Y009312D01*
X011512Y009159D02*
X011512Y008238D01*
X013156Y006668D02*
X013418Y006406D01*
X009498Y009173D02*
X010488Y009173D01*
X008350Y007400D02*
X007750Y008000D01*
X015624Y004500D02*
X011250Y004500D01*
X007750Y008000D02*
X007750Y009312D01*
X008350Y007400D02*
X008786Y007837D01*
X011250Y004500D02*
X010650Y005100D01*
X021939Y005854D02*
X022981Y005854D01*
X017036Y008409D02*
X017057Y008388D01*
X016703Y008557D02*
X016797Y008557D01*
X020182Y006406D02*
X019838Y006406D01*
X019818Y006406D02*
X015624Y006406D01*
X019341Y008159D02*
X020159Y008159D01*
X020159Y008159D02*
X020341Y008159D01*
X021341Y009236D02*
X022141Y009236D01*
X020341Y008159D02*
X020344Y008159D01*
X019159Y008159D02*
X019341Y008159D01*
X021262Y006094D02*
X022711Y006094D01*
X021262Y006094D02*
X021262Y005526D01*
X022981Y005854D02*
X022986Y005859D01*
X022981Y005854D02*
X022986Y005854D01*
X020344Y006549D02*
X020344Y006662D01*
X015703Y008514D02*
X015703Y009312D01*
X019818Y005594D02*
X020162Y005594D01*
X020344Y006549D02*
X020344Y006662D01*
X020344Y006549D02*
X020344Y006662D01*
X017703Y008409D02*
X017036Y008409D01*
X017703Y009312D02*
X017703Y008409D01*
X023498Y005625D02*
X023359Y005486D01*
X015624Y007986D02*
X016569Y007986D01*
X016703Y009312D02*
X016703Y008557D01*
X023159Y005146D02*
X021939Y005146D01*
X023159Y005146D02*
X023159Y005290D01*
X021939Y007354D02*
X022285Y007354D01*
X021939Y005146D02*
X021939Y005854D01*
X020162Y006406D02*
X019818Y006406D01*
X015624Y005594D02*
X019818Y005594D01*
X021341Y009236D02*
X021341Y008159D01*
X023498Y004500D02*
X015624Y004500D01*
X019838Y005594D02*
X020182Y005594D01*
X023369Y005486D02*
X023359Y005486D01*
X023498Y005616D02*
X023369Y005486D01*
X020344Y006662D02*
X020344Y006549D01*
X022711Y006094D02*
X022763Y006146D01*
X031628Y014002D02*
X031628Y013805D01*
X033500Y014000D02*
X033500Y009312D01*
X031656Y009953D02*
X031703Y009953D01*
X031628Y014002D02*
X033037Y014002D01*
X031888Y012011D02*
X032112Y012011D01*
X032370Y011762D02*
X032370Y011549D01*
X032225Y011907D02*
X032264Y011869D01*
X032367Y011756D02*
X032367Y011549D01*
X032112Y012011D02*
X032216Y011907D01*
X032212Y011907D02*
X032106Y012014D01*
X032106Y012014D02*
X032119Y012014D01*
X031881Y012014D02*
X031762Y012014D01*
X032212Y011907D02*
X032225Y011907D01*
X032433Y010407D02*
X032461Y010407D01*
X031656Y010547D02*
X031703Y010547D01*
X031780Y010093D02*
X031780Y010407D01*
X032433Y010407D02*
X032433Y010093D01*
X031656Y010547D02*
X031656Y009953D01*
X032461Y010093D02*
X032461Y009312D01*
X031752Y010093D02*
X031780Y010093D01*
X031372Y011453D02*
X031703Y011453D01*
X031752Y009312D02*
X031752Y010093D01*
X031752Y010407D02*
X031752Y011486D01*
X031703Y009312D02*
X031703Y009953D01*
X031628Y013805D02*
X031372Y013805D01*
X031752Y010407D02*
X031780Y010407D01*
X032461Y010407D02*
X032461Y011549D01*
X031881Y012014D02*
X032106Y012014D01*
X032106Y012014D02*
X031881Y012014D01*
X032264Y011869D02*
X032264Y011856D01*
X032119Y012014D02*
X032225Y011907D01*
X032264Y011856D02*
X032212Y011907D01*
X031372Y013012D02*
X031762Y013012D01*
X031703Y011453D02*
X031703Y010547D01*
X031372Y011486D02*
X031752Y011486D01*
X031762Y013012D02*
X031762Y012014D01*
X032225Y011907D02*
X032264Y011869D01*
X012344Y006682D02*
X012568Y006906D01*
X012344Y006318D02*
X012344Y006682D01*
X012932Y006906D02*
X013156Y006682D01*
X012568Y006906D02*
X012932Y006906D01*
X014797Y008409D02*
X014989Y008409D01*
X014703Y009312D02*
X014703Y008409D01*
X008789Y008951D02*
X008789Y009312D01*
X013797Y008409D02*
X013797Y009312D01*
X013797Y008409D02*
X014703Y008409D01*
X015624Y008001D02*
X015612Y007989D01*
X015236Y008144D02*
X015394Y007986D01*
X015388Y007989D02*
X015141Y008236D01*
X015612Y007989D02*
X015388Y007989D01*
X015394Y007986D02*
X015624Y007986D01*
X012568Y006094D02*
X012344Y006318D01*
X013156Y006682D02*
X013156Y006668D01*
X011323Y009312D02*
X011323Y009262D01*
X011327Y009312D02*
X011327Y009262D01*
X032433Y010093D02*
X032461Y010093D01*
X031628Y014000D02*
X033500Y014000D01*
X010214Y007837D02*
X011087Y006964D01*
X008786Y007837D02*
X010214Y007837D01*
X032367Y011549D02*
X032367Y011532D01*
X032264Y011859D02*
X032367Y011756D01*
X032264Y011869D02*
X032370Y011762D01*
X032216Y011907D02*
X032264Y011859D01*
X032370Y011549D02*
X032461Y011549D01*
X010488Y008238D02*
X010488Y009173D01*
X011512Y008238D02*
X010488Y008238D01*
X009498Y008951D02*
X008789Y008951D01*
X009498Y008951D02*
X009498Y009173D01*
X014797Y008409D02*
X014797Y009312D01*
X011087Y005536D02*
X010650Y005100D01*
X011087Y006964D02*
X011087Y005536D01*
X012591Y009159D02*
X011512Y009159D01*
X012591Y009159D02*
X012591Y009312D01*
X027918Y007594D02*
X027729Y007406D01*
X025777Y007406D02*
X025771Y007406D01*
X028094Y007771D02*
X027918Y007594D01*
X027918Y007594D02*
X027906Y007594D01*
X027344Y008156D02*
X027344Y008168D01*
X027332Y008156D02*
X026168Y008156D01*
X025771Y007406D02*
X024789Y007406D01*
X027344Y008156D02*
X027332Y008156D01*
X027332Y008156D02*
X027344Y008168D01*
X028318Y006594D02*
X028338Y006594D01*
X028662Y006594D02*
X028682Y006594D01*
X029416Y006599D02*
X029078Y006599D01*
X029416Y006599D02*
X029656Y006838D01*
X028662Y006594D02*
X028338Y006594D01*
X028094Y007756D02*
X028094Y007771D01*
X028094Y007756D02*
X027932Y007594D01*
X028662Y006594D02*
X028338Y006594D01*
X029413Y007736D02*
X029431Y007736D01*
X024077Y006885D02*
X024135Y006827D01*
X025561Y006354D02*
X025561Y006594D01*
X023514Y006512D02*
X023514Y005631D01*
X023514Y006512D02*
X023498Y006528D01*
X024341Y006854D02*
X024341Y007354D01*
X027012Y006594D02*
X027012Y005776D01*
X027344Y009238D02*
X027238Y009238D01*
X025561Y006146D02*
X025561Y006354D01*
X027012Y006594D02*
X028318Y006594D01*
X025594Y007594D02*
X025582Y007594D01*
X025582Y007594D02*
X025349Y007828D01*
X025771Y007406D02*
X025582Y007594D01*
X025594Y007594D02*
X025594Y007588D01*
X025582Y007594D02*
X025568Y007594D01*
X024261Y005673D02*
X024182Y005594D01*
X024261Y005673D02*
X024341Y005673D01*
X025344Y008159D02*
X025349Y008159D01*
X025561Y006594D02*
X025988Y006594D01*
X029082Y007406D02*
X028906Y007406D01*
X031703Y009047D02*
X031703Y009312D01*
X032464Y007837D02*
X032900Y007400D01*
X031752Y008951D02*
X032461Y008951D01*
X032461Y009312D02*
X032461Y008951D01*
X031372Y007837D02*
X032464Y007837D01*
X028682Y006594D02*
X029412Y006594D01*
X027729Y007406D02*
X027723Y007406D01*
X028094Y007406D02*
X028094Y007756D01*
X028094Y007406D02*
X027729Y007406D01*
X033500Y009312D02*
X033500Y008000D01*
X031432Y008594D02*
X031418Y008594D01*
X031651Y009047D02*
X031656Y009047D01*
X033500Y008000D02*
X032900Y007400D01*
X031656Y008818D02*
X031432Y008594D01*
X031651Y008828D02*
X031418Y008594D01*
X031752Y008951D02*
X031752Y009312D01*
X031432Y008594D02*
X031418Y008594D01*
X031656Y008818D02*
X031432Y008594D01*
X023514Y006524D02*
X023514Y006512D01*
X023514Y006524D02*
X023498Y006540D01*
X023615Y006423D02*
X023603Y006423D01*
X023615Y006423D02*
X023514Y006524D01*
X028906Y008159D02*
X028906Y007406D01*
X028338Y006594D02*
X028318Y006594D01*
X029082Y007406D02*
X029369Y007693D01*
X028338Y006594D02*
X028662Y006594D01*
X028338Y006594D02*
X028318Y006594D01*
X026164Y008159D02*
X026341Y008159D01*
X026164Y008159D02*
X026168Y008156D01*
X027344Y008168D02*
X027344Y009238D01*
X027723Y007406D02*
X027906Y007588D01*
X026168Y008156D02*
X026156Y008156D01*
X024341Y006827D02*
X024341Y006854D01*
X024341Y006827D02*
X024135Y006827D01*
X026156Y008159D02*
X026164Y008159D01*
X026156Y008159D02*
X026156Y008156D01*
X023818Y005594D02*
X024182Y005594D01*
X023594Y006182D02*
X023727Y006315D01*
X028943Y007862D02*
X028943Y008138D01*
X023818Y005594D02*
X023594Y005818D01*
X023594Y005818D02*
X023594Y006182D01*
X021939Y006906D02*
X021939Y007354D01*
X022986Y005859D02*
X022986Y006146D01*
X026341Y009312D02*
X026341Y008159D01*
X021939Y006906D02*
X021156Y006906D01*
X027238Y009238D02*
X027238Y009312D01*
X031036Y007837D02*
X031372Y007837D01*
X025988Y005776D02*
X025988Y006594D01*
X027012Y005776D02*
X025988Y005776D01*
X030163Y006964D02*
X031036Y007837D01*
X029388Y007693D02*
X029369Y007693D01*
X028943Y008138D02*
X028964Y008159D01*
X030163Y005536D02*
X030163Y006964D01*
X029112Y007693D02*
X028943Y007862D01*
X023359Y005486D02*
X023159Y005286D01*
X022285Y009091D02*
X022141Y009236D01*
X021156Y008159D02*
X021341Y008159D01*
X021156Y008159D02*
X021156Y006906D01*
X015797Y008514D02*
X015703Y008514D01*
X022763Y006146D02*
X022986Y006146D01*
X023159Y005290D02*
X023264Y005394D01*
X015797Y008514D02*
X015797Y009312D01*
X022285Y007354D02*
X022285Y009091D01*
X020238Y006406D02*
X020238Y006549D01*
X020238Y006406D02*
X020182Y006406D01*
X022986Y005854D02*
X022986Y005859D01*
X016797Y008557D02*
X016797Y009312D01*
X020182Y005594D02*
X020238Y005594D01*
X020344Y006662D02*
X020344Y006682D01*
X020344Y006662D02*
X020344Y006682D01*
X020344Y006682D02*
X020344Y008159D01*
X020344Y006662D02*
X020344Y006682D01*
X024341Y007354D02*
X024737Y007354D01*
X024159Y008159D02*
X024341Y008159D01*
X025159Y008159D02*
X025341Y008159D01*
X024077Y008159D02*
X024077Y006885D01*
X024077Y008159D02*
X024159Y008159D01*
X030000Y004500D02*
X023498Y004500D01*
X029412Y006594D02*
X029416Y006599D01*
X028338Y006594D02*
X028662Y006594D01*
X029422Y006599D02*
X029416Y006599D01*
X031372Y008549D02*
X029422Y006599D01*
X029369Y007693D02*
X029413Y007736D01*
X029369Y007693D02*
X029112Y007693D01*
X030600Y005100D02*
X030000Y004500D01*
X030600Y005100D02*
X030163Y005536D01*
X029431Y007736D02*
X029388Y007693D01*
X024341Y008159D02*
X025159Y008159D01*
X025341Y008159D02*
X025344Y008159D01*
X023725Y006313D02*
X023615Y006423D01*
X028964Y008159D02*
X028906Y008159D01*
X023514Y005631D02*
X023498Y005616D01*
X023511Y005638D02*
X023498Y005625D01*
X023603Y006423D02*
X023514Y006512D01*
X023673Y006369D02*
X023727Y006315D01*
X023511Y005862D02*
X023511Y005638D01*
X024341Y005646D02*
X024341Y005673D01*
X025561Y005646D02*
X025561Y006146D01*
X023498Y005875D02*
X023511Y005862D01*
X025561Y005646D02*
X024341Y005646D01*
X027932Y007594D02*
X027918Y007594D01*
X025594Y007588D02*
X025777Y007406D01*
X028682Y006594D02*
X028662Y006594D01*
X028682Y006594D02*
X028662Y006594D01*
X027906Y007588D02*
X027906Y007594D01*
X025344Y007818D02*
X025344Y008159D01*
X024789Y007406D02*
X024737Y007354D01*
X025349Y007828D02*
X025349Y008159D01*
X025568Y007594D02*
X025344Y007818D01*
X024906Y011082D02*
X024906Y010318D01*
X018418Y013844D02*
X018156Y013582D01*
X018656Y014082D02*
X018422Y013849D01*
X020488Y010656D02*
X018418Y010656D01*
X020488Y010656D02*
X020488Y011012D01*
X018656Y014082D02*
X018656Y014068D01*
X022906Y012568D02*
X022906Y012386D01*
X020714Y009341D02*
X020693Y009362D01*
X022094Y010994D02*
X022094Y012488D01*
X021424Y011012D02*
X021568Y011156D01*
X015703Y009547D02*
X015703Y009591D01*
X022262Y013406D02*
X022262Y013401D01*
X016986Y009591D02*
X016986Y010641D01*
X015703Y009591D02*
X015703Y010453D01*
X022988Y013651D02*
X022988Y013656D01*
X023062Y012738D02*
X022906Y012582D01*
X022906Y012386D02*
X023498Y012386D01*
X022988Y013656D02*
X022838Y013656D01*
X022988Y013656D02*
X022988Y013762D01*
X017568Y010344D02*
X017514Y010398D01*
X017349Y013578D02*
X017349Y013922D01*
X020159Y009341D02*
X020341Y009341D01*
X015624Y012594D02*
X017238Y012594D01*
X018651Y014078D02*
X018418Y013844D01*
X018698Y014125D02*
X018656Y014082D01*
X018078Y009849D02*
X017582Y010344D01*
X017349Y013922D02*
X017551Y014125D01*
X017344Y013932D02*
X017537Y014125D01*
X017057Y011316D02*
X017344Y011029D01*
X023261Y009341D02*
X023261Y009312D01*
X020943Y009807D02*
X020943Y009844D01*
X016684Y010943D02*
X016612Y010943D01*
X023264Y009341D02*
X023264Y009312D01*
X020341Y009341D02*
X020714Y009341D01*
X019159Y009341D02*
X019341Y009341D01*
X023264Y009341D02*
X023498Y009341D01*
X019341Y009341D02*
X020159Y009341D01*
X017344Y013512D02*
X017344Y013932D01*
X017582Y010344D02*
X017568Y010344D01*
X017582Y010344D02*
X017514Y010413D01*
X017344Y011029D02*
X017359Y011014D01*
X017514Y010398D02*
X017514Y009591D01*
X018156Y010918D02*
X018418Y010656D01*
X020818Y009844D02*
X020838Y009844D01*
X022262Y013401D02*
X022416Y013401D01*
X018084Y009849D02*
X018078Y009849D01*
X018084Y009849D02*
X018088Y009844D01*
X018156Y013582D02*
X018156Y013512D01*
X022906Y012582D02*
X022906Y012568D01*
X017514Y009591D02*
X017703Y009591D01*
X022906Y012582D02*
X022906Y012568D01*
X022497Y013321D02*
X022416Y013401D01*
X020943Y009844D02*
X020838Y009844D01*
X017344Y011029D02*
X017344Y011238D01*
X022497Y013321D02*
X022500Y013323D01*
X020943Y009844D02*
X020838Y009844D01*
X023109Y009514D02*
X023261Y009362D01*
X023109Y009514D02*
X023119Y009514D01*
X022779Y009844D02*
X023498Y009844D01*
X022779Y009844D02*
X023109Y009514D01*
X018156Y011238D02*
X018156Y010918D01*
X018156Y012488D02*
X018156Y012262D01*
X017344Y012488D02*
X017238Y012488D01*
X017344Y011238D02*
X017238Y011238D01*
X017344Y012262D02*
X017344Y012488D01*
X022834Y013651D02*
X022594Y013412D01*
X022764Y009844D02*
X022779Y009844D01*
X022500Y013323D02*
X022828Y013651D01*
X022834Y013651D02*
X022988Y013651D01*
X022764Y009844D02*
X022764Y009856D01*
X017344Y011014D02*
X017344Y011029D01*
X017344Y011014D02*
X017359Y011014D01*
X016986Y010641D02*
X016684Y010943D01*
X017514Y010413D02*
X017514Y010398D01*
X016888Y011557D02*
X017057Y011388D01*
X016612Y011557D02*
X016888Y011557D01*
X016612Y010943D02*
X016443Y011112D01*
X017057Y011388D02*
X017057Y011316D01*
X016443Y011388D02*
X016612Y011557D01*
X018159Y009341D02*
X019159Y009341D01*
X014656Y012594D02*
X015624Y012594D01*
X016443Y011112D02*
X016443Y011388D01*
X018159Y009312D02*
X018159Y009341D01*
X018432Y013844D02*
X018418Y013844D01*
X018656Y014068D02*
X018432Y013844D01*
X022988Y013762D02*
X023498Y013762D01*
X020488Y011012D02*
X021424Y011012D01*
X021932Y011156D02*
X022094Y010994D01*
X020693Y009638D02*
X020862Y009807D01*
X020693Y009362D02*
X020693Y009638D01*
X021568Y011156D02*
X021932Y011156D01*
X020862Y009807D02*
X020943Y009807D01*
X009431Y010093D02*
X009498Y010093D01*
X009917Y011266D02*
X009498Y011266D01*
X008943Y011575D02*
X008943Y011638D01*
X008856Y010407D02*
X008789Y010407D01*
X009917Y011266D02*
X009917Y011453D01*
X012609Y010514D02*
X012591Y010514D01*
X009498Y010691D02*
X009917Y010691D01*
X010594Y011453D02*
X010594Y011797D01*
X015537Y010453D02*
X015624Y010453D01*
X010918Y013406D02*
X010932Y013406D01*
X010918Y013406D02*
X010932Y013406D01*
X014656Y012594D02*
X014656Y010453D01*
X010918Y013406D02*
X010932Y013406D01*
X010918Y013406D02*
X010906Y013406D01*
X010906Y013406D02*
X010918Y013406D01*
X010906Y013406D02*
X010918Y013406D01*
X010918Y013406D02*
X010906Y013406D01*
X010906Y013406D02*
X010918Y013406D01*
X023498Y012738D02*
X023062Y012738D01*
X017238Y011238D02*
X017238Y012262D01*
X018262Y011238D02*
X018156Y011238D01*
X023264Y009369D02*
X023264Y009341D01*
X023119Y009514D02*
X023264Y009369D01*
X018262Y012262D02*
X018262Y011238D01*
X018262Y012488D02*
X018156Y012488D01*
X018262Y012488D02*
X018262Y013512D01*
X017238Y012262D02*
X017344Y012262D01*
X017238Y012488D02*
X017238Y012594D01*
X018088Y009844D02*
X020818Y009844D01*
X020838Y009844D02*
X020943Y009844D01*
X018422Y009849D02*
X018084Y009849D01*
X017844Y010088D02*
X018084Y009849D01*
X022422Y013401D02*
X022500Y013323D01*
X022838Y013656D02*
X022834Y013651D01*
X023261Y009362D02*
X023261Y009341D01*
X022412Y013406D02*
X022262Y013406D01*
X022828Y013651D02*
X022834Y013651D01*
X015762Y010488D02*
X015624Y010488D01*
X015762Y011512D02*
X015762Y010488D01*
X015624Y009547D02*
X015703Y009547D01*
X015624Y010453D02*
X015703Y010453D01*
X015624Y011512D02*
X015762Y011512D01*
X022262Y013512D02*
X022262Y013406D01*
X021238Y013512D02*
X022262Y013512D01*
X021238Y012488D02*
X021238Y013512D01*
X021238Y012488D02*
X022094Y012488D01*
X017703Y009591D02*
X017703Y009312D01*
X016797Y009591D02*
X016986Y009591D01*
X017238Y013512D02*
X017344Y013512D01*
X016797Y009312D02*
X016797Y009591D01*
X015797Y009312D02*
X015797Y009591D01*
X015624Y009591D02*
X015703Y009591D01*
X015703Y009312D02*
X015703Y009547D01*
X016703Y009591D02*
X016703Y009312D01*
X015797Y009591D02*
X016703Y009591D01*
X025930Y012874D02*
X025944Y012860D01*
X025930Y012874D02*
X025910Y012874D01*
X029887Y012874D02*
X028727Y012874D01*
X029887Y012874D02*
X030707Y013694D01*
X025194Y013610D02*
X025930Y012874D01*
X025174Y013610D02*
X025125Y013610D01*
X030738Y012014D02*
X030394Y012014D01*
X025194Y013610D02*
X025174Y013610D01*
X025174Y013610D02*
X024660Y014125D01*
X026699Y011000D02*
X026699Y011028D01*
X027572Y010996D02*
X027578Y010996D01*
X027918Y010656D02*
X028094Y010479D01*
X028094Y010479D02*
X028094Y010494D01*
X027572Y010996D02*
X027568Y011000D01*
X028656Y011656D02*
X028668Y011656D01*
X028656Y011656D02*
X028656Y011662D01*
X028416Y011901D02*
X028422Y011901D01*
X028416Y011901D02*
X028412Y011906D01*
X024219Y011542D02*
X024332Y011656D01*
X026699Y010189D02*
X027238Y010189D01*
X024219Y011556D02*
X024318Y011656D01*
X024219Y011556D02*
X024219Y011542D01*
X028901Y011341D02*
X028906Y011341D01*
X025341Y009341D02*
X026341Y009341D01*
X024159Y009341D02*
X024341Y009341D01*
X028906Y011341D02*
X029739Y011341D01*
X024341Y009341D02*
X025159Y009341D01*
X030264Y010547D02*
X030797Y010547D01*
X030797Y010547D02*
X030844Y010547D01*
X030738Y012014D02*
X030738Y013012D01*
X030264Y010547D02*
X030264Y009953D01*
X031073Y011453D02*
X031372Y011453D01*
X026699Y011094D02*
X028082Y011094D01*
X026699Y011094D02*
X026699Y011067D01*
X030264Y009953D02*
X030797Y009953D01*
X030797Y009953D02*
X030844Y009953D01*
X027918Y010656D02*
X027932Y010656D01*
X031131Y011486D02*
X031144Y011486D01*
X031356Y011486D02*
X031144Y011486D01*
X031356Y011486D02*
X031144Y011486D01*
X031356Y011486D02*
X031144Y011486D01*
X029739Y011341D02*
X029739Y011362D01*
X028094Y011082D02*
X028094Y011094D01*
X028094Y011082D02*
X028082Y011094D01*
X029891Y011514D02*
X030388Y012011D01*
X030844Y009953D02*
X030844Y010547D01*
X031144Y011486D02*
X031356Y011486D01*
X031144Y011486D02*
X031131Y011486D01*
X031144Y011486D02*
X031131Y011486D01*
X031144Y011486D02*
X031131Y011486D01*
X031057Y011486D02*
X031131Y011486D01*
X029736Y011341D02*
X029736Y011369D01*
X031356Y011486D02*
X031372Y011486D01*
X031057Y011486D02*
X031057Y011453D01*
X031057Y011453D02*
X031073Y011453D01*
X025281Y011906D02*
X025281Y011933D01*
X025281Y011906D02*
X024588Y011906D01*
X024584Y011901D02*
X024922Y011901D01*
X024584Y011901D02*
X024344Y011662D01*
X024906Y011094D02*
X024906Y011082D01*
X024918Y011094D02*
X025281Y011094D01*
X028094Y010494D02*
X028094Y011082D01*
X024906Y011094D02*
X024918Y011094D01*
X024918Y011094D02*
X024906Y011082D01*
X028668Y011656D02*
X028901Y011422D01*
X024416Y009849D02*
X024656Y010088D01*
X028082Y011094D02*
X028094Y011094D01*
X028668Y011656D02*
X028682Y011656D01*
X024416Y009849D02*
X024078Y009849D01*
X024332Y011656D02*
X024578Y011901D01*
X024332Y011656D02*
X024344Y011656D01*
X024668Y010094D02*
X024422Y009849D01*
X024668Y010094D02*
X024656Y010094D01*
X024012Y013762D02*
X024012Y012738D01*
X023498Y013762D02*
X024012Y013762D01*
X030738Y013012D02*
X031372Y013012D01*
X024012Y012738D02*
X023498Y012738D01*
X025281Y011067D02*
X025281Y011094D01*
X025281Y011933D02*
X026699Y011933D01*
X024219Y012386D02*
X024219Y011556D01*
X026699Y011067D02*
X025281Y011067D01*
X026699Y011933D02*
X026699Y011906D01*
X029907Y012874D02*
X029887Y012874D01*
X025110Y013694D02*
X025194Y013610D01*
X028412Y011906D02*
X026699Y011906D01*
X028656Y011662D02*
X028416Y011901D01*
X029873Y012860D02*
X029887Y012874D01*
X027090Y012874D02*
X025930Y012874D01*
X025125Y013610D02*
X024610Y014125D01*
X025944Y012860D02*
X029873Y012860D01*
X025910Y012874D02*
X025174Y013610D01*
X020838Y009844D02*
X020818Y009844D01*
X020838Y009844D02*
X020943Y009844D01*
X018156Y013512D02*
X018262Y013512D01*
X020838Y009844D02*
X020818Y009844D01*
X022416Y013401D02*
X022412Y013406D01*
X017238Y013406D02*
X017238Y013512D01*
X018156Y012262D02*
X018262Y012262D01*
X022416Y013401D02*
X022422Y013401D01*
X017238Y013406D02*
X015624Y013406D01*
X026699Y010161D02*
X025281Y010161D01*
X026699Y010161D02*
X026699Y010189D01*
X023498Y012386D02*
X024219Y012386D01*
X025281Y010161D02*
X025281Y011028D01*
X025281Y011028D02*
X026699Y011028D01*
X023498Y009341D02*
X024159Y009341D01*
X031372Y013805D02*
X030837Y013805D01*
X027238Y009312D02*
X027238Y010189D01*
X026341Y009341D02*
X026341Y009312D01*
X027811Y010757D02*
X027572Y010996D01*
X030388Y012011D02*
X030612Y012011D01*
X029739Y011362D02*
X029891Y011514D01*
X031369Y011486D02*
X031356Y011486D01*
X031372Y011490D02*
X031369Y011486D01*
X029881Y011514D02*
X029891Y011514D01*
X024412Y009844D02*
X024416Y009849D01*
X023498Y009844D02*
X024412Y009844D01*
X029736Y011369D02*
X029881Y011514D01*
X024656Y010088D02*
X024656Y010094D01*
X031144Y011486D02*
X031356Y011486D01*
X031369Y011486D02*
X031356Y011486D01*
X025159Y009341D02*
X025341Y009341D01*
X030837Y013805D02*
X029907Y012874D01*
X031372Y011490D02*
X031369Y011486D01*
X031369Y011486D02*
X031356Y011486D01*
X031372Y011490D02*
X031369Y011486D01*
X030394Y012014D02*
X030236Y011856D01*
X031356Y011486D02*
X031372Y011503D01*
X024578Y011901D02*
X024584Y011901D01*
X024344Y011662D02*
X024344Y011656D01*
X024906Y010318D02*
X024682Y010094D01*
X024318Y011656D02*
X024332Y011656D01*
X024588Y011906D02*
X024584Y011901D01*
X027578Y010996D02*
X027918Y010656D01*
X027568Y011000D02*
X026699Y011000D01*
X027932Y010656D02*
X028094Y010494D01*
X027233Y010996D02*
X027572Y010996D01*
X028422Y011901D02*
X028668Y011656D01*
X028906Y011432D02*
X028906Y011341D01*
X028078Y011901D02*
X028416Y011901D01*
X028901Y011422D02*
X028901Y011341D01*
X028682Y011656D02*
X028906Y011432D01*
X024901Y010672D02*
X024901Y010328D01*
X024682Y010094D02*
X024668Y010094D01*
X024422Y009849D02*
X024416Y009849D01*
X024901Y010328D02*
X024668Y010094D01*
X031651Y009047D02*
X031651Y008828D01*
X011327Y009370D02*
X011409Y009370D01*
X011248Y009475D02*
X011409Y009475D01*
X011026Y009685D02*
X011409Y009685D01*
X010927Y009790D02*
X011409Y009790D01*
X011151Y009580D02*
X011409Y009580D01*
X010906Y013464D02*
X017238Y013464D01*
X010906Y013569D02*
X017344Y013569D01*
X009094Y011994D02*
X009098Y011994D01*
X008995Y012099D02*
X009002Y012099D01*
X014703Y009475D02*
X014797Y009475D01*
X009498Y011260D02*
X009917Y011260D01*
X011453Y012519D02*
X013844Y012519D01*
X014703Y009370D02*
X014797Y009370D01*
X012591Y011155D02*
X013844Y011155D01*
X010922Y009790D02*
X010927Y009790D01*
X011125Y009580D02*
X011139Y009580D01*
X012591Y011260D02*
X013844Y011260D01*
X011019Y009685D02*
X011026Y009685D01*
X009512Y011680D02*
X010594Y011680D01*
X009416Y011784D02*
X010594Y011784D01*
X009557Y011470D02*
X010594Y011470D01*
X009557Y011575D02*
X010594Y011575D01*
X012591Y009370D02*
X013797Y009370D01*
X012591Y009685D02*
X013844Y009685D01*
X012591Y009790D02*
X013844Y009790D01*
X012591Y009475D02*
X013797Y009475D01*
X012591Y009580D02*
X013797Y009580D01*
X010906Y013884D02*
X017344Y013884D01*
X010906Y013989D02*
X017404Y013989D01*
X010906Y013674D02*
X017344Y013674D01*
X010906Y013779D02*
X017344Y013779D01*
X010906Y014094D02*
X017501Y014094D01*
X009553Y011365D02*
X009557Y011365D01*
X009557Y011365D02*
X009917Y011365D01*
X009307Y012624D02*
X009443Y012624D01*
X009217Y012729D02*
X009443Y012729D01*
X011453Y012414D02*
X013844Y012414D01*
X012591Y011470D02*
X013844Y011470D01*
X012591Y011575D02*
X013844Y011575D01*
X009498Y010525D02*
X011409Y010525D01*
X009498Y010630D02*
X009917Y010630D01*
X012591Y011680D02*
X013844Y011680D01*
X012591Y012099D02*
X013844Y012099D01*
X012591Y011889D02*
X013844Y011889D01*
X012591Y011784D02*
X013844Y011784D01*
X012591Y011994D02*
X013844Y011994D01*
X014656Y011365D02*
X014738Y011365D01*
X014656Y011470D02*
X014738Y011470D01*
X014656Y012414D02*
X017344Y012414D01*
X014656Y012519D02*
X017238Y012519D01*
X014656Y011575D02*
X017238Y011575D01*
X014656Y010525D02*
X014738Y010525D01*
X009498Y010420D02*
X011409Y010420D01*
X014656Y011680D02*
X017238Y011680D01*
X014656Y011784D02*
X017238Y011784D01*
X011236Y009475D02*
X011248Y009475D01*
X009431Y010105D02*
X011409Y010105D01*
X012599Y010525D02*
X013582Y010525D01*
X011139Y009580D02*
X011151Y009580D01*
X009431Y010210D02*
X011409Y010210D01*
X009498Y009895D02*
X011409Y009895D01*
X009498Y010000D02*
X011409Y010000D01*
X009431Y010315D02*
X011409Y010315D01*
X008937Y011575D02*
X008943Y011575D01*
X012591Y011365D02*
X013844Y011365D01*
X012591Y010525D02*
X012599Y010525D01*
X012591Y012204D02*
X013844Y012204D01*
X012591Y012309D02*
X013844Y012309D01*
X012591Y010735D02*
X013844Y010735D01*
X012591Y011050D02*
X013844Y011050D01*
X012591Y010630D02*
X013844Y010630D01*
X012591Y010840D02*
X013844Y010840D01*
X012591Y010945D02*
X013844Y010945D01*
X024533Y014199D02*
X024582Y014199D01*
X024434Y014304D02*
X024483Y014304D01*
X007750Y014094D02*
X009486Y014094D01*
X024374Y014409D02*
X024383Y014409D01*
X024360Y014513D02*
X024374Y014513D01*
X024360Y014723D02*
X024374Y014723D01*
X024360Y014828D02*
X024374Y014828D01*
X024360Y014618D02*
X024374Y014618D01*
X024360Y014409D02*
X024374Y014409D01*
X007750Y013359D02*
X009486Y013359D01*
X007750Y013464D02*
X009486Y013464D01*
X007750Y013149D02*
X009486Y013149D01*
X007750Y013254D02*
X009486Y013254D01*
X007750Y013569D02*
X009486Y013569D01*
X007750Y013884D02*
X009486Y013884D01*
X007750Y013989D02*
X009486Y013989D01*
X007750Y013674D02*
X009486Y013674D01*
X007750Y013779D02*
X009486Y013779D01*
X017631Y014409D02*
X017828Y014409D01*
X017735Y014513D02*
X017927Y014513D01*
X018126Y014933D02*
X018151Y014933D01*
X018229Y015038D02*
X018255Y015038D01*
X017839Y014618D02*
X018026Y014618D01*
X018151Y014933D02*
X018359Y014933D01*
X018255Y015038D02*
X018461Y015038D01*
X017943Y014723D02*
X018155Y014723D01*
X018047Y014828D02*
X018257Y014828D01*
X024360Y015143D02*
X024374Y015143D01*
X024360Y015248D02*
X024374Y015248D01*
X024360Y014933D02*
X024374Y014933D01*
X024360Y015038D02*
X024374Y015038D01*
X017611Y014409D02*
X017631Y014409D01*
X017920Y014723D02*
X017943Y014723D01*
X018023Y014828D02*
X018047Y014828D01*
X017714Y014513D02*
X017735Y014513D01*
X017817Y014618D02*
X017839Y014618D01*
X007750Y013044D02*
X009486Y013044D01*
X007750Y010420D02*
X008789Y010420D01*
X007750Y010525D02*
X008789Y010525D01*
X007750Y010210D02*
X008856Y010210D01*
X007750Y010315D02*
X008856Y010315D01*
X007750Y010630D02*
X008789Y010630D01*
X007750Y010945D02*
X008789Y010945D01*
X007750Y011050D02*
X008789Y011050D01*
X007750Y010735D02*
X008789Y010735D01*
X007750Y010840D02*
X008789Y010840D01*
X007750Y009475D02*
X008789Y009475D01*
X007750Y009580D02*
X008789Y009580D01*
X012591Y009895D02*
X013844Y009895D01*
X007750Y009370D02*
X008789Y009370D01*
X007750Y009685D02*
X008789Y009685D01*
X007750Y010000D02*
X008789Y010000D01*
X007750Y010105D02*
X008856Y010105D01*
X007750Y009790D02*
X008789Y009790D01*
X007750Y009895D02*
X008789Y009895D01*
X007750Y012309D02*
X008748Y012309D01*
X007750Y012414D02*
X008693Y012414D01*
X007750Y012099D02*
X008995Y012099D01*
X007750Y012204D02*
X008844Y012204D01*
X007750Y012519D02*
X008693Y012519D01*
X007750Y012834D02*
X009443Y012834D01*
X007750Y012939D02*
X009486Y012939D01*
X007750Y012624D02*
X008693Y012624D01*
X007750Y012729D02*
X008783Y012729D01*
X007750Y011365D02*
X008789Y011365D01*
X007750Y011470D02*
X008789Y011470D01*
X007750Y011155D02*
X008789Y011155D01*
X007750Y011260D02*
X008789Y011260D01*
X007750Y011575D02*
X008937Y011575D01*
X007750Y011889D02*
X009917Y011889D01*
X007750Y011994D02*
X009094Y011994D01*
X007750Y011680D02*
X008988Y011680D01*
X007750Y011784D02*
X009084Y011784D01*
X023246Y009370D02*
X023255Y009370D01*
X023151Y009475D02*
X023160Y009475D01*
X022838Y009790D02*
X027238Y009790D01*
X023038Y009580D02*
X027238Y009580D01*
X018156Y011050D02*
X021465Y011050D01*
X018156Y012309D02*
X022094Y012309D01*
X018156Y012414D02*
X022094Y012414D01*
X018156Y011155D02*
X021560Y011155D01*
X018156Y010945D02*
X020488Y010945D01*
X017514Y010000D02*
X017923Y010000D01*
X017514Y010105D02*
X017822Y010105D01*
X017514Y010210D02*
X017720Y010210D01*
X017514Y010315D02*
X017618Y010315D01*
X018336Y010735D02*
X020488Y010735D01*
X022641Y013464D02*
X022650Y013464D01*
X022938Y009685D02*
X027238Y009685D01*
X018237Y010840D02*
X020488Y010840D01*
X022742Y013569D02*
X022749Y013569D01*
X015703Y009580D02*
X015797Y009580D01*
X023046Y012729D02*
X030738Y012729D01*
X015703Y010000D02*
X016986Y010000D01*
X015703Y010105D02*
X016986Y010105D01*
X022951Y012624D02*
X030738Y012624D01*
X021560Y011155D02*
X021940Y011155D01*
X022906Y012519D02*
X030738Y012519D01*
X018249Y013674D02*
X022988Y013674D01*
X018349Y013779D02*
X024953Y013779D01*
X017344Y013884D02*
X017349Y013884D01*
X015703Y009685D02*
X016986Y009685D01*
X017344Y013674D02*
X017349Y013674D01*
X017344Y013779D02*
X017349Y013779D01*
X015703Y009790D02*
X016986Y009790D01*
X015703Y010315D02*
X016986Y010315D01*
X015703Y010420D02*
X016986Y010420D01*
X015703Y009895D02*
X016986Y009895D01*
X015703Y010210D02*
X016986Y010210D01*
X017514Y009895D02*
X018025Y009895D01*
X024953Y013779D02*
X025003Y013779D01*
X024648Y014094D02*
X024698Y014094D01*
X025839Y012939D02*
X025859Y012939D01*
X025055Y013674D02*
X025105Y013674D01*
X024852Y013884D02*
X024901Y013884D01*
X024012Y013569D02*
X025223Y013569D01*
X024012Y013464D02*
X025325Y013464D01*
X024750Y013989D02*
X024799Y013989D01*
X024012Y013359D02*
X025428Y013359D01*
X028632Y011680D02*
X028638Y011680D01*
X028533Y011784D02*
X028539Y011784D01*
X027627Y010945D02*
X027634Y010945D01*
X028435Y011889D02*
X028441Y011889D01*
X025428Y013359D02*
X025448Y013359D01*
X025634Y013149D02*
X025653Y013149D01*
X025531Y013254D02*
X025551Y013254D01*
X025325Y013464D02*
X025345Y013464D01*
X025736Y013044D02*
X025756Y013044D01*
X024219Y011680D02*
X024362Y011680D01*
X024219Y011784D02*
X024461Y011784D01*
X024219Y012204D02*
X030738Y012204D01*
X024219Y011575D02*
X024241Y011575D01*
X024219Y012309D02*
X030738Y012309D01*
X017514Y009685D02*
X020743Y009685D01*
X017514Y009790D02*
X020839Y009790D01*
X018156Y013569D02*
X022742Y013569D01*
X022458Y013359D02*
X022464Y013359D01*
X024012Y013149D02*
X025634Y013149D01*
X024012Y013254D02*
X025531Y013254D01*
X024012Y013674D02*
X025055Y013674D01*
X024012Y013044D02*
X025736Y013044D01*
X024012Y012834D02*
X030738Y012834D01*
X024219Y012099D02*
X030738Y012099D01*
X024219Y011889D02*
X024559Y011889D01*
X024012Y012939D02*
X025839Y012939D01*
X024219Y011994D02*
X030364Y011994D01*
X015762Y010840D02*
X016789Y010840D01*
X015762Y010945D02*
X016603Y010945D01*
X015762Y010630D02*
X016986Y010630D01*
X015762Y010735D02*
X016889Y010735D01*
X015762Y011050D02*
X016507Y011050D01*
X022262Y013464D02*
X022641Y013464D01*
X018476Y013884D02*
X024852Y013884D01*
X015762Y011155D02*
X016443Y011155D01*
X015762Y011260D02*
X016443Y011260D01*
X016703Y009475D02*
X016797Y009475D01*
X016703Y009580D02*
X016797Y009580D01*
X017703Y009580D02*
X020693Y009580D01*
X016703Y009370D02*
X016797Y009370D01*
X015703Y009370D02*
X015797Y009370D01*
X015762Y011470D02*
X016525Y011470D01*
X015762Y010525D02*
X016986Y010525D01*
X015703Y009475D02*
X015797Y009475D01*
X015762Y011365D02*
X016443Y011365D01*
X014656Y010840D02*
X014738Y010840D01*
X014656Y010945D02*
X014738Y010945D01*
X014656Y012099D02*
X017238Y012099D01*
X014656Y010735D02*
X014738Y010735D01*
X014656Y011050D02*
X014738Y011050D01*
X014656Y012204D02*
X017238Y012204D01*
X014656Y012309D02*
X017344Y012309D01*
X014656Y011889D02*
X017238Y011889D01*
X014656Y010630D02*
X014738Y010630D01*
X021940Y011155D02*
X022094Y011155D01*
X016603Y010945D02*
X016690Y010945D01*
X018574Y013989D02*
X024750Y013989D01*
X022036Y011050D02*
X022094Y011050D01*
X017057Y011365D02*
X017238Y011365D01*
X014656Y011260D02*
X014738Y011260D01*
X014656Y011994D02*
X017238Y011994D01*
X016975Y011470D02*
X017238Y011470D01*
X014656Y011155D02*
X014738Y011155D01*
X017703Y009475D02*
X020693Y009475D01*
X022464Y013359D02*
X022541Y013359D01*
X023264Y009370D02*
X027238Y009370D01*
X018025Y009895D02*
X018033Y009895D01*
X017923Y010000D02*
X017934Y010000D01*
X023255Y009370D02*
X023264Y009370D01*
X018262Y011470D02*
X022094Y011470D01*
X018262Y011260D02*
X022094Y011260D01*
X023160Y009475D02*
X027238Y009475D01*
X018262Y011365D02*
X022094Y011365D01*
X017217Y011155D02*
X017344Y011155D01*
X017118Y011260D02*
X017238Y011260D01*
X022906Y012414D02*
X030738Y012414D01*
X017317Y011050D02*
X017344Y011050D01*
X018560Y013989D02*
X018574Y013989D01*
X017501Y014094D02*
X017515Y014094D01*
X018670Y014094D02*
X024648Y014094D01*
X018462Y013884D02*
X018476Y013884D01*
X017404Y013989D02*
X017418Y013989D01*
X018262Y013359D02*
X021238Y013359D01*
X018262Y012729D02*
X021238Y012729D01*
X018262Y013149D02*
X021238Y013149D01*
X018262Y013254D02*
X021238Y013254D01*
X018262Y012834D02*
X021238Y012834D01*
X018262Y012624D02*
X021238Y012624D01*
X017703Y009370D02*
X020693Y009370D01*
X018262Y013464D02*
X021238Y013464D01*
X018262Y012939D02*
X021238Y012939D01*
X018262Y011889D02*
X022094Y011889D01*
X018262Y012204D02*
X022094Y012204D01*
X018262Y011994D02*
X022094Y011994D01*
X018262Y012099D02*
X022094Y012099D01*
X018262Y011575D02*
X022094Y011575D01*
X018262Y012519D02*
X021238Y012519D01*
X018262Y013044D02*
X021238Y013044D01*
X018262Y011680D02*
X022094Y011680D01*
X018262Y011784D02*
X022094Y011784D01*
X018358Y015143D02*
X018562Y015143D01*
X010014Y022071D02*
X011409Y022071D01*
X010014Y022176D02*
X011409Y022176D01*
X010264Y021336D02*
X011409Y021336D01*
X010014Y021966D02*
X010095Y021966D01*
X010014Y022281D02*
X011409Y022281D01*
X010592Y020916D02*
X010606Y020916D01*
X010694Y021021D02*
X010704Y021021D01*
X010264Y020601D02*
X010269Y020601D01*
X010269Y020601D02*
X010281Y020601D01*
X010906Y019971D02*
X012750Y019971D01*
X010264Y020706D02*
X010389Y020706D01*
X010906Y019761D02*
X012750Y019761D01*
X010906Y019866D02*
X012750Y019866D01*
X010264Y020811D02*
X010490Y020811D01*
X010264Y021126D02*
X010796Y021126D01*
X010264Y021231D02*
X011409Y021231D01*
X010264Y020916D02*
X010592Y020916D01*
X010264Y021021D02*
X010694Y021021D01*
X012591Y022386D02*
X012835Y022386D01*
X012591Y022490D02*
X012835Y022490D01*
X012591Y022176D02*
X012835Y022176D01*
X012591Y022281D02*
X012835Y022281D01*
X012591Y022595D02*
X012835Y022595D01*
X012591Y023015D02*
X012835Y023015D01*
X012591Y022805D02*
X012835Y022805D01*
X012591Y022700D02*
X012835Y022700D01*
X012591Y022910D02*
X012835Y022910D01*
X011007Y020181D02*
X011409Y020181D01*
X011106Y020286D02*
X011409Y020286D01*
X010796Y021126D02*
X010802Y021126D01*
X010908Y020076D02*
X013000Y020076D01*
X010314Y021441D02*
X011409Y021441D01*
X010016Y022386D02*
X011409Y022386D01*
X010106Y022490D02*
X011409Y022490D01*
X009786Y022910D02*
X009793Y022910D01*
X009885Y023015D02*
X009889Y023015D01*
X010906Y019657D02*
X012750Y019657D01*
X007750Y017033D02*
X009486Y017033D01*
X007750Y017137D02*
X009486Y017137D01*
X007750Y016823D02*
X009486Y016823D01*
X007750Y016928D02*
X009486Y016928D01*
X007750Y017242D02*
X009486Y017242D01*
X007750Y017557D02*
X009486Y017557D01*
X007750Y017662D02*
X009486Y017662D01*
X007750Y017347D02*
X009486Y017347D01*
X007750Y017452D02*
X009486Y017452D01*
X007750Y016088D02*
X009486Y016088D01*
X007750Y016193D02*
X009486Y016193D01*
X007750Y015878D02*
X009486Y015878D01*
X007750Y015983D02*
X009486Y015983D01*
X007750Y016298D02*
X009486Y016298D01*
X007750Y016613D02*
X009486Y016613D01*
X007750Y016718D02*
X009486Y016718D01*
X007750Y016403D02*
X009486Y016403D01*
X007750Y016508D02*
X009486Y016508D01*
X007750Y018922D02*
X009486Y018922D01*
X010906Y019027D02*
X012622Y019027D01*
X007750Y018712D02*
X009486Y018712D01*
X007750Y018817D02*
X009486Y018817D01*
X010906Y019132D02*
X012622Y019132D01*
X010906Y019447D02*
X012622Y019447D01*
X010906Y019552D02*
X012622Y019552D01*
X010906Y019237D02*
X012622Y019237D01*
X010906Y019342D02*
X012622Y019342D01*
X007750Y017977D02*
X009486Y017977D01*
X007750Y018082D02*
X009486Y018082D01*
X007750Y017767D02*
X009486Y017767D01*
X007750Y017872D02*
X009486Y017872D01*
X007750Y018187D02*
X009486Y018187D01*
X007750Y018502D02*
X009486Y018502D01*
X007750Y018607D02*
X009486Y018607D01*
X007750Y018292D02*
X009486Y018292D01*
X007750Y018397D02*
X009486Y018397D01*
X007750Y021546D02*
X009486Y021546D01*
X007750Y021651D02*
X009486Y021651D01*
X007750Y021336D02*
X009486Y021336D01*
X007750Y021441D02*
X009486Y021441D01*
X007750Y021756D02*
X009486Y021756D01*
X007750Y022071D02*
X009486Y022071D01*
X007750Y022176D02*
X009486Y022176D01*
X007750Y021861D02*
X009486Y021861D01*
X007750Y021966D02*
X009486Y021966D01*
X007750Y020601D02*
X009486Y020601D01*
X007750Y020706D02*
X009486Y020706D01*
X007750Y020391D02*
X009486Y020391D01*
X007750Y020496D02*
X009486Y020496D01*
X007750Y020811D02*
X009486Y020811D01*
X007750Y021126D02*
X009486Y021126D01*
X007750Y021231D02*
X009486Y021231D01*
X007750Y020916D02*
X009486Y020916D01*
X007750Y021021D02*
X009486Y021021D01*
X007750Y023435D02*
X012835Y023435D01*
X007750Y023540D02*
X012835Y023540D01*
X007750Y023225D02*
X011409Y023225D01*
X007750Y023330D02*
X011409Y023330D01*
X007750Y023645D02*
X012835Y023645D01*
X031656Y009047D02*
X031656Y008818D01*
X031418Y008594D02*
X031372Y008549D01*
X031656Y009047D02*
X031656Y008818D01*
X031656Y009047D02*
X031703Y009047D01*
X007750Y022490D02*
X009489Y022490D01*
X007750Y022595D02*
X009489Y022595D01*
X007750Y022281D02*
X009486Y022281D01*
X007750Y022386D02*
X009489Y022386D01*
X007750Y022700D02*
X009567Y022700D01*
X007750Y023015D02*
X009885Y023015D01*
X007750Y023120D02*
X011409Y023120D01*
X007750Y022805D02*
X009687Y022805D01*
X007750Y022910D02*
X009786Y022910D01*
X007750Y020286D02*
X009486Y020286D01*
X012591Y021966D02*
X012835Y021966D01*
X009567Y022700D02*
X009576Y022700D01*
X012591Y021861D02*
X012835Y021861D01*
X012591Y022071D02*
X012835Y022071D01*
X009889Y023015D02*
X011409Y023015D01*
X012591Y020391D02*
X013000Y020391D01*
X012591Y020496D02*
X013000Y020496D01*
X012591Y020181D02*
X013000Y020181D01*
X012591Y020286D02*
X013000Y020286D01*
X012591Y023330D02*
X012835Y023330D01*
X012591Y021231D02*
X013000Y021231D01*
X012591Y023120D02*
X012835Y023120D01*
X012591Y023225D02*
X012835Y023225D01*
X012591Y021336D02*
X013000Y021336D01*
X012591Y021651D02*
X012835Y021651D01*
X012591Y021756D02*
X012835Y021756D01*
X012591Y021441D02*
X012835Y021441D01*
X012591Y021546D02*
X012835Y021546D01*
X007750Y019552D02*
X009486Y019552D01*
X007750Y019657D02*
X009486Y019657D01*
X007750Y019342D02*
X009486Y019342D01*
X007750Y019447D02*
X009486Y019447D01*
X007750Y019761D02*
X009486Y019761D01*
X007750Y020076D02*
X009486Y020076D01*
X007750Y020181D02*
X009486Y020181D01*
X007750Y019866D02*
X009486Y019866D01*
X007750Y019971D02*
X009486Y019971D01*
X012591Y020811D02*
X013000Y020811D01*
X012591Y020916D02*
X013000Y020916D01*
X012591Y020601D02*
X013000Y020601D01*
X012591Y020706D02*
X013000Y020706D01*
X012591Y021021D02*
X013000Y021021D01*
X007750Y019132D02*
X009486Y019132D01*
X007750Y019237D02*
X009486Y019237D01*
X012591Y021126D02*
X013000Y021126D01*
X007750Y019027D02*
X009486Y019027D01*
X013708Y014828D02*
X013728Y014828D01*
X013605Y014933D02*
X013625Y014933D01*
X013914Y014618D02*
X013933Y014618D01*
X013811Y014723D02*
X013831Y014723D01*
X012615Y015878D02*
X012664Y015878D01*
X013129Y015353D02*
X013178Y015353D01*
X013026Y015458D02*
X013075Y015458D01*
X013335Y015143D02*
X013384Y015143D01*
X013232Y015248D02*
X013281Y015248D01*
X011670Y016088D02*
X012610Y016088D01*
X010906Y014199D02*
X017630Y014199D01*
X011571Y016193D02*
X012610Y016193D01*
X011769Y015983D02*
X011774Y015983D01*
X010906Y014304D02*
X010940Y014304D01*
X014119Y014409D02*
X014139Y014409D01*
X014016Y014513D02*
X014036Y014513D01*
X011716Y015038D02*
X013503Y015038D01*
X011617Y015143D02*
X013335Y015143D01*
X012610Y017033D02*
X012622Y017033D01*
X012610Y017137D02*
X012622Y017137D01*
X012610Y016088D02*
X012624Y016088D01*
X012610Y016193D02*
X012624Y016193D01*
X012610Y017347D02*
X012622Y017347D01*
X012610Y017662D02*
X012622Y017662D01*
X012610Y017767D02*
X012622Y017767D01*
X012610Y017452D02*
X012622Y017452D01*
X012610Y017557D02*
X012622Y017557D01*
X012718Y015773D02*
X012767Y015773D01*
X012610Y018292D02*
X012622Y018292D01*
X012923Y015563D02*
X012973Y015563D01*
X012820Y015668D02*
X012870Y015668D01*
X012610Y018397D02*
X012622Y018397D01*
X012610Y018712D02*
X012622Y018712D01*
X012610Y018817D02*
X012622Y018817D01*
X012610Y018502D02*
X012622Y018502D01*
X012610Y018607D02*
X012622Y018607D01*
X011524Y017242D02*
X012610Y017242D01*
X018562Y015143D02*
X018569Y015143D01*
X022097Y015563D02*
X022437Y015563D01*
X018359Y014933D02*
X018372Y014933D01*
X018461Y015038D02*
X018470Y015038D01*
X022928Y015353D02*
X022948Y015353D01*
X021012Y014513D02*
X024360Y014513D01*
X021012Y014618D02*
X024360Y014618D01*
X022833Y015458D02*
X022853Y015458D01*
X019762Y015248D02*
X019988Y015248D01*
X018670Y015458D02*
X020094Y015458D01*
X018774Y015563D02*
X020094Y015563D01*
X018462Y015248D02*
X018738Y015248D01*
X018566Y015353D02*
X020094Y015353D01*
X018878Y015668D02*
X020094Y015668D01*
X019762Y014304D02*
X019988Y014304D01*
X020815Y015773D02*
X021895Y015773D01*
X018982Y015773D02*
X020185Y015773D01*
X018770Y014199D02*
X024533Y014199D01*
X020906Y015668D02*
X021996Y015668D01*
X017927Y014513D02*
X017942Y014513D01*
X020906Y015458D02*
X022833Y015458D01*
X020906Y015563D02*
X022097Y015563D01*
X018026Y014618D02*
X018040Y014618D01*
X011722Y017033D02*
X012610Y017033D01*
X011623Y017137D02*
X012610Y017137D01*
X013384Y015143D02*
X013410Y015143D01*
X011500Y017242D02*
X011509Y017242D01*
X021012Y014723D02*
X024360Y014723D01*
X021012Y014828D02*
X024360Y014828D01*
X021012Y014409D02*
X024360Y014409D01*
X021012Y014304D02*
X024434Y014304D01*
X021012Y014933D02*
X024360Y014933D01*
X021012Y015248D02*
X024360Y015248D01*
X020906Y015353D02*
X022928Y015353D01*
X021012Y015038D02*
X024360Y015038D01*
X021012Y015143D02*
X024360Y015143D01*
X011566Y014304D02*
X017729Y014304D01*
X011666Y014409D02*
X014119Y014409D01*
X011774Y015878D02*
X012610Y015878D01*
X011774Y015983D02*
X012610Y015983D01*
X011765Y014513D02*
X011774Y014513D01*
X011774Y014723D02*
X013811Y014723D01*
X011774Y014828D02*
X013708Y014828D01*
X011774Y014513D02*
X014016Y014513D01*
X011774Y014618D02*
X013914Y014618D01*
X011509Y017242D02*
X011524Y017242D01*
X011515Y015248D02*
X013232Y015248D01*
X011774Y016823D02*
X012610Y016823D01*
X011774Y016928D02*
X012610Y016928D01*
X011614Y015353D02*
X013129Y015353D01*
X011774Y015668D02*
X012820Y015668D01*
X011774Y015773D02*
X012718Y015773D01*
X011713Y015458D02*
X013026Y015458D01*
X011774Y015563D02*
X012923Y015563D01*
X007750Y015143D02*
X009486Y015143D01*
X007750Y015248D02*
X009486Y015248D01*
X007750Y014933D02*
X009486Y014933D01*
X007750Y015038D02*
X009486Y015038D01*
X007750Y015353D02*
X009486Y015353D01*
X007750Y015668D02*
X009486Y015668D01*
X007750Y015773D02*
X009486Y015773D01*
X007750Y015458D02*
X009486Y015458D01*
X007750Y015563D02*
X009486Y015563D01*
X007750Y014199D02*
X009486Y014199D01*
X007750Y014304D02*
X009486Y014304D01*
X011774Y014933D02*
X013605Y014933D01*
X011506Y015248D02*
X011515Y015248D01*
X007750Y014409D02*
X009486Y014409D01*
X007750Y014723D02*
X009486Y014723D01*
X007750Y014828D02*
X009486Y014828D01*
X007750Y014513D02*
X009486Y014513D01*
X007750Y014618D02*
X009486Y014618D01*
X011774Y016718D02*
X012610Y016718D01*
X012610Y017242D02*
X012622Y017242D01*
X012610Y015878D02*
X012615Y015878D01*
X012610Y016823D02*
X012624Y016823D01*
X012610Y016928D02*
X012622Y016928D01*
X012610Y015983D02*
X012624Y015983D01*
X010906Y018397D02*
X012610Y018397D01*
X010906Y018502D02*
X012610Y018502D01*
X010906Y018187D02*
X010932Y018187D01*
X010906Y018292D02*
X012610Y018292D01*
X012610Y018082D02*
X012622Y018082D01*
X012610Y018187D02*
X012622Y018187D01*
X012610Y017872D02*
X012622Y017872D01*
X012610Y017977D02*
X012622Y017977D01*
X012610Y016298D02*
X012624Y016298D01*
X012610Y016613D02*
X012624Y016613D01*
X012610Y016718D02*
X012624Y016718D01*
X012610Y016403D02*
X012624Y016403D01*
X012610Y016508D02*
X012624Y016508D01*
X011675Y018082D02*
X012610Y018082D01*
X011575Y018187D02*
X012610Y018187D01*
X011774Y017872D02*
X012610Y017872D01*
X011774Y017977D02*
X012610Y017977D01*
X011562Y016298D02*
X012610Y016298D01*
X011774Y016508D02*
X012610Y016508D01*
X011774Y016613D02*
X012610Y016613D01*
X011661Y016403D02*
X012610Y016403D01*
X011760Y016508D02*
X011774Y016508D01*
X010906Y018817D02*
X012610Y018817D01*
X010906Y018922D02*
X012622Y018922D01*
X010906Y018607D02*
X012610Y018607D01*
X010906Y018712D02*
X012610Y018712D01*
X011609Y017347D02*
X012610Y017347D01*
X011774Y017662D02*
X012610Y017662D01*
X011774Y017767D02*
X012610Y017767D01*
X011708Y017452D02*
X012610Y017452D01*
X011774Y017557D02*
X012610Y017557D01*
X016787Y030126D02*
X016787Y029319D01*
X015624Y029319D02*
X016787Y029319D01*
X017165Y022252D02*
X017165Y025732D01*
X021287Y030126D02*
X021287Y029319D01*
X016978Y029431D02*
X017110Y029431D01*
X022591Y026878D02*
X022261Y026878D01*
X015875Y028390D02*
X016640Y027625D01*
X021409Y028059D02*
X021739Y028059D01*
X022591Y026878D02*
X022591Y027207D01*
X012835Y024037D02*
X007879Y024037D01*
X012835Y024037D02*
X012835Y025732D01*
X015390Y028826D02*
X015624Y028591D01*
X013478Y026806D02*
X013424Y026860D01*
X013424Y026860D02*
X013375Y026860D01*
X021665Y022902D02*
X017335Y022902D01*
X017335Y022902D02*
X017335Y027069D01*
X013424Y026860D02*
X012624Y027660D01*
X021665Y022902D02*
X021665Y026878D01*
X020522Y029319D02*
X020522Y027232D01*
X020522Y029319D02*
X021287Y029319D01*
X017110Y029431D02*
X017122Y029431D01*
X017110Y029431D02*
X017110Y030126D01*
X016978Y027431D02*
X016978Y029431D01*
X021739Y028059D02*
X022648Y028968D01*
X022261Y026878D02*
X021665Y026878D01*
X016640Y027431D02*
X016978Y027431D01*
X017022Y027069D02*
X017022Y025732D01*
X016626Y027590D02*
X016626Y027431D01*
X021404Y027724D02*
X021409Y027730D01*
X016640Y027625D02*
X016640Y027431D01*
X015624Y028591D02*
X015826Y028390D01*
X023498Y028115D02*
X022591Y027207D01*
X017335Y027069D02*
X017022Y027069D01*
X017022Y025732D02*
X017165Y025732D01*
X017122Y029431D02*
X017122Y030126D01*
X020522Y027232D02*
X021409Y027232D01*
X007879Y024037D02*
X007750Y024037D01*
X028915Y034915D02*
X028915Y038000D01*
X028915Y034533D02*
X028915Y034915D01*
X024124Y034467D02*
X024124Y034478D01*
X023713Y034467D02*
X023739Y034467D01*
X024585Y032950D02*
X024124Y033410D01*
X033415Y030585D02*
X033415Y034585D01*
X033415Y030585D02*
X031372Y030585D01*
X023739Y034467D02*
X024110Y034467D01*
X023739Y034467D02*
X023498Y034226D01*
X030784Y034915D02*
X030163Y035536D01*
X028915Y030967D02*
X029085Y030967D01*
X030000Y038000D02*
X028915Y038000D01*
X030600Y037400D02*
X030000Y038000D01*
X024585Y032900D02*
X024585Y032950D01*
X029085Y034533D02*
X028915Y034533D01*
X024110Y034467D02*
X024124Y034467D01*
X024585Y032900D02*
X024110Y033375D01*
X029085Y034533D02*
X029085Y034915D01*
X007750Y030126D02*
X007750Y024037D01*
X015378Y029319D02*
X015378Y029122D01*
X013375Y026860D02*
X012610Y027625D01*
X012624Y027660D02*
X012624Y028840D01*
X015378Y029319D02*
X015390Y029319D01*
X015390Y029319D02*
X015624Y029319D01*
X007750Y024037D02*
X007879Y024037D01*
X013478Y025732D02*
X013478Y026806D01*
X015390Y029319D02*
X015390Y028826D01*
X012622Y029122D02*
X012622Y030126D01*
X011409Y029341D02*
X012591Y029341D01*
X033500Y030126D02*
X033500Y034500D01*
X033500Y034500D02*
X033415Y034585D01*
X012591Y029341D02*
X012591Y028159D01*
X012835Y025732D02*
X013478Y025732D01*
X012610Y027625D02*
X012610Y030126D01*
X012591Y028159D02*
X011409Y028159D01*
X011409Y028159D02*
X011409Y029341D01*
X022261Y026878D02*
X022256Y026872D01*
X030693Y029406D02*
X030698Y029406D01*
X030693Y029406D02*
X030861Y029573D01*
X026193Y029406D02*
X026361Y029573D01*
X030698Y029406D02*
X030673Y029381D01*
X028537Y026431D02*
X028537Y028614D01*
X028915Y023319D02*
X028915Y022252D01*
X028915Y023369D02*
X028915Y023319D01*
X028537Y026431D02*
X028772Y026431D01*
X028772Y024165D02*
X028860Y024165D01*
X031372Y029577D02*
X030869Y029577D01*
X030869Y029577D02*
X030866Y029573D01*
X028073Y029139D02*
X028073Y028861D01*
X027361Y029573D02*
X027634Y029573D01*
X030861Y029573D02*
X030866Y029573D01*
X026198Y029406D02*
X026173Y029381D01*
X026193Y029406D02*
X026198Y029406D01*
X030351Y028811D02*
X030344Y028818D01*
X025851Y028811D02*
X025844Y028818D01*
X027634Y029573D02*
X027631Y029577D01*
X027634Y029573D02*
X027639Y029573D01*
X024360Y025875D02*
X024360Y028058D01*
X024360Y024625D02*
X024360Y025875D01*
X026366Y029573D02*
X026198Y029406D01*
X027885Y029327D02*
X028073Y029139D01*
X027885Y029327D02*
X027897Y029327D01*
X026366Y029573D02*
X026639Y029573D01*
X028077Y028614D02*
X028537Y028614D01*
X029228Y022665D02*
X029228Y023006D01*
X028860Y024165D02*
X028860Y028058D01*
X028860Y024165D02*
X028874Y024165D01*
X028874Y024165D02*
X028874Y024590D01*
X027639Y029573D02*
X027885Y029327D01*
X025844Y029182D02*
X026068Y029406D01*
X026068Y029406D02*
X026193Y029406D01*
X024372Y026055D02*
X024372Y028811D01*
X025844Y028818D02*
X025844Y029182D01*
X030344Y028818D02*
X030344Y029182D01*
X029085Y022665D02*
X029228Y022665D01*
X029085Y022252D02*
X029085Y022665D01*
X030344Y029182D02*
X030568Y029406D01*
X030568Y029406D02*
X030693Y029406D01*
X015826Y028390D02*
X015875Y028390D01*
X015826Y028390D02*
X016626Y027590D01*
X021409Y027730D02*
X021409Y028059D01*
X021409Y027232D02*
X021409Y027730D01*
X016626Y027431D02*
X016640Y027431D01*
X028872Y026055D02*
X028872Y028811D01*
X024372Y028811D02*
X025851Y028811D01*
X022648Y028968D02*
X022648Y030126D01*
X028872Y028811D02*
X030351Y028811D01*
X023846Y028463D02*
X023498Y028115D01*
X027827Y029381D02*
X027634Y029573D01*
X023521Y028116D02*
X023498Y028116D01*
X023846Y028974D02*
X023846Y028463D01*
X027631Y029577D02*
X026369Y029577D01*
X027897Y029327D02*
X028077Y029147D01*
X028077Y029147D02*
X028077Y028614D01*
X026369Y029577D02*
X026366Y029573D01*
X026361Y029573D02*
X026366Y029573D01*
X024360Y024625D02*
X024360Y025875D01*
X024360Y022375D02*
X024360Y024625D01*
X028772Y026431D02*
X028772Y024165D01*
X024360Y024625D02*
X024360Y025875D01*
X024483Y022252D02*
X024360Y022375D01*
X023852Y030126D02*
X023852Y028447D01*
X023852Y028447D02*
X023521Y028116D01*
X024533Y022252D02*
X024374Y022410D01*
X024374Y022410D02*
X024374Y023590D01*
X017122Y031878D02*
X018923Y031878D01*
X017122Y030126D02*
X017122Y031878D01*
X014615Y032327D02*
X014861Y032573D01*
X014427Y031878D02*
X014427Y032139D01*
X016432Y032406D02*
X016656Y032182D01*
X020932Y032406D02*
X021156Y032182D01*
X021156Y031818D02*
X021156Y032182D01*
X016656Y032182D02*
X016656Y031818D01*
X016656Y031818D02*
X016519Y031681D01*
X015624Y038000D02*
X011250Y038000D01*
X011250Y038000D02*
X010650Y037400D01*
X014861Y032573D02*
X014866Y032573D01*
X007750Y034500D02*
X007750Y030126D01*
X014423Y031878D02*
X014423Y032147D01*
X014866Y032573D02*
X014673Y032381D01*
X014866Y032573D02*
X015139Y032573D01*
X010650Y037400D02*
X011087Y036964D01*
X008350Y035100D02*
X007750Y034500D01*
X021409Y032346D02*
X021409Y032654D01*
X021148Y032916D02*
X021148Y033652D01*
X017165Y033652D02*
X015624Y033652D01*
X022591Y033528D02*
X022591Y033261D01*
X021744Y032341D02*
X021739Y032346D01*
X023498Y034226D02*
X023324Y034051D01*
X023324Y034051D02*
X023298Y034051D01*
X021154Y032931D02*
X021154Y033443D01*
X023280Y034033D02*
X023298Y034051D01*
X017335Y037982D02*
X021665Y037982D01*
X021665Y037982D02*
X021665Y037600D01*
X021156Y031818D02*
X021019Y031681D01*
X021287Y031681D02*
X021287Y030126D01*
X017335Y033652D02*
X021148Y033652D01*
X015624Y037982D02*
X017165Y037982D01*
X017165Y037982D02*
X017165Y037600D01*
X017335Y033652D02*
X017335Y034033D01*
X016787Y031681D02*
X016787Y030126D01*
X014427Y032139D02*
X014615Y032327D01*
X009144Y010978D02*
X009144Y009522D01*
X010348Y010978D02*
X010370Y011000D01*
X009144Y010978D02*
X010348Y010978D01*
X015624Y033652D02*
X012835Y033652D01*
X012835Y033652D02*
X012835Y037982D01*
X011409Y032159D02*
X011409Y033341D01*
X012835Y037982D02*
X015624Y037982D01*
X012610Y030126D02*
X012610Y031125D01*
X014423Y032147D02*
X014603Y032327D01*
X014603Y032327D02*
X014615Y032327D01*
X015624Y032577D02*
X014869Y032577D01*
X014869Y032577D02*
X014866Y032573D01*
X011087Y036964D02*
X011087Y035536D01*
X011087Y035536D02*
X010214Y034663D01*
X012622Y031878D02*
X014423Y031878D01*
X012622Y030126D02*
X012622Y031878D01*
X010214Y034663D02*
X008786Y034663D01*
X012591Y032159D02*
X012591Y033341D01*
X012591Y032159D02*
X011409Y032159D01*
X008786Y034663D02*
X008350Y035100D01*
X011409Y033341D02*
X012591Y033341D01*
X017110Y030126D02*
X017110Y031125D01*
X018927Y031878D02*
X018927Y032139D01*
X021409Y032676D02*
X021154Y032931D01*
X020634Y032573D02*
X020631Y032577D01*
X019115Y032327D02*
X019361Y032573D01*
X021802Y032346D02*
X021739Y032346D01*
X021828Y037600D02*
X021665Y037600D01*
X022352Y034033D02*
X022352Y033528D01*
X022352Y034033D02*
X023280Y034033D01*
X016307Y032406D02*
X016432Y032406D01*
X016134Y032573D02*
X016139Y032573D01*
X021813Y032335D02*
X021802Y032346D01*
X022648Y031500D02*
X021813Y032335D01*
X016134Y032573D02*
X016131Y032577D01*
X020807Y032406D02*
X020932Y032406D01*
X020634Y032573D02*
X020639Y032573D01*
X019366Y032573D02*
X019173Y032381D01*
X019366Y032573D02*
X019639Y032573D01*
X024124Y033410D02*
X024124Y034467D01*
X023498Y034251D02*
X023713Y034467D01*
X029085Y030585D02*
X029085Y030967D01*
X024110Y033375D02*
X024110Y034467D01*
X023498Y032354D02*
X023846Y032006D01*
X023521Y032352D02*
X023852Y032021D01*
X023852Y032021D02*
X023852Y030126D01*
X023846Y032006D02*
X023846Y031494D01*
X023498Y032352D02*
X023521Y032352D01*
X030163Y035536D02*
X030163Y036964D01*
X030163Y036964D02*
X030600Y037400D01*
X021828Y037600D02*
X022228Y038000D01*
X022228Y038000D02*
X015624Y038000D01*
X028915Y030585D02*
X028915Y030967D01*
X029085Y034915D02*
X030784Y034915D01*
X031372Y030585D02*
X029085Y030585D01*
X024585Y030585D02*
X024585Y032900D01*
X024585Y030585D02*
X028915Y030585D01*
X017335Y037600D02*
X017335Y037982D01*
X020361Y032573D02*
X020634Y032573D01*
X018923Y032147D02*
X019103Y032327D01*
X019369Y032577D02*
X019366Y032573D01*
X020639Y032573D02*
X020807Y032406D01*
X019103Y032327D02*
X019115Y032327D01*
X018923Y031878D02*
X018923Y032147D01*
X016302Y032406D02*
X016307Y032406D01*
X018927Y032139D02*
X019115Y032327D01*
X019361Y032573D02*
X019366Y032573D01*
X022648Y030126D02*
X022648Y031500D01*
X016327Y032381D02*
X016302Y032406D01*
X021759Y032335D02*
X021813Y032335D01*
X022665Y033178D02*
X022591Y033253D01*
X016131Y032577D02*
X015624Y032577D01*
X020827Y032381D02*
X020802Y032406D01*
X020631Y032577D02*
X019369Y032577D01*
X016139Y032573D02*
X016307Y032406D01*
X015861Y032573D02*
X016134Y032573D01*
X021409Y032654D02*
X021409Y032676D01*
X021409Y032654D02*
X021148Y032916D01*
X022591Y033261D02*
X023498Y032354D01*
X021739Y032346D02*
X021409Y032346D01*
X021854Y037600D02*
X021828Y037600D01*
X023298Y034051D02*
X023498Y034251D01*
X017335Y037600D02*
X017165Y037600D01*
X022253Y038000D02*
X021854Y037600D01*
X022253Y038000D02*
X022228Y038000D01*
X020802Y032406D02*
X020807Y032406D01*
X020802Y032406D02*
X020634Y032573D01*
X016302Y032406D02*
X016134Y032573D01*
X016519Y031681D02*
X016787Y031681D01*
X021019Y031681D02*
X021287Y031681D01*
X022352Y033528D02*
X022591Y033528D01*
X022591Y033261D02*
X022591Y033253D01*
X017165Y034033D02*
X017165Y033652D01*
X017165Y034033D02*
X017335Y034033D01*
X030866Y029573D02*
X030698Y029406D01*
X007750Y024775D02*
X012835Y024775D01*
X007750Y024670D02*
X012835Y024670D01*
X007750Y024985D02*
X012835Y024985D01*
X007750Y024880D02*
X012835Y024880D01*
X007750Y024565D02*
X012835Y024565D01*
X007750Y024250D02*
X012835Y024250D01*
X007750Y024145D02*
X012835Y024145D01*
X007750Y024460D02*
X012835Y024460D01*
X007750Y024355D02*
X012835Y024355D01*
X007750Y025195D02*
X012835Y025195D01*
X007750Y025090D02*
X012835Y025090D01*
X007750Y025300D02*
X012835Y025300D01*
X012591Y028449D02*
X012610Y028449D01*
X012591Y028344D02*
X012610Y028344D01*
X012591Y028659D02*
X012610Y028659D01*
X012591Y028554D02*
X012610Y028554D01*
X012591Y028239D02*
X012610Y028239D01*
X012610Y029813D02*
X012622Y029813D01*
X012610Y029708D02*
X012622Y029708D01*
X012610Y030023D02*
X012622Y030023D01*
X012610Y029918D02*
X012622Y029918D01*
X012591Y029183D02*
X012610Y029183D01*
X012591Y029078D02*
X012610Y029078D01*
X007750Y024040D02*
X012835Y024040D01*
X012591Y029288D02*
X012610Y029288D01*
X012591Y028973D02*
X012610Y028973D01*
X012591Y028868D02*
X012610Y028868D01*
X012591Y028763D02*
X012610Y028763D01*
X015250Y011000D02*
X015250Y010000D01*
X015250Y010000D02*
X015250Y009000D01*
X012610Y029603D02*
X012622Y029603D01*
X021665Y026244D02*
X024360Y026244D01*
X021665Y026139D02*
X024360Y026139D01*
X021665Y026454D02*
X024360Y026454D01*
X021665Y026349D02*
X024360Y026349D01*
X021665Y026034D02*
X024360Y026034D01*
X021665Y025720D02*
X024360Y025720D01*
X021665Y025615D02*
X024360Y025615D01*
X021665Y025930D02*
X024360Y025930D01*
X021665Y025825D02*
X024360Y025825D01*
X021665Y023306D02*
X024360Y023306D01*
X021665Y023201D02*
X024360Y023201D01*
X021665Y023515D02*
X024360Y023515D01*
X021665Y023410D02*
X024360Y023410D01*
X021665Y023096D02*
X024360Y023096D01*
X021665Y026664D02*
X024360Y026664D01*
X021665Y026559D02*
X024360Y026559D01*
X021665Y022991D02*
X024360Y022991D01*
X021665Y026769D02*
X024360Y026769D01*
X021665Y024355D02*
X024360Y024355D01*
X021665Y024250D02*
X024360Y024250D01*
X021665Y024565D02*
X024360Y024565D01*
X021665Y024460D02*
X024360Y024460D01*
X021665Y024145D02*
X024360Y024145D01*
X017165Y023935D02*
X017335Y023935D01*
X017165Y023830D02*
X017335Y023830D01*
X021665Y024040D02*
X024360Y024040D01*
X021665Y026874D02*
X022258Y026874D01*
X021665Y025300D02*
X024360Y025300D01*
X021665Y025195D02*
X024360Y025195D01*
X021665Y025510D02*
X024360Y025510D01*
X021665Y025405D02*
X024360Y025405D01*
X021665Y025090D02*
X024360Y025090D01*
X021665Y024775D02*
X024360Y024775D01*
X021665Y024670D02*
X024360Y024670D01*
X021665Y024985D02*
X024360Y024985D01*
X021665Y024880D02*
X024360Y024880D01*
X012610Y028554D02*
X012624Y028554D01*
X012610Y028449D02*
X012624Y028449D01*
X012610Y028763D02*
X012624Y028763D01*
X012610Y028659D02*
X012624Y028659D01*
X012610Y028344D02*
X012624Y028344D01*
X012736Y027504D02*
X012785Y027504D01*
X012839Y027399D02*
X012888Y027399D01*
X012610Y028239D02*
X012624Y028239D01*
X012633Y027609D02*
X012682Y027609D01*
X012610Y028134D02*
X012624Y028134D01*
X012610Y028029D02*
X012624Y028029D01*
X012610Y029498D02*
X012622Y029498D01*
X012610Y029393D02*
X012622Y029393D01*
X012610Y027924D02*
X012624Y027924D01*
X012610Y029288D02*
X012622Y029288D01*
X012610Y029183D02*
X012622Y029183D01*
X012610Y027819D02*
X012624Y027819D01*
X012610Y027714D02*
X012624Y027714D01*
X015390Y029183D02*
X016978Y029183D01*
X015455Y028763D02*
X016978Y028763D01*
X015390Y028868D02*
X016978Y028868D01*
X015390Y029288D02*
X016978Y029288D01*
X015554Y028659D02*
X016978Y028659D01*
X021665Y023725D02*
X024360Y023725D01*
X021665Y023620D02*
X024360Y023620D01*
X021665Y023935D02*
X024360Y023935D01*
X021665Y023830D02*
X024360Y023830D01*
X013148Y027084D02*
X013197Y027084D01*
X013250Y026979D02*
X013300Y026979D01*
X012942Y027294D02*
X012991Y027294D01*
X013045Y027189D02*
X013094Y027189D01*
X013353Y026874D02*
X013403Y026874D01*
X015390Y029078D02*
X016978Y029078D01*
X015390Y028973D02*
X016978Y028973D01*
X015378Y029288D02*
X015390Y029288D01*
X015378Y029183D02*
X015390Y029183D01*
X033415Y034536D02*
X033464Y034536D01*
X033415Y033382D02*
X033500Y033382D01*
X033415Y033277D02*
X033500Y033277D01*
X033415Y033172D02*
X033500Y033172D01*
X007750Y030023D02*
X012610Y030023D01*
X033415Y033067D02*
X033500Y033067D01*
X033415Y032962D02*
X033500Y032962D01*
X033415Y033802D02*
X033500Y033802D01*
X033415Y033697D02*
X033500Y033697D01*
X033415Y034011D02*
X033500Y034011D01*
X033415Y033907D02*
X033500Y033907D01*
X033415Y033592D02*
X033500Y033592D01*
X007750Y028763D02*
X011409Y028763D01*
X007750Y028659D02*
X011409Y028659D01*
X007750Y028973D02*
X011409Y028973D01*
X007750Y028868D02*
X011409Y028868D01*
X007750Y028554D02*
X011409Y028554D01*
X007750Y028449D02*
X011409Y028449D01*
X007750Y028344D02*
X011409Y028344D01*
X007750Y029708D02*
X012610Y029708D01*
X007750Y029603D02*
X012610Y029603D01*
X007750Y029918D02*
X012610Y029918D01*
X007750Y029813D02*
X012610Y029813D01*
X007750Y029498D02*
X012610Y029498D01*
X007750Y029183D02*
X011409Y029183D01*
X007750Y029078D02*
X011409Y029078D01*
X007750Y029393D02*
X012610Y029393D01*
X007750Y029288D02*
X011409Y029288D01*
X033415Y032647D02*
X033500Y032647D01*
X033415Y032542D02*
X033500Y032542D01*
X033415Y032857D02*
X033500Y032857D01*
X033415Y032752D02*
X033500Y032752D01*
X023600Y034326D02*
X024110Y034326D01*
X033415Y031492D02*
X033500Y031492D01*
X023501Y034221D02*
X024110Y034221D01*
X023698Y034431D02*
X024110Y034431D01*
X033415Y031387D02*
X033500Y031387D01*
X033415Y031073D02*
X033500Y031073D01*
X033415Y031283D02*
X033500Y031283D01*
X033415Y031178D02*
X033500Y031178D01*
X033415Y030758D02*
X033500Y030758D01*
X033415Y030653D02*
X033500Y030653D01*
X033415Y030968D02*
X033500Y030968D01*
X033415Y030863D02*
X033500Y030863D01*
X033415Y034431D02*
X033500Y034431D01*
X033415Y034221D02*
X033500Y034221D01*
X033415Y034116D02*
X033500Y034116D01*
X033415Y034326D02*
X033500Y034326D01*
X033415Y033487D02*
X033500Y033487D01*
X033415Y031912D02*
X033500Y031912D01*
X033415Y032122D02*
X033500Y032122D01*
X033415Y032437D02*
X033500Y032437D01*
X033415Y032227D02*
X033500Y032227D01*
X033415Y032017D02*
X033500Y032017D01*
X033415Y031597D02*
X033500Y031597D01*
X033415Y032332D02*
X033500Y032332D01*
X033415Y031807D02*
X033500Y031807D01*
X033415Y031702D02*
X033500Y031702D01*
X007750Y027399D02*
X012839Y027399D01*
X007750Y027294D02*
X012942Y027294D01*
X007750Y027609D02*
X012633Y027609D01*
X007750Y027504D02*
X012736Y027504D01*
X007750Y027189D02*
X013045Y027189D01*
X007750Y026874D02*
X013353Y026874D01*
X007750Y026769D02*
X013478Y026769D01*
X007750Y027084D02*
X013148Y027084D01*
X007750Y026979D02*
X013250Y026979D01*
X007750Y028239D02*
X011409Y028239D01*
X007750Y028134D02*
X012610Y028134D01*
X007750Y027819D02*
X012610Y027819D01*
X007750Y027714D02*
X012610Y027714D01*
X007750Y028029D02*
X012610Y028029D01*
X007750Y027924D02*
X012610Y027924D01*
X007750Y025510D02*
X012835Y025510D01*
X007750Y025405D02*
X012835Y025405D01*
X007750Y025720D02*
X012835Y025720D01*
X007750Y025615D02*
X012835Y025615D01*
X007750Y026454D02*
X013478Y026454D01*
X007750Y026349D02*
X013478Y026349D01*
X007750Y026664D02*
X013478Y026664D01*
X007750Y026559D02*
X013478Y026559D01*
X007750Y026244D02*
X013478Y026244D01*
X007750Y025930D02*
X013478Y025930D01*
X007750Y025825D02*
X013478Y025825D01*
X007750Y026139D02*
X013478Y026139D01*
X007750Y026034D02*
X013478Y026034D01*
X023852Y029498D02*
X026285Y029498D01*
X023852Y029393D02*
X026049Y029393D01*
X023852Y029708D02*
X033500Y029708D01*
X023852Y029603D02*
X033500Y029603D01*
X023852Y029078D02*
X025844Y029078D01*
X023852Y029288D02*
X025951Y029288D01*
X023852Y029183D02*
X025844Y029183D01*
X023852Y028763D02*
X024372Y028763D01*
X023852Y028659D02*
X024372Y028659D01*
X023852Y028973D02*
X025844Y028973D01*
X023852Y028868D02*
X025844Y028868D01*
X023852Y028554D02*
X024372Y028554D01*
X023852Y029918D02*
X033500Y029918D01*
X023852Y029813D02*
X033500Y029813D01*
X023852Y028449D02*
X024372Y028449D01*
X023852Y030023D02*
X033500Y030023D01*
X023846Y028763D02*
X023852Y028763D01*
X023846Y028659D02*
X023852Y028659D01*
X023846Y028973D02*
X023852Y028973D01*
X023846Y028868D02*
X023852Y028868D01*
X023846Y028554D02*
X023852Y028554D01*
X023624Y028239D02*
X023646Y028239D01*
X023825Y028449D02*
X023846Y028449D01*
X023524Y028134D02*
X023545Y028134D01*
X023725Y028344D02*
X023746Y028344D01*
X023646Y028239D02*
X024372Y028239D01*
X023846Y028449D02*
X023852Y028449D01*
X023545Y028134D02*
X024372Y028134D01*
X023746Y028344D02*
X024372Y028344D01*
X028772Y024670D02*
X028860Y024670D01*
X028772Y024565D02*
X028860Y024565D01*
X028772Y024775D02*
X028860Y024775D01*
X028772Y024460D02*
X028860Y024460D01*
X028772Y026349D02*
X028860Y026349D01*
X028772Y026244D02*
X028860Y026244D01*
X028772Y024355D02*
X028860Y024355D01*
X028772Y024250D02*
X028860Y024250D01*
X024360Y022886D02*
X024374Y022886D01*
X024360Y022781D02*
X024374Y022781D01*
X024360Y023096D02*
X024374Y023096D01*
X024360Y022991D02*
X024374Y022991D01*
X024360Y022676D02*
X024374Y022676D01*
X024379Y022361D02*
X024426Y022361D01*
X024472Y022256D02*
X024522Y022256D01*
X024360Y022571D02*
X024374Y022571D01*
X024360Y022466D02*
X024374Y022466D01*
X028772Y026139D02*
X028860Y026139D01*
X024360Y023306D02*
X024374Y023306D01*
X024360Y023201D02*
X024374Y023201D01*
X024360Y023515D02*
X024374Y023515D01*
X024360Y023410D02*
X024374Y023410D01*
X027808Y029393D02*
X027815Y029393D01*
X028915Y022466D02*
X029085Y022466D01*
X028860Y024565D02*
X028874Y024565D01*
X028915Y022676D02*
X029228Y022676D01*
X028915Y022571D02*
X029085Y022571D01*
X028860Y024460D02*
X028874Y024460D01*
X028860Y026349D02*
X028872Y026349D01*
X028860Y026244D02*
X028872Y026244D01*
X028860Y024355D02*
X028874Y024355D01*
X028860Y024250D02*
X028874Y024250D01*
X028915Y022256D02*
X029085Y022256D01*
X028915Y023306D02*
X028936Y023306D01*
X028915Y022361D02*
X029085Y022361D01*
X028915Y023201D02*
X029036Y023201D01*
X028915Y022886D02*
X029228Y022886D01*
X028915Y022781D02*
X029228Y022781D01*
X028915Y023096D02*
X029136Y023096D01*
X028915Y022991D02*
X029228Y022991D01*
X028860Y028029D02*
X028872Y028029D01*
X028860Y027924D02*
X028872Y027924D01*
X028860Y027399D02*
X028872Y027399D01*
X028860Y027294D02*
X028872Y027294D01*
X028860Y027819D02*
X028872Y027819D01*
X028860Y027504D02*
X028872Y027504D01*
X024360Y026769D02*
X024372Y026769D01*
X028860Y027714D02*
X028872Y027714D01*
X028860Y027609D02*
X028872Y027609D01*
X028860Y026664D02*
X028872Y026664D01*
X028860Y026559D02*
X028872Y026559D01*
X028860Y026139D02*
X028872Y026139D01*
X028860Y026769D02*
X028872Y026769D01*
X028860Y026454D02*
X028872Y026454D01*
X028860Y026874D02*
X028872Y026874D01*
X028860Y026979D02*
X028872Y026979D01*
X028860Y027189D02*
X028872Y027189D01*
X028860Y027084D02*
X028872Y027084D01*
X027815Y029393D02*
X030549Y029393D01*
X027717Y029498D02*
X030785Y029498D01*
X028077Y028868D02*
X030344Y028868D01*
X028077Y029078D02*
X030344Y029078D01*
X026285Y029498D02*
X026290Y029498D01*
X028537Y026664D02*
X028860Y026664D01*
X028537Y026559D02*
X028860Y026559D01*
X030785Y029498D02*
X030790Y029498D01*
X028537Y026769D02*
X028860Y026769D01*
X027711Y029498D02*
X027717Y029498D01*
X027940Y029288D02*
X030451Y029288D01*
X028077Y028659D02*
X028872Y028659D01*
X028077Y028973D02*
X030344Y028973D01*
X028036Y029183D02*
X030344Y029183D01*
X028077Y028763D02*
X028872Y028763D01*
X028537Y027609D02*
X028860Y027609D01*
X028537Y027504D02*
X028860Y027504D01*
X028537Y027819D02*
X028860Y027819D01*
X028537Y027714D02*
X028860Y027714D01*
X028537Y028134D02*
X028872Y028134D01*
X028537Y028554D02*
X028872Y028554D01*
X028537Y028449D02*
X028872Y028449D01*
X028537Y028344D02*
X028872Y028344D01*
X028537Y028239D02*
X028872Y028239D01*
X028537Y027084D02*
X028860Y027084D01*
X028537Y026874D02*
X028860Y026874D01*
X028537Y026454D02*
X028860Y026454D01*
X028537Y027189D02*
X028860Y027189D01*
X028537Y026979D02*
X028860Y026979D01*
X028537Y028029D02*
X028860Y028029D01*
X028537Y027924D02*
X028860Y027924D01*
X028537Y027399D02*
X028860Y027399D01*
X028537Y027294D02*
X028860Y027294D01*
X016787Y029603D02*
X017110Y029603D01*
X016787Y029498D02*
X017110Y029498D01*
X016787Y029813D02*
X017110Y029813D01*
X016787Y029708D02*
X017110Y029708D01*
X016787Y029393D02*
X016978Y029393D01*
X022591Y026874D02*
X024360Y026874D01*
X022591Y026979D02*
X024360Y026979D01*
X022591Y027189D02*
X024360Y027189D01*
X022591Y027084D02*
X024360Y027084D01*
X021287Y029603D02*
X022648Y029603D01*
X021287Y029813D02*
X022648Y029813D01*
X021287Y029708D02*
X022648Y029708D01*
X016787Y030023D02*
X017110Y030023D01*
X016787Y029918D02*
X017110Y029918D01*
X021287Y029498D02*
X022648Y029498D01*
X021287Y029393D02*
X022648Y029393D01*
X016626Y027504D02*
X016640Y027504D01*
X022787Y027399D02*
X024360Y027399D01*
X015666Y028554D02*
X016978Y028554D01*
X015764Y028449D02*
X016978Y028449D01*
X022684Y027294D02*
X024360Y027294D01*
X023200Y027819D02*
X024360Y027819D01*
X023096Y027714D02*
X024360Y027714D01*
X023406Y028029D02*
X024360Y028029D01*
X023303Y027924D02*
X024360Y027924D01*
X016340Y027924D02*
X016978Y027924D01*
X016443Y027819D02*
X016978Y027819D01*
X016134Y028134D02*
X016978Y028134D01*
X016237Y028029D02*
X016978Y028029D01*
X016545Y027714D02*
X016978Y027714D01*
X016640Y027609D02*
X016978Y027609D01*
X016640Y027504D02*
X016978Y027504D01*
X015928Y028344D02*
X016978Y028344D01*
X016031Y028239D02*
X016978Y028239D01*
X017165Y022781D02*
X024360Y022781D01*
X017165Y022676D02*
X024360Y022676D01*
X017165Y022571D02*
X024360Y022571D01*
X017165Y022256D02*
X024472Y022256D01*
X017165Y025720D02*
X017335Y025720D01*
X017165Y022466D02*
X024360Y022466D01*
X017165Y022361D02*
X024379Y022361D01*
X017165Y023515D02*
X017335Y023515D01*
X017165Y023410D02*
X017335Y023410D01*
X017165Y023725D02*
X017335Y023725D01*
X017165Y023620D02*
X017335Y023620D01*
X017165Y023306D02*
X017335Y023306D01*
X017165Y022991D02*
X017335Y022991D01*
X017165Y022886D02*
X024360Y022886D01*
X017165Y023201D02*
X017335Y023201D01*
X017165Y023096D02*
X017335Y023096D01*
X017165Y024460D02*
X017335Y024460D01*
X017165Y024355D02*
X017335Y024355D01*
X017165Y024670D02*
X017335Y024670D01*
X017165Y024565D02*
X017335Y024565D01*
X017165Y024250D02*
X017335Y024250D01*
X021287Y030023D02*
X022648Y030023D01*
X021287Y029918D02*
X022648Y029918D01*
X017165Y024145D02*
X017335Y024145D01*
X017165Y024040D02*
X017335Y024040D01*
X017165Y025405D02*
X017335Y025405D01*
X017165Y025300D02*
X017335Y025300D01*
X017165Y025615D02*
X017335Y025615D01*
X017165Y025510D02*
X017335Y025510D01*
X017165Y025195D02*
X017335Y025195D01*
X017165Y024880D02*
X017335Y024880D01*
X017165Y024775D02*
X017335Y024775D01*
X017165Y025090D02*
X017335Y025090D01*
X017165Y024985D02*
X017335Y024985D01*
X022993Y027609D02*
X024360Y027609D01*
X016085Y028134D02*
X016134Y028134D01*
X016187Y028029D02*
X016237Y028029D01*
X016496Y027714D02*
X016545Y027714D01*
X015879Y028344D02*
X015928Y028344D01*
X016290Y027924D02*
X016340Y027924D01*
X016393Y027819D02*
X016443Y027819D01*
X017022Y025825D02*
X017335Y025825D01*
X017022Y026979D02*
X017335Y026979D01*
X017022Y026034D02*
X017335Y026034D01*
X017022Y025930D02*
X017335Y025930D01*
X017022Y026874D02*
X017335Y026874D01*
X022258Y026874D02*
X022591Y026874D01*
X028772Y025510D02*
X028860Y025510D01*
X028772Y025405D02*
X028860Y025405D01*
X028772Y025720D02*
X028860Y025720D01*
X028772Y025615D02*
X028860Y025615D01*
X028772Y025300D02*
X028860Y025300D01*
X028772Y024985D02*
X028860Y024985D01*
X028772Y024880D02*
X028860Y024880D01*
X028772Y025195D02*
X028860Y025195D01*
X028772Y025090D02*
X028860Y025090D01*
X025844Y029183D02*
X025853Y029183D01*
X026049Y029393D02*
X026186Y029393D01*
X015982Y028239D02*
X016031Y028239D01*
X016599Y027609D02*
X016640Y027609D01*
X030344Y029183D02*
X030353Y029183D01*
X028772Y025930D02*
X028860Y025930D01*
X028772Y025825D02*
X028860Y025825D01*
X030549Y029393D02*
X030686Y029393D01*
X028772Y026034D02*
X028860Y026034D01*
X020522Y029288D02*
X022648Y029288D01*
X020522Y029183D02*
X022648Y029183D01*
X020522Y028973D02*
X022645Y028973D01*
X020522Y028868D02*
X022542Y028868D01*
X020522Y028763D02*
X022439Y028763D01*
X020522Y027294D02*
X021409Y027294D01*
X020522Y028134D02*
X021820Y028134D01*
X020522Y028659D02*
X022336Y028659D01*
X020522Y027399D02*
X021409Y027399D01*
X017110Y030023D02*
X017122Y030023D01*
X017110Y029918D02*
X017122Y029918D01*
X022890Y027504D02*
X024360Y027504D01*
X017110Y029813D02*
X017122Y029813D01*
X017110Y029498D02*
X017122Y029498D01*
X020522Y029078D02*
X022648Y029078D01*
X017110Y029708D02*
X017122Y029708D01*
X017110Y029603D02*
X017122Y029603D01*
X017022Y026769D02*
X017335Y026769D01*
X017022Y026664D02*
X017335Y026664D01*
X020522Y028449D02*
X022129Y028449D01*
X017022Y026559D02*
X017335Y026559D01*
X017022Y026244D02*
X017335Y026244D01*
X017022Y026139D02*
X017335Y026139D01*
X017022Y026454D02*
X017335Y026454D01*
X017022Y026349D02*
X017335Y026349D01*
X020522Y027819D02*
X021409Y027819D01*
X020522Y027714D02*
X021409Y027714D01*
X020522Y028029D02*
X021409Y028029D01*
X020522Y027924D02*
X021409Y027924D01*
X020522Y028344D02*
X022026Y028344D01*
X020522Y027504D02*
X021409Y027504D01*
X020522Y028554D02*
X022232Y028554D01*
X020522Y028239D02*
X021923Y028239D01*
X020522Y027609D02*
X021409Y027609D01*
X007750Y032437D02*
X011409Y032437D01*
X007750Y032542D02*
X011409Y032542D01*
X007750Y032227D02*
X011409Y032227D01*
X007750Y032122D02*
X014423Y032122D01*
X007750Y032332D02*
X011409Y032332D01*
X007750Y033277D02*
X011409Y033277D01*
X007750Y033172D02*
X011409Y033172D01*
X007750Y033487D02*
X021148Y033487D01*
X007750Y033382D02*
X021148Y033382D01*
X007750Y033067D02*
X011409Y033067D01*
X007750Y032752D02*
X011409Y032752D01*
X007750Y032647D02*
X011409Y032647D01*
X007750Y032962D02*
X011409Y032962D01*
X007750Y032857D02*
X011409Y032857D01*
X007750Y030863D02*
X012610Y030863D01*
X007750Y030758D02*
X012610Y030758D01*
X007750Y031073D02*
X012610Y031073D01*
X007750Y030968D02*
X012610Y030968D01*
X007750Y030653D02*
X012610Y030653D01*
X007750Y030338D02*
X012610Y030338D01*
X007750Y030548D02*
X012610Y030548D01*
X007750Y030443D02*
X012610Y030443D01*
X007750Y031807D02*
X012622Y031807D01*
X007750Y031702D02*
X012622Y031702D01*
X007750Y032017D02*
X014423Y032017D01*
X007750Y031912D02*
X014423Y031912D01*
X007750Y031597D02*
X012622Y031597D01*
X007750Y031283D02*
X012622Y031283D01*
X007750Y031178D02*
X012622Y031178D01*
X007750Y031492D02*
X012622Y031492D01*
X007750Y031387D02*
X012622Y031387D01*
X011145Y037895D02*
X012835Y037895D01*
X011040Y037790D02*
X012835Y037790D01*
X033500Y014287D02*
X033371Y014287D01*
X033500Y014287D02*
X033500Y014378D01*
X010935Y037685D02*
X012835Y037685D01*
X010620Y037370D02*
X010687Y037370D01*
X008311Y035061D02*
X008395Y035061D01*
X010830Y037580D02*
X012835Y037580D01*
X010725Y037475D02*
X010731Y037475D01*
X010370Y012250D02*
X009250Y012250D01*
X033037Y014378D02*
X033037Y014287D01*
X030632Y014284D02*
X030463Y014115D01*
X009250Y012250D02*
X009000Y012500D01*
X031463Y014287D02*
X031372Y014287D01*
X033371Y014287D02*
X033037Y014287D01*
X033371Y014287D02*
X033500Y014287D01*
X031463Y014287D02*
X031463Y014378D01*
X007750Y034221D02*
X012835Y034221D01*
X007750Y034116D02*
X012835Y034116D01*
X007750Y034431D02*
X012835Y034431D01*
X007750Y034326D02*
X012835Y034326D01*
X007750Y034011D02*
X012835Y034011D01*
X007750Y033697D02*
X012835Y033697D01*
X007750Y033592D02*
X021148Y033592D01*
X007750Y033907D02*
X012835Y033907D01*
X007750Y033802D02*
X012835Y033802D01*
X007996Y034746D02*
X008698Y034746D01*
X008206Y034956D02*
X008496Y034956D01*
X008101Y034851D02*
X008597Y034851D01*
X007786Y034536D02*
X007793Y034536D01*
X007891Y034641D02*
X007895Y034641D01*
X007750Y030233D02*
X012610Y030233D01*
X012610Y030128D02*
X012622Y030128D01*
X014601Y032332D02*
X014612Y032332D01*
X012610Y030338D02*
X012622Y030338D01*
X012610Y030233D02*
X012622Y030233D01*
X014504Y032227D02*
X014515Y032227D01*
X010687Y037370D02*
X012835Y037370D01*
X010788Y037265D02*
X012835Y037265D01*
X014612Y032332D02*
X014627Y032332D01*
X010731Y037475D02*
X012835Y037475D01*
X012610Y031073D02*
X012622Y031073D01*
X012610Y030968D02*
X012622Y030968D01*
X012591Y032332D02*
X014601Y032332D01*
X012591Y032227D02*
X014504Y032227D01*
X012610Y030863D02*
X012622Y030863D01*
X012610Y030548D02*
X012622Y030548D01*
X012610Y030443D02*
X012622Y030443D01*
X012610Y030758D02*
X012622Y030758D01*
X012610Y030653D02*
X012622Y030653D01*
X016656Y032017D02*
X018923Y032017D01*
X016639Y031807D02*
X017122Y031807D01*
X016656Y031912D02*
X018923Y031912D01*
X016656Y032122D02*
X018923Y032122D01*
X016545Y031702D02*
X017122Y031702D01*
X021156Y031912D02*
X022236Y031912D01*
X021156Y032122D02*
X022030Y032122D01*
X021106Y032227D02*
X021927Y032227D01*
X021008Y032332D02*
X021811Y032332D01*
X007895Y034641D02*
X012835Y034641D01*
X007793Y034536D02*
X012835Y034536D01*
X010890Y037160D02*
X012835Y037160D01*
X010991Y037055D02*
X012835Y037055D01*
X016606Y032227D02*
X019004Y032227D01*
X016508Y032332D02*
X019101Y032332D01*
X014824Y032542D02*
X014830Y032542D01*
X014726Y032437D02*
X014733Y032437D01*
X011087Y036216D02*
X012835Y036216D01*
X011087Y036111D02*
X012835Y036111D01*
X011087Y036426D02*
X012835Y036426D01*
X011087Y036321D02*
X012835Y036321D01*
X011087Y036006D02*
X012835Y036006D01*
X011087Y035691D02*
X012835Y035691D01*
X011087Y035586D02*
X012835Y035586D01*
X011087Y035901D02*
X012835Y035901D01*
X011087Y035796D02*
X012835Y035796D01*
X007750Y030128D02*
X012610Y030128D01*
X011087Y036950D02*
X012835Y036950D01*
X011087Y036636D02*
X012835Y036636D01*
X011087Y036531D02*
X012835Y036531D01*
X011087Y036845D02*
X012835Y036845D01*
X011087Y036740D02*
X012835Y036740D01*
X012591Y033067D02*
X021148Y033067D01*
X012591Y032962D02*
X021148Y032962D01*
X012591Y033277D02*
X021148Y033277D01*
X012591Y033172D02*
X021148Y033172D01*
X012591Y032857D02*
X021211Y032857D01*
X012591Y032542D02*
X014824Y032542D01*
X012591Y032437D02*
X014726Y032437D01*
X012591Y032752D02*
X021310Y032752D01*
X012591Y032647D02*
X021409Y032647D01*
X010819Y035271D02*
X012835Y035271D01*
X010715Y035166D02*
X012835Y035166D01*
X011025Y035481D02*
X012835Y035481D01*
X010922Y035376D02*
X012835Y035376D01*
X010612Y035061D02*
X012835Y035061D01*
X010303Y034746D02*
X012835Y034746D01*
X010509Y034956D02*
X012835Y034956D01*
X010406Y034851D02*
X012835Y034851D01*
X013037Y019713D02*
X013115Y019713D01*
X016094Y019682D02*
X016318Y019906D01*
X013037Y016119D02*
X014369Y014787D01*
X013037Y019713D02*
X013037Y016119D01*
X016318Y019906D02*
X016682Y019906D01*
X016906Y019318D02*
X016827Y019239D01*
X020344Y021182D02*
X020568Y021406D01*
X016682Y019906D02*
X016906Y019682D01*
X016906Y019682D02*
X016906Y019318D01*
X013115Y019713D02*
X013287Y019885D01*
X013287Y019885D02*
X013287Y020115D01*
X013287Y019871D02*
X013129Y019713D01*
X013129Y019713D02*
X013115Y019713D01*
X015624Y014787D02*
X014369Y014787D01*
X013287Y019885D02*
X013287Y019871D01*
X013287Y020115D02*
X013287Y019885D01*
X013287Y021402D02*
X013287Y020115D01*
X013115Y019713D02*
X013037Y019713D01*
X017165Y021402D02*
X015624Y021402D01*
X016827Y018603D02*
X016787Y018564D01*
X016787Y017069D02*
X015624Y017069D01*
X017165Y021402D02*
X017165Y022252D01*
X016823Y018889D02*
X016823Y018611D01*
X022287Y016115D02*
X022118Y016284D01*
X022115Y016287D02*
X018885Y016287D01*
X016823Y018611D02*
X016787Y018575D01*
X018878Y016284D02*
X018882Y016284D01*
X021156Y021182D02*
X021156Y020931D01*
X019713Y020931D02*
X020344Y020931D01*
X020568Y021406D02*
X020932Y021406D01*
X020932Y021406D02*
X021156Y021182D01*
X021287Y018569D02*
X021287Y020931D01*
X015624Y019431D02*
X016094Y019431D01*
X016787Y017069D02*
X016787Y018564D01*
X021287Y018569D02*
X019713Y018569D01*
X019713Y018569D02*
X019713Y020931D01*
X032577Y029147D02*
X032577Y028614D01*
X032139Y029573D02*
X032385Y029327D01*
X032131Y029577D02*
X031372Y029577D01*
X032397Y029327D02*
X032577Y029147D01*
X032573Y029139D02*
X032573Y028861D01*
X031640Y026252D02*
X033037Y026252D01*
X031640Y026252D02*
X031640Y024625D01*
X031861Y029573D02*
X032134Y029573D01*
X033500Y022252D02*
X033500Y030126D01*
X029228Y023006D02*
X029228Y023056D01*
X029228Y023006D02*
X028915Y023319D01*
X030866Y029573D02*
X031139Y029573D01*
X029228Y023056D02*
X028915Y023369D01*
X033037Y026252D02*
X033037Y028614D01*
X031625Y024640D02*
X031640Y024625D01*
X032327Y029381D02*
X032134Y029573D01*
X033415Y022665D02*
X033415Y022252D01*
X032772Y024431D02*
X032772Y022665D01*
X032385Y029327D02*
X032397Y029327D01*
X031834Y024431D02*
X032772Y024431D01*
X032577Y028614D02*
X033037Y028614D01*
X032385Y029327D02*
X032573Y029139D01*
X031640Y024576D02*
X031784Y024431D01*
X015213Y017069D02*
X015213Y019431D01*
X015624Y021402D02*
X013287Y021402D01*
X015213Y019431D02*
X015624Y019431D01*
X015624Y017069D02*
X015213Y017069D01*
X032772Y022665D02*
X033415Y022665D01*
X031628Y026252D02*
X031640Y026252D01*
X031628Y026252D02*
X031628Y026055D01*
X031784Y024431D02*
X031834Y024431D01*
X032134Y029573D02*
X032131Y029577D01*
X032134Y029573D02*
X032139Y029573D01*
X031640Y024625D02*
X031834Y024431D01*
X031640Y024625D02*
X031640Y024576D01*
X018885Y016287D02*
X018882Y016284D01*
X024787Y014619D02*
X025029Y014378D01*
X024585Y022200D02*
X024585Y022252D01*
X024787Y015615D02*
X024787Y015385D01*
X024371Y015787D02*
X023498Y015787D01*
X024585Y022200D02*
X024533Y022252D01*
X032682Y016906D02*
X032906Y016682D01*
X032906Y016682D02*
X032906Y016364D01*
X032094Y016682D02*
X032318Y016906D01*
X032318Y016906D02*
X032682Y016906D01*
X027594Y017864D02*
X027594Y018182D01*
X027594Y017864D02*
X027594Y018182D01*
X028406Y017864D02*
X028537Y017864D01*
X024787Y015385D02*
X024787Y014619D01*
X024615Y015787D02*
X024629Y015787D01*
X024585Y022150D02*
X024585Y022200D01*
X024585Y022150D02*
X024483Y022252D01*
X030628Y014284D02*
X030632Y014284D01*
X031372Y014287D02*
X030635Y014287D01*
X032094Y016364D02*
X032094Y016682D01*
X025029Y014378D02*
X026119Y013287D01*
X030635Y014287D02*
X030632Y014284D01*
X030632Y014284D02*
X030872Y014284D01*
X029631Y013287D02*
X026119Y013287D01*
X029631Y013287D02*
X030628Y014284D01*
X031463Y014378D02*
X031463Y016364D01*
X033415Y022252D02*
X033415Y018335D01*
X031463Y016364D02*
X032094Y016364D01*
X033037Y016364D02*
X033037Y014378D01*
X033415Y018335D02*
X031372Y018335D01*
X032094Y016364D02*
X032094Y016682D01*
X032906Y016364D02*
X033037Y016364D01*
X032906Y016682D02*
X032906Y016364D01*
X033500Y014378D02*
X033500Y022252D01*
X018882Y016284D02*
X018713Y016115D01*
X022118Y016284D02*
X022115Y016287D01*
X017381Y014787D02*
X018878Y016284D01*
X018882Y016284D02*
X019122Y016284D01*
X022118Y016284D02*
X022122Y016284D01*
X028182Y018406D02*
X028406Y018182D01*
X028406Y018182D02*
X028406Y017864D01*
X027594Y018182D02*
X027818Y018406D01*
X027818Y018406D02*
X028182Y018406D01*
X023498Y015787D02*
X022619Y015787D01*
X016094Y019431D02*
X016094Y019682D01*
X022122Y016284D02*
X022619Y015787D01*
X021878Y016284D02*
X022118Y016284D01*
X016827Y019239D02*
X016827Y018603D01*
X016787Y018564D02*
X016787Y018575D01*
X017381Y014787D02*
X015624Y014787D01*
X020344Y020931D02*
X020344Y021182D01*
X021156Y020931D02*
X021287Y020931D01*
X028406Y018182D02*
X028406Y017864D01*
X024787Y015385D02*
X024787Y015615D01*
X031372Y018335D02*
X029085Y018335D01*
X029085Y018335D02*
X029085Y022252D01*
X024787Y015615D02*
X024615Y015787D01*
X024629Y015787D02*
X024787Y015629D01*
X024787Y015629D02*
X024787Y015615D01*
X024615Y015787D02*
X024371Y015787D01*
X024371Y015787D02*
X024615Y015787D01*
X028537Y015502D02*
X026963Y015502D01*
X026963Y015502D02*
X026963Y017864D01*
X026963Y017864D02*
X027594Y017864D01*
X028537Y017864D02*
X028537Y015502D01*
X028915Y022252D02*
X028915Y019835D01*
X024585Y019835D02*
X024585Y022150D01*
X028915Y019835D02*
X024585Y019835D01*
X021917Y037685D02*
X021943Y037685D01*
X030563Y037370D02*
X030630Y037370D01*
X022119Y037895D02*
X022145Y037895D01*
X022018Y037790D02*
X022044Y037790D01*
X028915Y030968D02*
X029085Y030968D01*
X028915Y030653D02*
X029085Y030653D01*
X024110Y034431D02*
X024124Y034431D01*
X028915Y030863D02*
X029085Y030863D01*
X028915Y030758D02*
X029085Y030758D01*
X022352Y033697D02*
X024110Y033697D01*
X022352Y033592D02*
X024110Y033592D01*
X022352Y033802D02*
X024110Y033802D01*
X023575Y034326D02*
X023600Y034326D01*
X023627Y032227D02*
X023648Y032227D01*
X024110Y033592D02*
X024124Y033592D01*
X023673Y034431D02*
X023698Y034431D01*
X023727Y032122D02*
X023748Y032122D01*
X023846Y031492D02*
X023852Y031492D01*
X023846Y031912D02*
X023852Y031912D01*
X023828Y032017D02*
X023849Y032017D01*
X023526Y032332D02*
X023548Y032332D01*
X024110Y033382D02*
X024159Y033382D01*
X024110Y034221D02*
X024124Y034221D01*
X024110Y034326D02*
X024124Y034326D01*
X024110Y033487D02*
X024124Y033487D01*
X024110Y034116D02*
X024124Y034116D01*
X024110Y033802D02*
X024124Y033802D01*
X024110Y033697D02*
X024124Y033697D01*
X024110Y034011D02*
X024124Y034011D01*
X024110Y033907D02*
X024124Y033907D01*
X028915Y034746D02*
X029085Y034746D01*
X017165Y033697D02*
X017335Y033697D01*
X017165Y033907D02*
X017335Y033907D01*
X017165Y033802D02*
X017335Y033802D01*
X022996Y032857D02*
X024585Y032857D01*
X023305Y032542D02*
X024585Y032542D01*
X023099Y032752D02*
X024585Y032752D01*
X023202Y032647D02*
X024585Y032647D01*
X019101Y032332D02*
X019112Y032332D01*
X019112Y032332D02*
X019127Y032332D01*
X020771Y032437D02*
X021409Y032437D01*
X019004Y032227D02*
X019015Y032227D01*
X016170Y032542D02*
X016175Y032542D01*
X020766Y032437D02*
X020771Y032437D01*
X017165Y034011D02*
X017335Y034011D01*
X016266Y032437D02*
X016271Y032437D01*
X020670Y032542D02*
X020675Y032542D01*
X023463Y034221D02*
X023487Y034221D01*
X023366Y034116D02*
X023391Y034116D01*
X021211Y032857D02*
X021231Y032857D01*
X021310Y032752D02*
X021330Y032752D01*
X021811Y032332D02*
X021824Y032332D01*
X022352Y034011D02*
X024110Y034011D01*
X022352Y033907D02*
X024110Y033907D01*
X019324Y032542D02*
X019330Y032542D01*
X019226Y032437D02*
X019233Y032437D01*
X022893Y032962D02*
X024517Y032962D01*
X022686Y033172D02*
X024314Y033172D01*
X023408Y032437D02*
X024585Y032437D01*
X022789Y033067D02*
X024416Y033067D01*
X028915Y036216D02*
X030163Y036216D01*
X028915Y036111D02*
X030163Y036111D01*
X028915Y036426D02*
X030163Y036426D01*
X028915Y036321D02*
X030163Y036321D01*
X028915Y036006D02*
X030163Y036006D01*
X028915Y035691D02*
X030163Y035691D01*
X028915Y035586D02*
X030163Y035586D01*
X028915Y035901D02*
X030163Y035901D01*
X028915Y035796D02*
X030163Y035796D01*
X028915Y037160D02*
X030360Y037160D01*
X028915Y037055D02*
X030259Y037055D01*
X028915Y037370D02*
X030563Y037370D01*
X028915Y037265D02*
X030462Y037265D01*
X028915Y036950D02*
X030163Y036950D01*
X028915Y036636D02*
X030163Y036636D01*
X028915Y036531D02*
X030163Y036531D01*
X028915Y036845D02*
X030163Y036845D01*
X028915Y036740D02*
X030163Y036740D01*
X028915Y034956D02*
X030737Y034956D01*
X028915Y037895D02*
X030105Y037895D01*
X028915Y035166D02*
X030532Y035166D01*
X028915Y035061D02*
X030634Y035061D01*
X028915Y037790D02*
X030210Y037790D01*
X028915Y034536D02*
X029085Y034536D01*
X028915Y034851D02*
X029085Y034851D01*
X028915Y037685D02*
X030315Y037685D01*
X028915Y034641D02*
X029085Y034641D01*
X028915Y035376D02*
X030327Y035376D01*
X028915Y035271D02*
X030429Y035271D01*
X028915Y035481D02*
X030225Y035481D01*
X023852Y030968D02*
X024585Y030968D01*
X023852Y030863D02*
X024585Y030863D01*
X023852Y031178D02*
X024585Y031178D01*
X023852Y031073D02*
X024585Y031073D01*
X023852Y030758D02*
X024585Y030758D01*
X023852Y030443D02*
X033500Y030443D01*
X023852Y030338D02*
X033500Y030338D01*
X023852Y030653D02*
X024585Y030653D01*
X023852Y030548D02*
X033500Y030548D01*
X023846Y031597D02*
X023852Y031597D01*
X023648Y032227D02*
X024585Y032227D01*
X023846Y031807D02*
X023852Y031807D01*
X023846Y031702D02*
X023852Y031702D01*
X023748Y032122D02*
X024585Y032122D01*
X023852Y031387D02*
X024585Y031387D01*
X023852Y031283D02*
X024585Y031283D01*
X023849Y032017D02*
X024585Y032017D01*
X023548Y032332D02*
X024585Y032332D01*
X030519Y037475D02*
X030525Y037475D01*
X024213Y033277D02*
X024261Y033277D01*
X023852Y031702D02*
X024585Y031702D01*
X023852Y031597D02*
X024585Y031597D01*
X024416Y033067D02*
X024464Y033067D01*
X028915Y037580D02*
X030420Y037580D01*
X028915Y037475D02*
X030519Y037475D01*
X024517Y032962D02*
X024565Y032962D01*
X024314Y033172D02*
X024362Y033172D01*
X023852Y030233D02*
X033500Y030233D01*
X023852Y031912D02*
X024585Y031912D01*
X023852Y031807D02*
X024585Y031807D01*
X023852Y030128D02*
X033500Y030128D01*
X023852Y031492D02*
X024585Y031492D01*
X022591Y033382D02*
X024110Y033382D01*
X022591Y033277D02*
X024213Y033277D01*
X017165Y037685D02*
X017335Y037685D01*
X022591Y033487D02*
X024110Y033487D01*
X021148Y033382D02*
X021154Y033382D01*
X021148Y033067D02*
X021154Y033067D01*
X021148Y032962D02*
X021154Y032962D01*
X021148Y033277D02*
X021154Y033277D01*
X021148Y033172D02*
X021154Y033172D01*
X016787Y030548D02*
X017110Y030548D01*
X016787Y030443D02*
X017110Y030443D01*
X016787Y030758D02*
X017110Y030758D01*
X016787Y030653D02*
X017110Y030653D01*
X016787Y030338D02*
X017110Y030338D01*
X017165Y037895D02*
X017335Y037895D01*
X017165Y037790D02*
X017335Y037790D01*
X016787Y030233D02*
X017110Y030233D01*
X016787Y030128D02*
X017110Y030128D01*
X023487Y034221D02*
X023501Y034221D01*
X017110Y030968D02*
X017122Y030968D01*
X017110Y030863D02*
X017122Y030863D01*
X023391Y034116D02*
X024110Y034116D01*
X017110Y031073D02*
X017122Y031073D01*
X017110Y030758D02*
X017122Y030758D01*
X021287Y031178D02*
X022648Y031178D01*
X021287Y031073D02*
X022648Y031073D01*
X021287Y031387D02*
X022648Y031387D01*
X021287Y031283D02*
X022648Y031283D01*
X021287Y030968D02*
X022648Y030968D01*
X021287Y030653D02*
X022648Y030653D01*
X021287Y030548D02*
X022648Y030548D01*
X021287Y030863D02*
X022648Y030863D01*
X021287Y030758D02*
X022648Y030758D01*
X021045Y031702D02*
X022442Y031702D01*
X021156Y032017D02*
X022133Y032017D01*
X021139Y031807D02*
X022339Y031807D01*
X021287Y031492D02*
X022648Y031492D01*
X021287Y031597D02*
X022545Y031597D01*
X021287Y030443D02*
X022648Y030443D01*
X016787Y031492D02*
X017122Y031492D01*
X016787Y031387D02*
X017122Y031387D01*
X016787Y031597D02*
X017122Y031597D01*
X016787Y031283D02*
X017122Y031283D01*
X016787Y030968D02*
X017110Y030968D01*
X016787Y030863D02*
X017110Y030863D01*
X016787Y031178D02*
X017122Y031178D01*
X016787Y031073D02*
X017110Y031073D01*
X021287Y030128D02*
X022648Y030128D01*
X021665Y037895D02*
X022119Y037895D01*
X021287Y030338D02*
X022648Y030338D01*
X021287Y030233D02*
X022648Y030233D01*
X021665Y037790D02*
X022018Y037790D01*
X021665Y037685D02*
X021917Y037685D01*
X017110Y030653D02*
X017122Y030653D01*
X017110Y030548D02*
X017122Y030548D01*
X017110Y030443D02*
X017122Y030443D01*
X017110Y030233D02*
X017122Y030233D01*
X017110Y030128D02*
X017122Y030128D01*
X016271Y032437D02*
X019226Y032437D01*
X020675Y032542D02*
X021409Y032542D01*
X022664Y033172D02*
X022686Y033172D01*
X016175Y032542D02*
X019324Y032542D01*
X017110Y030338D02*
X017122Y030338D01*
D52*
X016000Y010500D03*
X016750Y011250D03*
X014750Y013750D03*
X021250Y009750D03*
X016000Y013750D03*
X021000Y009500D03*
X019750Y007500D03*
X013750Y010250D03*
X030750Y011500D03*
X029250Y008000D03*
X009000Y012500D03*
X009250Y011500D03*
X009750Y012750D03*
X016750Y008250D03*
X010000Y013000D03*
D53*
X016500Y018750D02*
X016000Y018250D01*
X015000Y032250D02*
X016000Y032250D01*
X016000Y032250D02*
X016250Y032000D01*
X014750Y031000D02*
X014750Y032000D01*
X015750Y030750D02*
X016000Y030500D01*
X015750Y031750D02*
X015750Y030750D01*
X014750Y032000D02*
X015000Y032250D01*
X014000Y030500D02*
X014250Y030500D01*
X014250Y030500D02*
X014750Y031000D01*
X020750Y020000D02*
X020500Y019750D01*
X020750Y021000D02*
X020750Y020000D01*
X026500Y029250D02*
X026250Y029000D01*
X027750Y027433D02*
X027750Y029000D01*
X027750Y029000D02*
X027500Y029250D01*
X027500Y029250D02*
X026500Y029250D01*
X026750Y028750D02*
X026750Y028433D01*
X026750Y028433D02*
X025750Y027433D01*
X018750Y030500D02*
X019250Y031000D01*
X016500Y019500D02*
X016500Y018750D01*
X020250Y031750D02*
X020250Y030750D01*
X019250Y031000D02*
X019250Y032000D01*
X019250Y032000D02*
X019500Y032250D01*
X018500Y030500D02*
X018750Y030500D01*
X020500Y032250D02*
X020750Y032000D01*
X020250Y030750D02*
X020500Y030500D01*
X019500Y032250D02*
X020500Y032250D01*
X009165Y009500D02*
X009144Y009522D01*
X010750Y009500D02*
X009165Y009500D01*
X008311Y009477D02*
X008356Y009522D01*
X008250Y009477D02*
X008311Y009477D01*
X032978Y010978D02*
X033000Y011000D01*
X032894Y010978D02*
X032978Y010978D01*
X032106Y010978D02*
X032106Y009522D01*
X008335Y011000D02*
X008356Y010978D01*
X008250Y011000D02*
X008335Y011000D01*
X032978Y009522D02*
X033000Y009500D01*
X032894Y009522D02*
X032978Y009522D01*
X011000Y008750D02*
X011000Y009250D01*
X011000Y009250D02*
X010750Y009500D01*
X023750Y006750D02*
X023750Y008750D01*
X024000Y006500D02*
X023750Y006750D01*
X024951Y006500D02*
X024000Y006500D01*
X024951Y006000D02*
X024000Y006000D01*
X030933Y027433D02*
X031250Y027750D01*
X030250Y027433D02*
X030933Y027433D01*
X032250Y029000D02*
X032000Y029250D01*
X032250Y027433D02*
X032250Y029000D01*
X031250Y027750D02*
X031250Y028750D01*
X032000Y029250D02*
X031000Y029250D01*
X031000Y029250D02*
X030750Y029000D01*
D55*
X028750Y011750D02*
X029713Y011750D01*
X029000Y007500D03*
X030463Y012963D02*
X030750Y013250D01*
X030463Y012500D02*
X030463Y012963D01*
X029713Y011750D02*
X030463Y012500D01*
X030000Y035500D03*
X028000Y007500D03*
X010750Y021250D03*
X025000Y007750D03*
X033000Y013000D02*
X033000Y011000D01*
X023000Y033750D03*
X010750Y022250D03*
X017750Y013750D02*
X018250Y014250D01*
X017750Y013000D02*
X017750Y013750D01*
X017750Y010750D02*
X017750Y011750D01*
X019250Y013000D03*
X020250Y011500D02*
X018787Y011500D01*
X019250Y013000D02*
X019250Y013963D01*
X018537Y013000D02*
X019250Y013000D01*
X018537Y011750D02*
X018537Y013000D01*
X018787Y011500D02*
X018537Y011750D01*
X030500Y010250D03*
X031250Y011000D02*
X031250Y009500D01*
X016750Y010000D03*
X019500Y009500D03*
X030750Y029000D03*
X031250Y028750D03*
X020750Y021000D03*
X013750Y010750D03*
X010750Y010250D03*
X026750Y028750D03*
X017750Y013000D02*
X014250Y013000D01*
X017750Y011750D02*
X017750Y013000D01*
X026250Y029000D03*
X020713Y006000D02*
X020750Y006037D01*
X010500Y008000D02*
X012000Y008000D01*
X020000Y006000D03*
X020000Y006000D02*
X020713Y006000D01*
X012000Y008000D02*
X012000Y008750D01*
X026500Y007000D02*
X028500Y007000D01*
X028500Y007000D02*
X028500Y011250D01*
X030750Y013250D02*
X032750Y013250D01*
X028500Y011250D02*
X028250Y011500D01*
X012000Y008000D02*
X012000Y006250D01*
X025250Y013000D02*
X025750Y012500D01*
X025000Y013000D02*
X025250Y013000D01*
X025000Y013000D02*
X025000Y012000D01*
X023500Y014037D02*
X023963Y014037D01*
X025000Y012000D03*
X023963Y014037D02*
X025000Y013000D01*
X024750Y011500D02*
X024500Y011250D01*
X025990Y011500D02*
X024750Y011500D01*
X024500Y011250D02*
X024500Y010500D01*
X024500Y010500D02*
X024250Y010250D01*
X023000Y013250D02*
X022500Y012750D01*
X023500Y013250D02*
X023000Y013250D01*
X022500Y012750D02*
X022500Y010250D01*
X024250Y010250D02*
X022500Y010250D01*
X022500Y012750D03*
X021750Y010750D02*
X021750Y010250D01*
X018250Y014250D03*
X022500Y010250D02*
X021750Y010250D01*
X022250Y013000D02*
X022500Y012750D01*
X021750Y013000D02*
X022250Y013000D01*
X021750Y010750D03*
X029250Y007000D02*
X031250Y009000D01*
X028500Y007000D02*
X029250Y007000D01*
X031250Y009500D02*
X031250Y009000D01*
X028750Y011750D02*
X029250Y011750D01*
X033000Y009500D02*
X033000Y008250D01*
X032750Y013250D02*
X033000Y013000D01*
X033000Y008250D02*
X032750Y008000D01*
X033000Y011000D02*
X033000Y009500D01*
X025990Y012406D02*
X028094Y012406D01*
X016037Y011000D02*
X016037Y011463D01*
X015750Y011750D03*
X016037Y011463D02*
X015750Y011750D01*
X014250Y010000D02*
X014620Y010000D01*
X028094Y012406D02*
X028750Y011750D01*
X014250Y009000D02*
X014250Y010000D01*
X014250Y010000D02*
X014250Y013000D01*
X010213Y008750D02*
X010213Y008287D01*
X013000Y008750D02*
X013250Y009000D01*
X010213Y008287D02*
X010500Y008000D01*
X014250Y013000D02*
X011000Y013000D01*
X022000Y006000D02*
X021750Y005750D01*
X022549Y006000D02*
X022000Y006000D01*
X012000Y020750D02*
X011000Y020750D01*
X008250Y014750D02*
X008250Y011000D01*
X011000Y020750D02*
X010500Y020250D01*
X032500Y016500D02*
X032500Y015433D01*
X008250Y011000D02*
X008250Y009477D01*
X008250Y009477D02*
X008250Y009000D01*
X008250Y009000D02*
X008500Y008750D01*
X012000Y008750D02*
X013000Y008750D01*
X008500Y008750D02*
X010213Y008750D01*
X010500Y013250D02*
X010750Y013000D01*
X010500Y020250D02*
X010500Y013250D01*
X011000Y012250D02*
X011000Y011000D01*
X011000Y013000D02*
X010750Y013000D01*
X011000Y012250D02*
X011000Y013000D01*
X027750Y010250D02*
X027750Y009750D01*
X025844Y012406D02*
X025750Y012500D01*
X027750Y009750D02*
X027750Y008000D01*
X026750Y009537D02*
X026963Y009750D01*
X026750Y008750D02*
X026750Y009537D01*
X028250Y011500D02*
X025990Y011500D01*
X027500Y007750D02*
X027750Y008000D01*
X025990Y010594D02*
X027406Y010594D01*
X025990Y012406D02*
X025844Y012406D01*
X027406Y010594D02*
X027750Y010250D01*
X032750Y008000D02*
X031000Y008000D01*
X030000Y007000D02*
X030000Y005750D01*
X029750Y005500D02*
X027750Y005500D01*
X030000Y005750D02*
X029750Y005500D01*
X031000Y008000D02*
X030000Y007000D01*
X027750Y005500D03*
X026500Y005500D02*
X027750Y005500D01*
X023750Y005000D02*
X024250Y005500D01*
X021750Y005000D02*
X023750Y005000D01*
X021750Y005000D02*
X021000Y005000D01*
X020750Y006500D02*
X020750Y008750D01*
X021000Y005000D02*
X020750Y005250D01*
X024250Y005500D02*
X024951Y005500D01*
X024000Y006000D03*
X021750Y005750D02*
X021750Y005000D01*
X022549Y006500D02*
X020750Y006500D01*
X026500Y007000D02*
X026500Y006287D01*
X025750Y008750D02*
X025750Y008000D01*
X026000Y007750D02*
X027500Y007750D01*
X025750Y008000D02*
X026000Y007750D01*
X020750Y006500D02*
X020750Y006037D01*
X024951Y005500D02*
X026500Y005500D01*
X024951Y007000D02*
X026500Y007000D01*
X016500Y019500D03*
X013250Y018500D02*
X013250Y019500D01*
X015750Y031750D03*
X013250Y019500D03*
X013500Y018250D02*
X013250Y018500D01*
X014000Y018250D02*
X013500Y018250D01*
X020750Y032000D03*
X016250Y032000D03*
X020250Y031750D03*
X014000Y032000D03*
X018500Y032000D03*
X020000Y006000D02*
X013250Y006000D01*
X013250Y006000D02*
X012750Y006500D01*
X012750Y006500D03*
X018250Y010250D02*
X017750Y010750D01*
X019250Y014750D02*
X018750Y014750D01*
X017750Y005250D02*
X013000Y005250D01*
X020750Y005250D02*
X017750Y005250D01*
X029500Y029000D03*
X021000Y010250D02*
X018250Y010250D01*
X017750Y005250D03*
X023425Y013963D02*
X023500Y014037D01*
X020500Y013963D02*
X023425Y013963D01*
X019250Y013963D02*
X020500Y013963D01*
X020500Y014750D02*
X020500Y015500D01*
X018750Y014750D02*
X018250Y014250D01*
X019250Y014750D02*
X020500Y014750D01*
X020500Y015500D03*
X020963Y011325D02*
X021000Y011287D01*
X020963Y013000D02*
X020963Y011325D01*
X020463Y011287D02*
X020250Y011500D01*
X021000Y011287D02*
X020463Y011287D01*
X032500Y015433D02*
X032250Y015183D01*
X025000Y029000D03*
X013000Y005250D02*
X012000Y006250D01*
X021750Y010250D02*
X021000Y010250D01*
X021000Y010500D02*
X021000Y010250D01*
X028000Y018000D02*
X028000Y016933D01*
X028000Y016933D02*
X027750Y016683D01*
X020250Y011500D03*
X032500Y016500D03*
X028000Y018000D03*
D56*
X008250Y014750D03*
X011250Y016750D03*
X011250Y014750D03*
X011250Y017750D03*
X011250Y015750D03*
X008250Y016750D03*
X008250Y015750D03*
D58*
X022063Y032937D02*
X023250Y031750D01*
X021750Y035000D02*
X021750Y033187D01*
X022000Y032937D02*
X022063Y032937D01*
X023000Y020750D02*
X023000Y024500D01*
X023000Y024500D02*
X022000Y025500D01*
X019500Y035817D02*
X020933Y035817D01*
X020933Y035817D02*
X021750Y035000D01*
X023250Y028719D02*
X022000Y027469D01*
X023250Y031750D02*
X023250Y028719D01*
X021750Y033187D02*
X022000Y032937D01*
D60*
X027000Y025250D02*
X025750Y025250D01*
D61*
X026500Y014250D02*
X029317Y014250D01*
X029317Y014250D02*
X030250Y015183D01*
X025750Y027433D02*
X025750Y025250D01*
X031000Y020750D02*
X031250Y020500D01*
X018750Y025817D02*
X019500Y025067D01*
X018500Y030500D02*
X018500Y028500D01*
X025750Y015000D02*
X026500Y014250D01*
X018750Y028250D02*
X018750Y025817D01*
X025750Y016683D02*
X023567Y016683D01*
X025500Y036250D02*
X025500Y034000D01*
X025500Y034000D02*
X026750Y032750D01*
X023567Y016683D02*
X023000Y017250D01*
X030250Y024000D02*
X031000Y023250D01*
X031000Y023250D02*
X031000Y020750D01*
X025500Y036250D02*
X026750Y036250D01*
X030250Y027433D02*
X030250Y024000D01*
X018500Y028500D02*
X018750Y028250D01*
X014000Y016500D02*
X014750Y015750D01*
X014000Y018250D02*
X014000Y016500D01*
X017000Y015750D02*
X018500Y017250D01*
X025750Y016683D02*
X025750Y015000D01*
X025750Y023000D02*
X026750Y022000D01*
X025750Y025250D02*
X025750Y023000D01*
X014750Y015750D02*
X017000Y015750D01*
X015250Y027000D02*
X015250Y026250D01*
X015250Y023817D02*
X015000Y023567D01*
X015250Y026250D02*
X015250Y023817D01*
X014000Y030500D02*
X014000Y028250D01*
X014000Y028250D02*
X015250Y027000D01*
X018500Y019750D02*
X018500Y017250D01*
X018500Y017250D02*
X023000Y017250D01*
D62*
X031750Y006250D03*
X031750Y036250D03*
X009500Y036250D03*
X009500Y006250D03*
D63*
X023000Y036250D02*
X025500Y036250D01*
X015000Y035817D02*
X019500Y035817D01*
X023000Y017250D02*
X023000Y020750D01*
X022567Y035817D02*
X023000Y036250D01*
X026750Y032750D02*
X031250Y032750D01*
X019500Y035817D02*
X022567Y035817D01*
M02*
