M48
INCH,TZ
T01C0.0118
T02C0.0315
T03C0.0354
T04C0.0394
T05C0.1181
%
T01
X13750Y10250
X21250Y9750
X30750Y11500
X16750Y11250
X21000Y9500
X16000Y10500
X16000Y13750
X14750Y13750
X19750Y7500
X29250Y8000
X9000Y12500
X16750Y8250
X9250Y11500
X10000Y13000
X9750Y12750
T02
X18250Y14250
X21750Y10750
X15750Y31750
X20250Y11500
X20250Y31750
X13250Y19500
X16250Y32000
X20500Y15500
X17750Y5250
X20750Y32000
X20000Y6000
X15750Y11750
X25000Y12000
X24000Y6000
X27750Y5500
X22500Y12750
X25000Y29000
X29500Y29000
X18500Y32000
X12750Y6500
X14000Y32000
X16500Y19500
X29000Y7500
X28000Y7500
X30500Y10250
X19500Y9500
X16750Y10000
X26750Y28750
X13750Y10750
X20750Y21000
X10750Y10250
X25000Y7750
X26250Y29000
X19250Y13000
X28000Y18000
X31250Y28750
X30750Y29000
X32500Y16500
X23000Y33750
X30000Y35500
X10750Y21250
X10750Y22250
T03
X8250Y17750
X8250Y15750
X8250Y16750
X11250Y15750
X11250Y16750
X11250Y17750
X8250Y14750
X11250Y14750
T04
X29250Y9750
X29250Y8750
X29250Y10750
X15250Y9000
X12000Y8750
X12000Y11750
X12000Y28750
X12000Y9750
X12000Y10750
X29250Y11750
X24750Y8750
X23750Y8750
X26750Y8750
X25750Y8750
X12000Y19750
X12000Y21750
X12000Y22750
X12000Y20750
X14250Y9000
X22000Y32937
X16250Y9000
X13250Y9000
X20750Y8750
X17250Y9000
X21750Y8750
X22000Y30969
X12000Y32750
X12000Y33750
X18750Y8750
X12000Y31750
X12000Y29750
X19750Y8750
X22000Y25500
X22000Y27469
X12000Y27750
T05
X9500Y6250
X9500Y36250
X31750Y6250
X31750Y36250
M30
