G70*
%OFA0B0*%
%FSLAX24Y24*%
%IPPOS*%
%LPD*%
%ADD46C,0.0039*%
%ADD47C,0.0079*%
%ADD48C,0.0100*%
%ADD50C,0.0118*%
%ADD53C,0.0236*%
%ADD54C,0.0315*%
%ADD59C,0.0827*%
D46*
X022963Y007234D02*
X024537Y007234D01*
X024537Y007234D02*
X024537Y005266D01*
X022963Y005266D02*
X022963Y007234D01*
X024537Y005266D02*
X022963Y005266D01*
X010370Y011157D02*
X010370Y010843D01*
X011000Y010843D02*
X011000Y011157D01*
X010803Y011157D02*
X010803Y010843D01*
X011000Y011157D02*
X010803Y011157D01*
X010567Y011157D02*
X010567Y010843D01*
X010803Y011157D02*
X010567Y011157D01*
X010803Y010843D02*
X011000Y010843D01*
X010370Y010843D02*
X010567Y010843D01*
X010567Y010843D02*
X010803Y010843D01*
X020504Y005526D02*
X020504Y005250D01*
X020504Y005762D02*
X020504Y005526D01*
X020996Y005762D02*
X020996Y006037D01*
X020996Y005250D02*
X020996Y005526D01*
X020996Y005526D02*
X020996Y005762D01*
X020504Y005250D02*
X020996Y005250D01*
X020504Y006037D02*
X020504Y005762D01*
X020504Y005526D02*
X020996Y005526D01*
X020996Y005762D02*
X020504Y005762D01*
X021246Y011287D02*
X020754Y011287D01*
X020754Y010500D02*
X021246Y010500D01*
X011000Y008996D02*
X010724Y008996D01*
X010724Y008996D02*
X010488Y008996D01*
X021246Y011012D02*
X020754Y011012D01*
X020754Y010776D02*
X021246Y010776D01*
X020754Y011287D02*
X020754Y011012D01*
X010488Y008996D02*
X010213Y008996D01*
X010213Y008996D02*
X010213Y008504D01*
X011000Y008504D02*
X011000Y008996D01*
X010488Y008996D02*
X010488Y008504D01*
X010488Y008504D02*
X010724Y008504D01*
X010724Y008504D02*
X011000Y008504D01*
X010724Y008504D02*
X010724Y008996D01*
X010213Y008504D02*
X010488Y008504D01*
X021246Y010500D02*
X021246Y010776D01*
X021246Y010776D02*
X021246Y011012D01*
X021246Y011012D02*
X021246Y011287D01*
X020754Y011012D02*
X020754Y010776D01*
X020754Y010776D02*
X020754Y010500D01*
X010567Y011157D02*
X010370Y011157D01*
X010567Y012093D02*
X010803Y012093D01*
X010803Y012093D02*
X011000Y012093D01*
X010370Y012093D02*
X010567Y012093D01*
X010803Y012093D02*
X010803Y012407D01*
X010803Y012407D02*
X010567Y012407D01*
X011000Y012093D02*
X011000Y012407D01*
X010567Y012407D02*
X010370Y012407D01*
X011000Y012407D02*
X010803Y012407D01*
X010370Y012407D02*
X010370Y012093D01*
X010567Y012093D02*
X010567Y012407D01*
X023746Y014037D02*
X023254Y014037D01*
X023254Y013526D02*
X023746Y013526D01*
X023254Y013250D02*
X023746Y013250D01*
X023746Y013762D02*
X023254Y013762D01*
X023254Y013526D02*
X023254Y013250D01*
X023254Y014037D02*
X023254Y013762D01*
X023746Y013762D02*
X023746Y014037D01*
X023746Y013250D02*
X023746Y013526D01*
X023746Y013526D02*
X023746Y013762D01*
X021238Y012754D02*
X021474Y012754D01*
X020963Y012754D02*
X021238Y012754D01*
X021238Y013246D02*
X020963Y013246D01*
X021474Y012754D02*
X021750Y012754D01*
X023254Y013762D02*
X023254Y013526D01*
X021750Y012754D02*
X021750Y013246D01*
X021750Y013246D02*
X021474Y013246D01*
X021474Y013246D02*
X021238Y013246D01*
X021238Y013246D02*
X021238Y012754D01*
X020963Y013246D02*
X020963Y012754D01*
X021474Y012754D02*
X021474Y013246D01*
X018262Y013246D02*
X018026Y013246D01*
X027474Y009996D02*
X027238Y009996D01*
X027238Y009996D02*
X026963Y009996D01*
X027750Y009996D02*
X027474Y009996D01*
X027474Y009504D02*
X027474Y009996D01*
X027238Y009996D02*
X027238Y009504D01*
X027474Y009504D02*
X027750Y009504D01*
X026963Y009504D02*
X027238Y009504D01*
X027238Y009504D02*
X027474Y009504D01*
X027750Y009504D02*
X027750Y009996D01*
X026963Y009996D02*
X026963Y009504D01*
X026746Y006012D02*
X026254Y006012D01*
X026254Y005776D02*
X026746Y005776D01*
X026254Y005500D02*
X026746Y005500D01*
X026746Y006287D02*
X026254Y006287D01*
X015250Y010157D02*
X015053Y010157D01*
X015053Y010157D02*
X014817Y010157D01*
X014817Y010157D02*
X014620Y010157D01*
X014620Y010157D02*
X014620Y009843D01*
X014817Y009843D02*
X014817Y010157D01*
X014620Y009843D02*
X014817Y009843D01*
X015053Y009843D02*
X015250Y009843D01*
X015053Y009843D02*
X015053Y010157D01*
X014817Y009843D02*
X015053Y009843D01*
X020996Y006037D02*
X020504Y006037D01*
X026746Y006012D02*
X026746Y006287D01*
X026746Y005500D02*
X026746Y005776D01*
X026254Y005776D02*
X026254Y005500D01*
X026254Y006287D02*
X026254Y006012D01*
X026254Y006012D02*
X026254Y005776D01*
X026746Y005776D02*
X026746Y006012D01*
X019004Y013963D02*
X019496Y013963D01*
X019496Y014474D02*
X019004Y014474D01*
X019496Y014750D02*
X019004Y014750D01*
X020254Y014238D02*
X020746Y014238D01*
X020254Y014750D02*
X020254Y014474D01*
X020746Y014474D02*
X020254Y014474D01*
X020746Y014750D02*
X020254Y014750D01*
X020254Y013963D02*
X020746Y013963D01*
X020254Y014474D02*
X020254Y014238D01*
X020746Y014238D02*
X020746Y014474D01*
X020746Y013963D02*
X020746Y014238D01*
X020254Y014238D02*
X020254Y013963D01*
X020746Y014474D02*
X020746Y014750D01*
X015526Y011246D02*
X015526Y010754D01*
X016037Y011246D02*
X015762Y011246D01*
X015762Y010754D02*
X015762Y011246D01*
X016037Y010754D02*
X016037Y011246D01*
X015250Y011246D02*
X015250Y010754D01*
X015762Y011246D02*
X015526Y011246D01*
X015526Y010754D02*
X015762Y010754D01*
X015250Y009843D02*
X015250Y010157D01*
X015250Y010754D02*
X015526Y010754D01*
X015526Y011246D02*
X015250Y011246D01*
X015762Y010754D02*
X016037Y010754D01*
X019004Y014238D02*
X019004Y013963D01*
X019496Y014474D02*
X019496Y014750D01*
X019004Y014474D02*
X019004Y014238D01*
X019004Y014238D02*
X019496Y014238D01*
X019004Y014750D02*
X019004Y014474D01*
X019496Y013963D02*
X019496Y014238D01*
X019496Y014238D02*
X019496Y014474D01*
X031250Y010843D02*
X031250Y011157D01*
X030620Y011157D02*
X030620Y010843D01*
X030817Y010843D02*
X030817Y011157D01*
X018537Y011504D02*
X018537Y011996D01*
X017750Y011996D02*
X017750Y011504D01*
X018262Y011504D02*
X018262Y011996D01*
X018026Y011996D02*
X018026Y011504D01*
X031250Y009657D02*
X031053Y009657D01*
X030817Y009657D02*
X030620Y009657D01*
X030817Y009657D02*
X030817Y009343D01*
X031053Y009657D02*
X030817Y009657D01*
X031250Y009343D02*
X031250Y009657D01*
X031053Y009657D02*
X031053Y009343D01*
X030620Y009657D02*
X030620Y009343D01*
X031053Y009343D02*
X031250Y009343D01*
X018026Y011504D02*
X018262Y011504D01*
X017750Y011504D02*
X018026Y011504D01*
X030620Y009343D02*
X030817Y009343D01*
X030817Y009343D02*
X031053Y009343D01*
X018262Y012754D02*
X018537Y012754D01*
X018026Y013246D02*
X017750Y013246D01*
X018026Y012754D02*
X018262Y012754D01*
X017750Y012754D02*
X018026Y012754D01*
X030974Y012746D02*
X030738Y012746D01*
X030738Y012746D02*
X030738Y012254D01*
X030974Y012254D02*
X030974Y012746D01*
X030463Y012746D02*
X030463Y012254D01*
X031250Y012254D02*
X031250Y012746D01*
X030463Y012254D02*
X030738Y012254D01*
X030738Y012746D02*
X030463Y012746D01*
X031250Y012746D02*
X030974Y012746D01*
X030738Y012254D02*
X030974Y012254D01*
X030974Y012254D02*
X031250Y012254D01*
X018537Y012754D02*
X018537Y013246D01*
X017750Y013246D02*
X017750Y012754D01*
X018026Y013246D02*
X018026Y012754D01*
X018537Y013246D02*
X018262Y013246D01*
X018262Y012754D02*
X018262Y013246D01*
X030817Y011157D02*
X030620Y011157D01*
X031250Y011157D02*
X031053Y011157D01*
X031053Y010843D02*
X031053Y011157D01*
X030817Y010843D02*
X031053Y010843D01*
X031053Y011157D02*
X030817Y011157D01*
X030620Y010843D02*
X030817Y010843D01*
X031053Y010843D02*
X031250Y010843D01*
X018026Y011996D02*
X017750Y011996D01*
X018262Y011504D02*
X018537Y011504D01*
X018262Y011996D02*
X018026Y011996D01*
X018537Y011996D02*
X018262Y011996D01*
D47*
X020057Y010283D02*
X020116Y010343D01*
X008841Y024101D02*
X008939Y024003D01*
X016276Y013193D02*
X016187Y013193D01*
X020057Y010697D02*
X020116Y010756D01*
X020441Y010756D02*
X020441Y010638D01*
X020057Y010283D02*
X020441Y010283D01*
X016335Y012868D02*
X016335Y012809D01*
X031014Y013443D02*
X031102Y013443D01*
X031014Y013443D02*
X030955Y013384D01*
X030955Y013118D02*
X031014Y013059D01*
X031161Y013384D02*
X031161Y013118D01*
X031102Y013443D02*
X031161Y013384D01*
X020441Y010343D02*
X020441Y010224D01*
X016128Y012809D02*
X016335Y012809D01*
X016128Y013075D02*
X016335Y012868D01*
X017014Y013193D02*
X017102Y013193D01*
X017102Y013193D02*
X017161Y013134D01*
X016955Y012868D02*
X017014Y012809D01*
X017014Y013193D02*
X016955Y013134D01*
X017161Y013134D02*
X017161Y012868D01*
X017102Y012809D02*
X017014Y012809D01*
X016659Y013193D02*
X016659Y012809D01*
X017161Y012868D02*
X017102Y012809D01*
X016659Y013193D02*
X016719Y013134D01*
X016276Y013193D02*
X016335Y013134D01*
X016128Y013075D02*
X016128Y013134D01*
X031161Y013118D02*
X031102Y013059D01*
X031102Y013059D02*
X031014Y013059D01*
X016719Y012809D02*
X016600Y012809D01*
X030748Y013118D02*
X030748Y013059D01*
X030541Y013325D02*
X030541Y013384D01*
X030689Y013443D02*
X030748Y013384D01*
X030600Y013443D02*
X030541Y013384D01*
X030689Y013443D02*
X030600Y013443D01*
X016187Y013193D02*
X016128Y013134D01*
X030541Y013059D02*
X030748Y013059D01*
X030541Y013325D02*
X030748Y013118D01*
X018159Y011193D02*
X018159Y010809D01*
X018602Y010809D02*
X018514Y010809D01*
X018219Y010809D02*
X018100Y010809D01*
X017687Y011193D02*
X017628Y011134D01*
X018159Y011193D02*
X018219Y011134D01*
X018514Y011193D02*
X018602Y011193D01*
X018514Y011193D02*
X018455Y011134D01*
X018602Y011193D02*
X018661Y011134D01*
X018661Y010868D02*
X018602Y010809D01*
X018661Y011134D02*
X018661Y010868D01*
X017628Y011075D02*
X017628Y011134D01*
X018455Y010868D02*
X018514Y010809D01*
X017628Y011075D02*
X017687Y011016D01*
X017687Y010809D02*
X017776Y010809D01*
X017776Y011193D02*
X017687Y011193D01*
X017776Y010809D02*
X017835Y010868D01*
X017687Y011016D02*
X017628Y010957D01*
X017687Y011016D02*
X017776Y011016D01*
X017628Y010957D02*
X017628Y010868D01*
X017776Y011193D02*
X017835Y011134D01*
X017628Y010868D02*
X017687Y010809D01*
X031100Y011545D02*
X031041Y011486D01*
X031041Y011486D02*
X031041Y011368D01*
X031041Y011368D02*
X031100Y011309D01*
X031573Y011516D02*
X031455Y011309D01*
X031100Y011309D02*
X031189Y011309D01*
X031189Y011309D02*
X031248Y011368D01*
X031248Y011693D02*
X031071Y011693D01*
X031100Y011545D02*
X031248Y011545D01*
X031248Y011693D02*
X031248Y011545D01*
X020382Y011199D02*
X020441Y011140D01*
X020441Y011140D02*
X020441Y011051D01*
X020116Y011199D02*
X020382Y011199D01*
X020057Y011051D02*
X020057Y011140D01*
X020057Y011140D02*
X020116Y011199D01*
X020057Y010697D02*
X020441Y010697D01*
X020382Y010992D02*
X020441Y011051D01*
X020057Y011051D02*
X020116Y010992D01*
X031514Y011693D02*
X031455Y011634D01*
X031455Y011634D02*
X031455Y011575D01*
X031514Y011516D02*
X031661Y011516D01*
X031661Y011309D02*
X031661Y011693D01*
X031455Y011575D02*
X031514Y011516D01*
X031661Y011693D02*
X031514Y011693D01*
X009525Y032707D02*
X009500Y032756D01*
X009500Y032756D02*
X009500Y032879D01*
X023911Y007618D02*
X023852Y007559D01*
X023705Y007618D02*
X023764Y007559D01*
X009598Y032977D02*
X009746Y032977D01*
X009746Y032977D02*
X009820Y032928D01*
X009500Y032879D02*
X009525Y032928D01*
X009525Y032928D02*
X009598Y032977D01*
X023409Y007943D02*
X023469Y007884D01*
X023469Y007559D02*
X023350Y007559D01*
X009746Y032657D02*
X009598Y032657D01*
X009598Y032657D02*
X009525Y032707D01*
X023911Y007943D02*
X023911Y007618D01*
X023852Y007559D02*
X023764Y007559D01*
X023409Y007943D02*
X023409Y007559D01*
X023705Y007618D02*
X023705Y007943D01*
X009820Y032928D02*
X009844Y032879D01*
X021457Y006209D02*
X021368Y006209D01*
X021516Y006150D02*
X021457Y006209D01*
X009014Y008943D02*
X008955Y008884D01*
X021368Y006209D02*
X021309Y006150D01*
X009648Y033223D02*
X009795Y033248D01*
X009475Y033100D02*
X009549Y033174D01*
X009549Y033174D02*
X009648Y033223D01*
X021693Y006061D02*
X021693Y006150D01*
X021693Y006061D02*
X021634Y006002D01*
X021309Y006061D02*
X021368Y006002D01*
X021309Y006150D02*
X021309Y006061D01*
X009869Y032387D02*
X009869Y031895D01*
X009820Y031944D02*
X009672Y031944D01*
X009672Y031772D02*
X009672Y032485D01*
X010066Y031895D02*
X010066Y032411D01*
X010066Y032141D02*
X009475Y032141D01*
X009820Y031329D02*
X009771Y031378D01*
X009771Y031378D02*
X009746Y031427D01*
X010066Y031378D02*
X010017Y031329D01*
X010017Y031329D02*
X009820Y031329D01*
X009918Y031796D02*
X010017Y031870D01*
X010017Y031870D02*
X010164Y031944D01*
X009746Y031427D02*
X009746Y031575D01*
X009746Y031575D02*
X009820Y031649D01*
X010091Y032879D02*
X010017Y032953D01*
X010017Y032953D02*
X009918Y032953D01*
X010017Y032682D02*
X010091Y032756D01*
X010091Y032756D02*
X010091Y032879D01*
X009844Y032756D02*
X009820Y032707D01*
X009820Y032707D02*
X009746Y032657D01*
X009918Y032953D02*
X009844Y032879D01*
X009844Y032879D02*
X009844Y032756D01*
X009844Y032756D02*
X009918Y032682D01*
X009918Y032682D02*
X010017Y032682D01*
X021516Y006150D02*
X021516Y006061D01*
X016161Y009809D02*
X016161Y010193D01*
X016161Y010193D02*
X016014Y010193D01*
X016073Y010016D02*
X015955Y009809D01*
X016014Y010016D02*
X016161Y010016D01*
X016014Y010193D02*
X015955Y010134D01*
X015955Y010075D02*
X016014Y010016D01*
X015955Y010134D02*
X015955Y010075D01*
X009161Y008825D02*
X009161Y008884D01*
X009161Y008825D02*
X009102Y008766D01*
X015719Y009809D02*
X015600Y009809D01*
X015659Y010193D02*
X015659Y009809D01*
X015659Y010193D02*
X015719Y010134D01*
X015352Y011943D02*
X015411Y011884D01*
X015264Y011943D02*
X015352Y011943D01*
X015411Y011618D02*
X015352Y011559D01*
X015411Y011884D02*
X015411Y011618D01*
X019443Y015561D02*
X019443Y015650D01*
X015264Y011943D02*
X015205Y011884D01*
X015205Y011618D02*
X015264Y011559D01*
X014909Y011943D02*
X014909Y011559D01*
X015352Y011559D02*
X015264Y011559D01*
X014909Y011943D02*
X014969Y011884D01*
X014969Y011559D02*
X014850Y011559D01*
X009014Y008766D02*
X009102Y008766D01*
X009014Y008766D02*
X008955Y008707D01*
X021693Y005736D02*
X021634Y005795D01*
X021368Y005795D02*
X021309Y005736D01*
X009102Y008943D02*
X009161Y008884D01*
X009102Y008943D02*
X009014Y008943D01*
X008955Y008707D02*
X008955Y008618D01*
X008955Y008618D02*
X009014Y008559D01*
X021693Y006150D02*
X021634Y006209D01*
X021309Y005648D02*
X021309Y005736D01*
X021575Y006209D02*
X021516Y006150D01*
X021575Y006209D02*
X021634Y006209D01*
X021693Y005648D02*
X021634Y005589D01*
X021693Y005736D02*
X021693Y005648D01*
X021368Y005589D02*
X021309Y005648D01*
X021634Y005589D02*
X021368Y005589D01*
X009014Y008559D02*
X009102Y008559D01*
X027384Y005839D02*
X027118Y005839D01*
X027443Y005898D02*
X027384Y005839D01*
X027059Y005898D02*
X027059Y005986D01*
X027118Y005839D02*
X027059Y005898D01*
X027118Y006045D02*
X027059Y005986D01*
X009102Y008559D02*
X009161Y008618D01*
X027443Y005986D02*
X027443Y005898D01*
X027443Y005986D02*
X027384Y006045D01*
X027443Y006252D02*
X027443Y006429D01*
X027443Y006252D02*
X027295Y006252D01*
X027059Y006311D02*
X027118Y006252D01*
X027059Y006400D02*
X027059Y006311D01*
X027295Y006400D02*
X027236Y006459D01*
X027118Y006459D02*
X027059Y006400D01*
X027295Y006400D02*
X027295Y006252D01*
X027236Y006459D02*
X027118Y006459D01*
X010091Y031427D02*
X010066Y031378D01*
X009992Y030320D02*
X009918Y030320D01*
X009918Y030320D02*
X009795Y030271D01*
X010823Y012766D02*
X010705Y012559D01*
X010764Y012766D02*
X010911Y012766D01*
X009943Y030443D02*
X009648Y030443D01*
X009648Y030443D02*
X009549Y030492D01*
X009795Y030271D02*
X009500Y030000D01*
X009500Y030000D02*
X009500Y030344D01*
X010350Y012943D02*
X010439Y012943D01*
X010439Y012736D02*
X010498Y012795D01*
X010498Y012884D02*
X010498Y012795D01*
X010439Y012943D02*
X010498Y012884D01*
X010350Y012943D02*
X010291Y012884D01*
X010291Y012795D02*
X010350Y012736D01*
X010350Y012736D02*
X010439Y012736D01*
X010291Y012884D02*
X010291Y012707D01*
X010911Y012559D02*
X010911Y012943D01*
X031205Y010325D02*
X031264Y010266D01*
X031411Y010443D02*
X031264Y010443D01*
X031264Y010443D02*
X031205Y010384D01*
X031205Y010384D02*
X031205Y010325D01*
X031323Y010266D02*
X031205Y010059D01*
X030850Y010443D02*
X030791Y010384D01*
X031411Y010059D02*
X031411Y010443D01*
X031264Y010266D02*
X031411Y010266D01*
X010705Y012884D02*
X010705Y012825D01*
X010764Y012943D02*
X010705Y012884D01*
X010911Y012943D02*
X010764Y012943D01*
X010705Y012825D02*
X010764Y012766D01*
X009968Y030000D02*
X010041Y030049D01*
X010041Y030049D02*
X010091Y030123D01*
X010066Y030271D02*
X009992Y030320D01*
X010409Y009722D02*
X010557Y009398D01*
X010091Y030123D02*
X010091Y030221D01*
X010091Y030221D02*
X010066Y030271D01*
X010557Y009398D02*
X010291Y009398D01*
X010321Y012618D02*
X010291Y012707D01*
X010439Y012559D02*
X010321Y012618D01*
X010911Y009368D02*
X010852Y009309D01*
X010911Y009634D02*
X010911Y009368D01*
X010350Y009604D02*
X010350Y009309D01*
X010852Y009309D02*
X010764Y009309D01*
X010764Y009693D02*
X010705Y009634D01*
X010705Y009368D02*
X010764Y009309D01*
X010852Y009693D02*
X010911Y009634D01*
X010764Y009693D02*
X010852Y009693D01*
X030791Y010325D02*
X030791Y010384D01*
X010823Y011516D02*
X010705Y011309D01*
X010764Y011516D02*
X010911Y011516D01*
X031996Y008943D02*
X031996Y008559D01*
X010291Y011368D02*
X010350Y011309D01*
X010705Y011575D02*
X010764Y011516D01*
X010705Y011634D02*
X010705Y011575D01*
X010911Y011309D02*
X010911Y011693D01*
X010911Y011693D02*
X010764Y011693D01*
X032911Y008825D02*
X032911Y008884D01*
X032911Y008825D02*
X032852Y008766D01*
X032764Y008559D02*
X032852Y008559D01*
X032852Y008559D02*
X032911Y008618D01*
X032321Y008559D02*
X032291Y008943D01*
X032409Y008766D02*
X032321Y008559D01*
X032528Y008943D02*
X032498Y008559D01*
X032498Y008559D02*
X032409Y008766D01*
X010764Y011693D02*
X010705Y011634D01*
X009500Y031526D02*
X009549Y031599D01*
X009549Y031599D02*
X009648Y031649D01*
X009549Y031329D02*
X009500Y031427D01*
X009500Y031427D02*
X009500Y031526D01*
X010066Y031599D02*
X010091Y031550D01*
X010091Y031550D02*
X010091Y031427D01*
X009648Y031649D02*
X010017Y031649D01*
X010017Y031649D02*
X010066Y031599D01*
X032055Y008559D02*
X031937Y008559D01*
X031996Y008943D02*
X032055Y008884D01*
X010115Y031058D02*
X009943Y030960D01*
X009943Y030763D02*
X010041Y030714D01*
X032764Y008943D02*
X032705Y008884D01*
X009549Y030714D02*
X009648Y030763D01*
X009648Y030763D02*
X009943Y030763D01*
X032705Y008707D02*
X032705Y008618D01*
X032705Y008618D02*
X032764Y008559D01*
X032764Y008766D02*
X032852Y008766D01*
X032764Y008766D02*
X032705Y008707D01*
X030791Y010059D02*
X030998Y010059D01*
X030791Y010325D02*
X030998Y010118D01*
X030939Y010443D02*
X030998Y010384D01*
X030939Y010443D02*
X030850Y010443D01*
X009500Y030566D02*
X009500Y030640D01*
X009500Y030640D02*
X009549Y030714D01*
X030998Y010118D02*
X030998Y010059D01*
X009549Y030492D02*
X009500Y030566D01*
X032852Y008943D02*
X032911Y008884D01*
X010350Y011516D02*
X010291Y011457D01*
X010091Y030640D02*
X010091Y030566D01*
X010350Y011309D02*
X010439Y011309D01*
X010291Y011457D02*
X010291Y011368D01*
X009500Y030960D02*
X009500Y031156D01*
X009500Y031058D02*
X010115Y031058D01*
X010091Y030566D02*
X010041Y030492D01*
X010041Y030492D02*
X009943Y030443D01*
X010469Y011604D02*
X010498Y011469D01*
X010469Y011604D02*
X010409Y011693D01*
X032852Y008943D02*
X032764Y008943D01*
X010041Y030714D02*
X010091Y030640D01*
X010350Y011516D02*
X010439Y011516D01*
X010439Y011309D02*
X010498Y011368D01*
X010498Y011469D02*
X010498Y011368D01*
X010439Y011516D02*
X010498Y011457D01*
X008914Y031734D02*
X008225Y031734D01*
X008471Y032005D02*
X008570Y031956D01*
X008225Y032103D02*
X008225Y032054D01*
X008718Y031734D02*
X008521Y031660D01*
X008521Y031857D02*
X008619Y031759D01*
X008742Y031587D02*
X008742Y031857D01*
X008521Y031660D02*
X008422Y031587D01*
X008865Y031341D02*
X008250Y031341D01*
X008865Y030750D02*
X008865Y031341D01*
X008250Y030750D02*
X008865Y030750D01*
X008570Y031341D02*
X008570Y030750D01*
X008250Y032153D02*
X008225Y032103D01*
X008914Y032153D02*
X008250Y032153D01*
X008693Y031882D02*
X008693Y032276D01*
X008275Y033383D02*
X008275Y033555D01*
X008398Y033654D02*
X008275Y033481D01*
X008521Y033777D02*
X008398Y033654D01*
X008275Y033555D02*
X008324Y033949D01*
X008865Y019721D02*
X008718Y019721D01*
X008324Y033973D02*
X008225Y033998D01*
X008422Y033924D02*
X008324Y033973D01*
X008767Y033703D02*
X008619Y033604D01*
X008816Y034047D02*
X008816Y033358D01*
X008914Y033703D02*
X008816Y033703D01*
X008619Y033604D02*
X008545Y033531D01*
X008644Y033850D02*
X008521Y033777D01*
X008521Y033531D02*
X008398Y033629D01*
X008594Y033457D02*
X008521Y033531D01*
X008275Y031341D02*
X008275Y030750D01*
X008778Y008943D02*
X008748Y008559D01*
X027705Y010368D02*
X027764Y010309D01*
X027764Y010693D02*
X027705Y010634D01*
X008748Y008559D02*
X008659Y008766D01*
X008187Y008943D02*
X008128Y008884D01*
X008659Y008766D02*
X008571Y008559D01*
X008571Y008559D02*
X008541Y008943D01*
X027852Y010309D02*
X027764Y010309D01*
X027291Y010545D02*
X027350Y010486D01*
X027350Y010693D02*
X027291Y010634D01*
X027911Y010368D02*
X027852Y010309D01*
X027764Y010693D02*
X027852Y010693D01*
X027852Y010693D02*
X027911Y010634D01*
X027911Y010634D02*
X027911Y010368D01*
X008128Y008559D02*
X008335Y008559D01*
X008276Y008943D02*
X008187Y008943D01*
X008276Y008943D02*
X008335Y008884D01*
X008128Y008825D02*
X008335Y008618D01*
X008865Y031045D02*
X008275Y031045D01*
X009746Y033666D02*
X009746Y033248D01*
X008335Y008618D02*
X008335Y008559D01*
X010140Y033248D02*
X010140Y033666D01*
X009795Y033248D02*
X010140Y033248D01*
X008128Y008825D02*
X008128Y008884D01*
X010140Y033666D02*
X009500Y033666D01*
X009943Y033248D02*
X009943Y033666D01*
X009475Y033642D02*
X009475Y033568D01*
X009500Y033666D02*
X009475Y033642D01*
X008718Y022551D02*
X008496Y022551D01*
X008841Y022576D02*
X008718Y022551D01*
X008398Y022256D02*
X008299Y022182D01*
X008496Y022551D02*
X008324Y022600D01*
X008767Y023043D02*
X008545Y023142D01*
X008250Y022674D02*
X008398Y022797D01*
X008324Y022600D02*
X008250Y022674D01*
X008496Y021665D02*
X008324Y021715D01*
X008718Y021665D02*
X008496Y021665D01*
X008841Y021690D02*
X008718Y021665D01*
X008324Y021715D02*
X008250Y021788D01*
X008545Y022256D02*
X008398Y022256D01*
X008767Y022157D02*
X008545Y022256D01*
X008250Y021788D02*
X008398Y021911D01*
X008471Y023609D02*
X008373Y023609D01*
X008545Y023658D02*
X008471Y023609D01*
X008619Y023831D02*
X008545Y023658D01*
X008373Y023609D02*
X008299Y023658D01*
X008742Y024077D02*
X008841Y023978D01*
X008250Y023757D02*
X008250Y023929D01*
X008299Y023658D02*
X008250Y023757D01*
X008594Y023412D02*
X008718Y023732D01*
X008398Y023142D02*
X008299Y023068D01*
X008545Y023142D02*
X008398Y023142D01*
X008718Y023732D02*
X008865Y023905D01*
X008619Y023511D02*
X008619Y024028D01*
X008841Y023560D02*
X008890Y023511D01*
X008865Y023905D02*
X008841Y023560D01*
X008373Y021272D02*
X008275Y021395D01*
X008250Y019648D02*
X008324Y019721D01*
X008250Y019500D02*
X008250Y019648D01*
X008299Y019451D02*
X008250Y019500D01*
X008324Y019721D02*
X008398Y019746D01*
X008570Y020312D02*
X008570Y020607D01*
X008767Y020017D02*
X008373Y020017D01*
X008570Y019869D02*
X008570Y020164D01*
X008865Y019623D02*
X008865Y019500D01*
X008841Y019672D02*
X008865Y019623D01*
X008767Y019721D02*
X008841Y019672D01*
X008865Y019500D02*
X008816Y019451D01*
X008422Y019402D02*
X008299Y019451D01*
X008718Y019402D02*
X008422Y019402D01*
X008816Y019451D02*
X008718Y019402D01*
X008250Y021099D02*
X008299Y021026D01*
X008250Y021173D02*
X008250Y021099D01*
X008324Y021247D02*
X008250Y021173D01*
X008299Y021026D02*
X008373Y021026D01*
X008422Y021173D02*
X008373Y021272D01*
X008422Y021099D02*
X008422Y021173D01*
X008373Y021026D02*
X008422Y021099D01*
X008742Y020780D02*
X008373Y020780D01*
X008890Y020804D02*
X008742Y020780D01*
X008767Y020460D02*
X008373Y020460D01*
X008373Y020780D02*
X008225Y020804D01*
X008890Y021247D02*
X008324Y021247D01*
X008742Y020927D02*
X008742Y021395D01*
X008225Y020804D02*
X008324Y020853D01*
X027291Y010634D02*
X027291Y010457D01*
X021764Y013943D02*
X021852Y013943D01*
X021764Y013943D02*
X021705Y013884D01*
X021911Y013884D02*
X021911Y013618D01*
X021852Y013943D02*
X021911Y013884D01*
X024118Y014165D02*
X024059Y014224D01*
X024384Y014165D02*
X024118Y014165D01*
X021705Y013618D02*
X021764Y013559D01*
X024059Y014313D02*
X024059Y014224D01*
X021911Y013618D02*
X021852Y013559D01*
X021439Y013559D02*
X021498Y013618D01*
X021350Y013559D02*
X021439Y013559D01*
X021439Y013766D02*
X021498Y013707D01*
X021350Y013766D02*
X021439Y013766D01*
X021291Y013618D02*
X021350Y013559D01*
X021852Y013559D02*
X021764Y013559D01*
X021291Y013707D02*
X021291Y013618D01*
X021350Y013766D02*
X021291Y013707D01*
X024443Y014224D02*
X024443Y014313D01*
X024443Y013486D02*
X024443Y013398D01*
X024443Y013486D02*
X024384Y013545D01*
X024384Y013339D02*
X024118Y013339D01*
X024443Y013398D02*
X024384Y013339D01*
X026809Y011945D02*
X026809Y012063D01*
X027193Y012004D02*
X026809Y012004D01*
X024118Y013545D02*
X024059Y013486D01*
X027193Y012004D02*
X027134Y011945D01*
X024118Y013339D02*
X024059Y013398D01*
X024384Y014372D02*
X024118Y014372D01*
X024443Y014313D02*
X024384Y014372D01*
X024443Y014224D02*
X024384Y014165D01*
X024118Y014372D02*
X024059Y014313D01*
X024443Y013841D02*
X024059Y013841D01*
X024059Y013398D02*
X024059Y013486D01*
X024443Y013841D02*
X024384Y013781D01*
X024059Y013781D02*
X024059Y013900D01*
X019207Y015709D02*
X019118Y015709D01*
X019266Y015650D02*
X019207Y015709D01*
X019384Y015709D02*
X019325Y015709D01*
X019443Y015650D02*
X019384Y015709D01*
X019118Y015089D02*
X019059Y015148D01*
X019384Y015089D02*
X019118Y015089D01*
X019118Y015709D02*
X019059Y015650D01*
X019059Y015148D02*
X019059Y015236D01*
X019325Y015709D02*
X019266Y015650D01*
X019266Y015561D02*
X019325Y015502D01*
X019207Y015502D02*
X019118Y015502D01*
X019384Y015502D02*
X019443Y015561D01*
X019325Y015502D02*
X019384Y015502D01*
X019059Y015561D02*
X019118Y015502D01*
X019059Y015650D02*
X019059Y015561D01*
X019266Y015561D02*
X019207Y015502D01*
X019266Y015650D02*
X019266Y015561D01*
X019443Y015148D02*
X019384Y015089D01*
X021443Y014486D02*
X021443Y014398D01*
X021443Y014486D02*
X021384Y014545D01*
X021384Y014339D02*
X021118Y014339D01*
X021443Y014398D02*
X021384Y014339D01*
X021469Y013854D02*
X021409Y013943D01*
X021498Y013719D02*
X021498Y013618D01*
X021118Y014545D02*
X021059Y014486D01*
X021469Y013854D02*
X021498Y013719D01*
X021118Y014339D02*
X021059Y014398D01*
X019118Y015295D02*
X019059Y015236D01*
X021443Y014752D02*
X021443Y014959D01*
X019443Y015236D02*
X019443Y015148D01*
X019443Y015236D02*
X019384Y015295D01*
X021443Y014959D02*
X021354Y014959D01*
X021059Y014398D02*
X021059Y014486D01*
X021354Y014752D02*
X021443Y014752D01*
X021354Y014959D02*
X021059Y014841D01*
X027350Y010693D02*
X027439Y010693D01*
X027439Y010693D02*
X027498Y010634D01*
X027193Y011650D02*
X027193Y011561D01*
X026868Y011709D02*
X026809Y011650D01*
X027193Y011650D02*
X027134Y011709D01*
X027134Y011502D02*
X026868Y011502D01*
X027193Y011561D02*
X027134Y011502D01*
X026868Y011502D02*
X026809Y011561D01*
X027498Y010634D02*
X027498Y010545D01*
X026809Y011561D02*
X026809Y011650D01*
X027439Y010309D02*
X027321Y010368D01*
X027321Y010368D02*
X027291Y010457D01*
X027193Y011177D02*
X026809Y011177D01*
X026809Y011118D02*
X026809Y011236D01*
X027350Y010486D02*
X027439Y010486D01*
X027193Y011118D02*
X027193Y011236D01*
X027439Y010486D02*
X027498Y010545D01*
D48*
X011411Y005841D02*
X011411Y005329D01*
X011805Y005329D02*
X011805Y005841D01*
X011411Y005841D02*
X011490Y005762D01*
X011490Y005329D02*
X011333Y005329D01*
X032593Y017841D02*
X032671Y017762D01*
X016356Y033012D02*
X016356Y032697D01*
X016356Y032697D02*
X016435Y032618D01*
X016671Y033012D02*
X016671Y032697D01*
X016671Y032697D02*
X016593Y032618D01*
X016435Y032618D02*
X016593Y032618D01*
X016041Y032579D02*
X015884Y032579D01*
X015963Y033091D02*
X016041Y033012D01*
X016553Y032815D02*
X016356Y032579D01*
X015963Y033091D02*
X015963Y032579D01*
X020581Y033091D02*
X020581Y032894D01*
X020581Y033091D02*
X020344Y033091D01*
X020305Y032815D02*
X020305Y032657D01*
X020384Y032894D02*
X020581Y032894D01*
X020384Y032579D02*
X020502Y032579D01*
X016593Y033091D02*
X016435Y033091D01*
X016435Y033091D02*
X016356Y033012D01*
X020502Y032579D02*
X020581Y032657D01*
X016593Y033091D02*
X016671Y033012D01*
X020384Y032894D02*
X020305Y032815D01*
X027305Y029933D02*
X027305Y030012D01*
X027384Y030091D02*
X027305Y030012D01*
X027384Y029854D02*
X027502Y029854D01*
X027305Y029933D02*
X027384Y029854D01*
X028053Y029815D02*
X027856Y029579D01*
X027856Y030012D02*
X027856Y029697D01*
X028171Y029697D02*
X028093Y029618D01*
X027935Y029618D02*
X028093Y029618D01*
X027856Y029697D02*
X027935Y029618D01*
X027502Y029579D02*
X027581Y029657D01*
X027384Y029579D02*
X027502Y029579D01*
X031805Y017683D02*
X031884Y017604D01*
X031884Y017329D02*
X032002Y017329D01*
X027502Y030091D02*
X027384Y030091D01*
X027305Y029776D02*
X027305Y029657D01*
X027384Y029854D02*
X027305Y029776D01*
X027502Y030091D02*
X027581Y030012D01*
X027305Y029657D02*
X027384Y029579D01*
X028171Y030012D02*
X028171Y029697D01*
X028093Y030091D02*
X028171Y030012D01*
X027935Y030091D02*
X027856Y030012D01*
X028093Y030091D02*
X027935Y030091D01*
X031805Y017762D02*
X031805Y017683D01*
X027856Y019262D02*
X027856Y018947D01*
X028171Y018947D02*
X028093Y018868D01*
X027935Y018868D02*
X028093Y018868D01*
X027856Y018947D02*
X027935Y018868D01*
X028171Y019262D02*
X028171Y018947D01*
X028093Y019341D02*
X028171Y019262D01*
X032356Y017447D02*
X032435Y017368D01*
X027935Y019341D02*
X027856Y019262D01*
X028093Y019341D02*
X027935Y019341D01*
X032671Y017762D02*
X032671Y017447D01*
X032671Y017447D02*
X032593Y017368D01*
X032593Y017841D02*
X032435Y017841D01*
X032435Y017841D02*
X032356Y017762D01*
X032356Y017762D02*
X032356Y017447D01*
X027384Y019222D02*
X027384Y018829D01*
X028053Y019065D02*
X027856Y018829D01*
X027463Y019380D02*
X027659Y018947D01*
X027659Y018947D02*
X027305Y018947D01*
X032435Y017368D02*
X032593Y017368D01*
X032671Y029697D02*
X032593Y029618D01*
X032671Y030012D02*
X032671Y029697D01*
X032356Y029697D02*
X032435Y029618D01*
X032356Y030012D02*
X032356Y029697D01*
X032435Y030091D02*
X032356Y030012D01*
X031805Y017526D02*
X031805Y017407D01*
X031884Y017841D02*
X031805Y017762D01*
X032593Y030091D02*
X032435Y030091D01*
X032593Y030091D02*
X032671Y030012D01*
X031884Y017604D02*
X031805Y017526D01*
X032081Y030091D02*
X031805Y030091D01*
X032553Y017565D02*
X032356Y017329D01*
X031805Y017407D02*
X031884Y017329D01*
X032081Y029972D02*
X032081Y030091D01*
X032553Y029815D02*
X032356Y029579D01*
X032435Y029618D02*
X032593Y029618D01*
X031805Y029972D02*
X031963Y029579D01*
X031805Y030091D02*
X031805Y029972D01*
X016343Y020841D02*
X016421Y020762D01*
X016343Y020841D02*
X016185Y020841D01*
X020291Y022222D02*
X020213Y022341D01*
X020291Y022222D02*
X020331Y022041D01*
X016185Y020841D02*
X016106Y020762D01*
X016106Y020762D02*
X016106Y020447D01*
X016106Y020447D02*
X016185Y020368D01*
X016421Y020762D02*
X016421Y020447D01*
X016421Y020447D02*
X016343Y020368D01*
X020134Y022104D02*
X020055Y022026D01*
X020055Y022026D02*
X020055Y021907D01*
X020803Y022065D02*
X020606Y021829D01*
X020055Y021907D02*
X020134Y021829D01*
X020134Y021829D02*
X020252Y021829D01*
X020252Y022104D02*
X020331Y022026D01*
X020331Y022041D02*
X020331Y021907D01*
X020252Y021829D02*
X020331Y021907D01*
X020134Y022104D02*
X020252Y022104D01*
X016185Y020368D02*
X016343Y020368D01*
X021171Y033012D02*
X021171Y032697D01*
X021171Y032697D02*
X021093Y032618D01*
X021093Y033091D02*
X020935Y033091D01*
X020935Y033091D02*
X020856Y033012D01*
X020856Y033012D02*
X020856Y032697D01*
X021053Y032815D02*
X020856Y032579D01*
X020305Y032657D02*
X020384Y032579D01*
X020856Y032697D02*
X020935Y032618D01*
X020935Y032618D02*
X021093Y032618D01*
X015555Y020683D02*
X015555Y020762D01*
X015752Y020841D02*
X015831Y020762D01*
X016303Y020565D02*
X016106Y020329D01*
X015634Y020841D02*
X015555Y020762D01*
X015752Y020841D02*
X015634Y020841D01*
X015831Y020407D02*
X015831Y020329D01*
X021093Y033091D02*
X021171Y033012D01*
X015555Y020329D02*
X015831Y020329D01*
X015555Y020683D02*
X015831Y020407D01*
X020685Y021868D02*
X020843Y021868D01*
X020843Y022341D02*
X020921Y022262D01*
X020843Y022341D02*
X020685Y022341D01*
X032081Y017762D02*
X032002Y017841D01*
X032002Y017841D02*
X031884Y017841D01*
X020685Y022341D02*
X020606Y022262D01*
X020606Y022262D02*
X020606Y021947D01*
X020606Y021947D02*
X020685Y021868D01*
X020921Y022262D02*
X020921Y021947D01*
X020921Y021947D02*
X020843Y021868D01*
X032002Y017329D02*
X032081Y017407D01*
X031884Y017604D02*
X032002Y017604D01*
X032002Y017604D02*
X032081Y017683D01*
X032081Y017683D02*
X032081Y017762D01*
X032002Y017604D02*
X032081Y017526D01*
X032081Y017526D02*
X032081Y017407D01*
X012553Y005329D02*
X012435Y005329D01*
X012081Y005329D02*
X012081Y005841D01*
X012632Y005762D02*
X012632Y005407D01*
X012632Y005407D02*
X012553Y005329D01*
X012081Y005841D02*
X011805Y005329D01*
X012435Y005841D02*
X012553Y005841D01*
X012553Y005841D02*
X012632Y005762D01*
X012356Y005407D02*
X012435Y005329D01*
X012435Y005841D02*
X012356Y005762D01*
D50*
X021520Y021498D02*
X017480Y021498D01*
X021520Y025140D02*
X017480Y025140D01*
X017480Y025140D02*
X017480Y021498D01*
X021520Y024776D02*
X017480Y024776D01*
X012632Y007228D02*
X012632Y008409D01*
X017868Y008409D02*
X017868Y007228D01*
X017868Y007228D02*
X012632Y007228D01*
X026750Y021238D02*
X026665Y021231D01*
X026917Y021209D02*
X026835Y021231D01*
X026835Y021231D02*
X026750Y021238D01*
X012632Y008409D02*
X017868Y008409D01*
X027173Y020506D02*
X027209Y020583D01*
X027124Y020436D02*
X027173Y020506D01*
X027231Y020665D02*
X027238Y020750D01*
X027209Y020583D02*
X027231Y020665D01*
X026917Y020291D02*
X026994Y020327D01*
X026835Y020269D02*
X026917Y020291D01*
X027064Y020376D02*
X027124Y020436D01*
X026994Y020327D02*
X027064Y020376D01*
X027064Y021124D02*
X026994Y021173D01*
X027124Y021064D02*
X027064Y021124D01*
X021520Y025140D02*
X021520Y021498D01*
X026994Y021173D02*
X026917Y021209D01*
X027231Y020835D02*
X027209Y020917D01*
X027238Y020750D02*
X027231Y020835D01*
X027173Y020994D02*
X027124Y021064D01*
X027209Y020917D02*
X027173Y020994D01*
X020768Y019657D02*
X020768Y021488D01*
X026952Y017742D02*
X026548Y017742D01*
X026952Y018431D02*
X026952Y017742D01*
X027232Y035811D02*
X027273Y035724D01*
X031417Y031041D02*
X031494Y031077D01*
X026583Y020291D02*
X026665Y020269D01*
X026506Y020327D02*
X026583Y020291D01*
X026548Y018431D02*
X026548Y017742D01*
X026665Y020269D02*
X026750Y020262D01*
X031709Y031333D02*
X031731Y031415D01*
X018768Y019657D02*
X018768Y021488D01*
X031564Y031126D02*
X031624Y031186D01*
X022646Y018672D02*
X022578Y018604D01*
X031494Y031077D02*
X031564Y031126D01*
X022482Y018439D02*
X022457Y018346D01*
X022523Y018526D02*
X022482Y018439D01*
X031624Y031186D02*
X031673Y031256D01*
X031673Y031256D02*
X031709Y031333D01*
X026506Y021173D02*
X026436Y021124D01*
X026583Y021209D02*
X026506Y021173D01*
X026376Y021064D02*
X026327Y020994D01*
X026436Y021124D02*
X026376Y021064D01*
X017868Y008409D02*
X012632Y007228D01*
X020232Y021488D02*
X020232Y019657D01*
X026665Y021231D02*
X026583Y021209D01*
X012632Y008409D02*
X017868Y007228D01*
X026327Y020994D02*
X026291Y020917D01*
X026327Y020506D02*
X026376Y020436D01*
X026291Y020583D02*
X026327Y020506D01*
X026436Y020376D02*
X026506Y020327D01*
X026376Y020436D02*
X026436Y020376D01*
X026269Y020835D02*
X026262Y020750D01*
X026291Y020917D02*
X026269Y020835D01*
X026269Y020665D02*
X026291Y020583D01*
X026262Y020750D02*
X026269Y020665D01*
X026750Y020262D02*
X026835Y020269D01*
X031250Y031988D02*
X031165Y031981D01*
X032518Y027341D02*
X032518Y029171D01*
X031083Y031959D02*
X031006Y031923D01*
X031165Y031981D02*
X031083Y031959D01*
X031335Y031981D02*
X031250Y031988D01*
X031417Y031959D02*
X031335Y031981D01*
X031982Y029171D02*
X031982Y027341D01*
X030518Y027341D02*
X030518Y029171D01*
X031006Y031923D02*
X030936Y031874D01*
X030769Y031585D02*
X030762Y031500D01*
X030791Y031667D02*
X030769Y031585D01*
X030769Y031415D02*
X030791Y031333D01*
X030762Y031500D02*
X030769Y031415D01*
X030936Y031874D02*
X030876Y031814D01*
X033270Y032459D02*
X029230Y032459D01*
X030827Y031744D02*
X030791Y031667D01*
X030876Y031814D02*
X030827Y031744D01*
X029982Y027341D02*
X029982Y029171D01*
X031494Y031923D02*
X031417Y031959D01*
X031731Y031585D02*
X031709Y031667D01*
X031731Y031415D02*
X031738Y031500D01*
X031738Y031500D02*
X031731Y031585D01*
X031624Y031814D02*
X031564Y031874D01*
X031564Y031874D02*
X031494Y031923D01*
X031709Y031667D02*
X031673Y031744D01*
X031673Y031744D02*
X031624Y031814D01*
X031335Y031019D02*
X031417Y031041D01*
X033270Y033260D02*
X032462Y033443D01*
X030038Y033443D02*
X029230Y033260D01*
X029982Y027341D02*
X030518Y027341D01*
X031982Y027341D02*
X032518Y027341D01*
X029230Y033260D02*
X029230Y032823D01*
X031250Y031012D02*
X031335Y031019D01*
X032462Y033443D02*
X030038Y033443D01*
X033270Y033260D02*
X033270Y032823D01*
X030791Y031333D02*
X030827Y031256D01*
X028770Y021709D02*
X024730Y021709D01*
X024730Y022073D02*
X024730Y018431D01*
X027482Y018421D02*
X027482Y016591D01*
X028018Y016591D02*
X028018Y018421D01*
X028770Y022073D02*
X024730Y022073D01*
X028770Y022073D02*
X028770Y018431D01*
X033270Y032823D02*
X033270Y029181D01*
X028770Y018431D02*
X024730Y018431D01*
X026018Y016591D02*
X026018Y018421D01*
X027962Y022693D02*
X025538Y022693D01*
X025538Y022693D02*
X024730Y022510D01*
X024730Y022510D02*
X024730Y022073D01*
X028770Y022510D02*
X028770Y022073D01*
X025482Y016591D02*
X026018Y016591D01*
X025482Y016591D02*
X025482Y018421D01*
X028770Y022510D02*
X027962Y022693D01*
X027482Y016591D02*
X028018Y016591D01*
X022578Y018604D02*
X022523Y018526D01*
X031006Y031077D02*
X031083Y031041D01*
X030936Y031126D02*
X031006Y031077D01*
X031165Y031019D02*
X031250Y031012D01*
X031083Y031041D02*
X031165Y031019D01*
X033270Y029181D02*
X029230Y029181D01*
X029230Y032823D02*
X029230Y029181D01*
X030876Y031186D02*
X030936Y031126D01*
X030827Y031256D02*
X030876Y031186D01*
X031048Y029181D02*
X031048Y028492D01*
X022904Y018793D02*
X022811Y018768D01*
X023000Y018801D02*
X022904Y018793D01*
X022724Y018727D02*
X022646Y018672D01*
X022811Y018768D02*
X022724Y018727D01*
X031452Y029181D02*
X031452Y028492D01*
X033270Y032823D02*
X029230Y032823D01*
X022750Y018250D02*
X023250Y018250D01*
X031452Y028492D02*
X031048Y028492D01*
X027396Y036422D02*
X027328Y036354D01*
X027474Y036477D02*
X027396Y036422D01*
X027273Y036276D02*
X027232Y036189D01*
X027328Y036354D02*
X027273Y036276D01*
X027750Y036551D02*
X027654Y036543D01*
X027846Y036543D02*
X027750Y036551D01*
X027561Y036518D02*
X027474Y036477D01*
X027654Y036543D02*
X027561Y036518D01*
X027232Y036189D02*
X027207Y036096D01*
X031673Y019494D02*
X031624Y019564D01*
X027199Y036000D02*
X027207Y035904D01*
X033169Y010919D02*
X033169Y009581D01*
X031831Y010919D02*
X031831Y009581D01*
X026750Y036000D02*
X027199Y036000D01*
X027207Y036096D02*
X027199Y036000D01*
X027207Y035904D02*
X027232Y035811D01*
X023000Y019250D02*
X023000Y018801D01*
X027939Y036518D02*
X027846Y036543D01*
X031709Y019417D02*
X031673Y019494D01*
X028293Y035904D02*
X028301Y036000D01*
X008081Y009581D02*
X008081Y010919D01*
X009419Y009581D02*
X009419Y010919D01*
X028172Y035646D02*
X028227Y035724D01*
X028104Y035578D02*
X028172Y035646D01*
X028268Y035811D02*
X028293Y035904D01*
X028227Y035724D02*
X028268Y035811D01*
X008081Y010919D02*
X009419Y010919D01*
X028172Y036354D02*
X028104Y036422D01*
X028227Y036276D02*
X028172Y036354D01*
X028026Y036477D02*
X027939Y036518D01*
X028104Y036422D02*
X028026Y036477D01*
X028301Y036000D02*
X028293Y036096D01*
X008081Y009581D02*
X009419Y009581D01*
X028268Y036189D02*
X028227Y036276D01*
X028293Y036096D02*
X028268Y036189D01*
X033169Y009581D02*
X031831Y009581D01*
X031048Y016931D02*
X031048Y016242D01*
X030769Y019335D02*
X030762Y019250D01*
X031083Y018791D02*
X031165Y018769D01*
X031165Y018769D02*
X031250Y018762D01*
X030876Y019564D02*
X030827Y019494D01*
X030936Y019624D02*
X030876Y019564D01*
X030791Y019417D02*
X030769Y019335D01*
X030827Y019494D02*
X030791Y019417D01*
X031006Y018827D02*
X031083Y018791D01*
X030762Y019250D02*
X030769Y019165D01*
X030769Y019165D02*
X030791Y019083D01*
X030876Y018936D02*
X030936Y018876D01*
X030936Y018876D02*
X031006Y018827D01*
X030791Y019083D02*
X030827Y019006D01*
X030827Y019006D02*
X030876Y018936D01*
X031006Y019673D02*
X030936Y019624D01*
X031452Y016931D02*
X031452Y016242D01*
X031452Y016242D02*
X031048Y016242D01*
X027750Y035750D02*
X027750Y036250D01*
X033169Y010919D02*
X031831Y010919D01*
X027500Y036000D02*
X028000Y036000D01*
X031250Y019738D02*
X031165Y019731D01*
X031335Y019731D02*
X031250Y019738D01*
X031083Y019709D02*
X031006Y019673D01*
X031165Y019731D02*
X031083Y019709D01*
X031564Y019624D02*
X031494Y019673D01*
X031624Y019564D02*
X031564Y019624D01*
X031417Y019709D02*
X031335Y019731D01*
X031494Y019673D02*
X031417Y019709D01*
X023543Y018154D02*
X023551Y018250D01*
X023518Y018061D02*
X023543Y018154D01*
X023543Y018346D02*
X023518Y018439D01*
X023551Y018250D02*
X023543Y018346D01*
X023354Y017828D02*
X023422Y017896D01*
X023276Y017773D02*
X023354Y017828D01*
X023477Y017974D02*
X023518Y018061D01*
X023422Y017896D02*
X023477Y017974D01*
X023518Y018439D02*
X023477Y018526D01*
X027846Y035457D02*
X027939Y035482D01*
X027750Y035449D02*
X027846Y035457D01*
X023276Y018727D02*
X023189Y018768D01*
X023354Y018672D02*
X023276Y018727D01*
X023422Y018604D02*
X023354Y018672D01*
X023477Y018526D02*
X023422Y018604D01*
X027654Y035457D02*
X027750Y035449D01*
X027561Y035482D02*
X027654Y035457D01*
X013124Y009906D02*
X013360Y009906D01*
X027474Y035523D02*
X027561Y035482D01*
X027396Y035578D02*
X027474Y035523D01*
X022482Y018061D02*
X022523Y017974D01*
X022457Y018154D02*
X022482Y018061D01*
X022457Y018346D02*
X022449Y018250D01*
X027273Y035724D02*
X027328Y035646D01*
X022449Y018250D02*
X022457Y018154D01*
X027328Y035646D02*
X027396Y035578D01*
X022523Y017974D02*
X022578Y017896D01*
X023000Y017699D02*
X023096Y017707D01*
X022904Y017707D02*
X023000Y017699D01*
X023189Y017732D02*
X023276Y017773D01*
X023096Y017707D02*
X023189Y017732D01*
X022646Y017828D02*
X022724Y017773D01*
X022578Y017896D02*
X022646Y017828D01*
X022811Y017732D02*
X022904Y017707D01*
X022724Y017773D02*
X022811Y017732D01*
X023189Y018768D02*
X023096Y018793D01*
X031335Y018769D02*
X031417Y018791D01*
X013132Y004935D02*
X013250Y005250D01*
X031494Y018827D02*
X031564Y018876D01*
X031417Y018791D02*
X031494Y018827D01*
X013360Y009906D02*
X013242Y009591D01*
X013242Y009591D02*
X013124Y009906D01*
X013250Y005250D02*
X013368Y004935D01*
X013368Y004935D02*
X013132Y004935D01*
X031564Y018876D02*
X031624Y018936D01*
X031731Y019335D02*
X031709Y019417D01*
X031738Y019250D02*
X031731Y019335D01*
X028026Y035523D02*
X028104Y035578D01*
X027939Y035482D02*
X028026Y035523D01*
X031673Y019006D02*
X031709Y019083D01*
X031624Y018936D02*
X031673Y019006D01*
X031731Y019165D02*
X031738Y019250D01*
X031709Y019083D02*
X031731Y019165D01*
X031250Y018762D02*
X031335Y018769D01*
X033270Y020209D02*
X029230Y020209D01*
X029230Y020573D02*
X029230Y016931D01*
X031982Y016921D02*
X031982Y015091D01*
X032518Y015091D02*
X032518Y016921D01*
X033270Y020573D02*
X033270Y016931D01*
X023096Y018793D02*
X023000Y018801D01*
X033270Y016931D02*
X029230Y016931D01*
X033270Y020573D02*
X029230Y020573D01*
X030518Y015091D02*
X030518Y016921D01*
X032462Y021193D02*
X030038Y021193D01*
X030038Y021193D02*
X029230Y021010D01*
X029230Y021010D02*
X029230Y020573D01*
X033270Y021010D02*
X033270Y020573D01*
X029982Y015091D02*
X030518Y015091D01*
X029982Y015091D02*
X029982Y016921D01*
X033270Y021010D02*
X032462Y021193D01*
X031982Y015091D02*
X032518Y015091D01*
X018768Y030407D02*
X018768Y032238D01*
X018232Y030407D02*
X018232Y032238D01*
X018288Y036510D02*
X017480Y036327D01*
X020712Y036510D02*
X018288Y036510D01*
X021520Y036327D02*
X021520Y035890D01*
X018232Y030407D02*
X018768Y030407D01*
X020232Y030407D02*
X020768Y030407D01*
X021520Y036327D02*
X020712Y036510D01*
X020232Y032238D02*
X020232Y030407D01*
X014798Y019998D02*
X014798Y019309D01*
X015202Y019998D02*
X015202Y019309D01*
X015202Y019309D02*
X014798Y019309D01*
X017480Y035890D02*
X017480Y032248D01*
X021520Y035526D02*
X017480Y035526D01*
X020768Y030407D02*
X020768Y032238D01*
X021520Y035890D02*
X021520Y032248D01*
X021520Y035890D02*
X017480Y035890D01*
X021520Y032248D02*
X017480Y032248D01*
X019744Y034144D02*
X019814Y034193D01*
X019814Y034193D02*
X019874Y034253D01*
X019874Y034253D02*
X019923Y034323D01*
X019988Y034567D02*
X019981Y034652D01*
X019981Y034652D02*
X019959Y034734D01*
X019959Y034734D02*
X019923Y034811D01*
X019923Y034323D02*
X019959Y034400D01*
X019959Y034400D02*
X019981Y034482D01*
X019981Y034482D02*
X019988Y034567D01*
X019667Y034108D02*
X019744Y034144D01*
X017480Y036327D02*
X017480Y035890D01*
X019500Y034079D02*
X019585Y034086D01*
X019585Y034086D02*
X019667Y034108D01*
X014915Y021836D02*
X015000Y021829D01*
X012980Y024077D02*
X012980Y023640D01*
X015000Y021829D02*
X015085Y021836D01*
X015085Y021836D02*
X015167Y021858D01*
X015374Y022003D02*
X015423Y022073D01*
X015423Y022073D02*
X015459Y022150D01*
X015459Y022150D02*
X015481Y022232D01*
X015167Y021858D02*
X015244Y021894D01*
X015244Y021894D02*
X015314Y021943D01*
X015314Y021943D02*
X015374Y022003D01*
X017020Y024077D02*
X017020Y023640D01*
X017020Y023276D02*
X012980Y023276D01*
X016268Y018157D02*
X016268Y019988D01*
X015732Y019988D02*
X015732Y018157D01*
X017020Y023640D02*
X012980Y023640D01*
X017020Y019998D02*
X012980Y019998D01*
X012980Y023640D02*
X012980Y019998D01*
X014268Y018157D02*
X014268Y019988D01*
X017020Y024077D02*
X016212Y024260D01*
X013788Y024260D02*
X012980Y024077D01*
X016212Y024260D02*
X013788Y024260D01*
X013732Y018157D02*
X013732Y019988D01*
X013732Y018157D02*
X014268Y018157D01*
X015732Y018157D02*
X016268Y018157D01*
X014541Y022484D02*
X014519Y022402D01*
X014519Y022402D02*
X014512Y022317D01*
X014512Y022317D02*
X014519Y022232D01*
X014686Y022691D02*
X014626Y022631D01*
X014626Y022631D02*
X014577Y022561D01*
X014577Y022561D02*
X014541Y022484D01*
X014519Y022232D02*
X014541Y022150D01*
X014686Y021943D02*
X014756Y021894D01*
X014756Y021894D02*
X014833Y021858D01*
X014833Y021858D02*
X014915Y021836D01*
X014541Y022150D02*
X014577Y022073D01*
X014577Y022073D02*
X014626Y022003D01*
X014626Y022003D02*
X014686Y021943D01*
X014756Y022740D02*
X014686Y022691D01*
X015459Y022484D02*
X015423Y022561D01*
X015423Y022561D02*
X015374Y022631D01*
X015374Y022631D02*
X015314Y022691D01*
X015481Y022232D02*
X015488Y022317D01*
X015488Y022317D02*
X015481Y022402D01*
X015481Y022402D02*
X015459Y022484D01*
X015314Y022691D02*
X015244Y022740D01*
X015000Y022805D02*
X014915Y022798D01*
X014915Y022798D02*
X014833Y022776D01*
X014833Y022776D02*
X014756Y022740D01*
X015244Y022740D02*
X015167Y022776D01*
X015167Y022776D02*
X015085Y022798D01*
X015085Y022798D02*
X015000Y022805D01*
X019923Y034811D02*
X019874Y034881D01*
X015459Y034734D02*
X015423Y034811D01*
X015423Y034811D02*
X015374Y034881D01*
X015481Y034482D02*
X015488Y034567D01*
X015488Y034567D02*
X015481Y034652D01*
X015481Y034652D02*
X015459Y034734D01*
X015374Y034881D02*
X015314Y034941D01*
X015085Y035048D02*
X015000Y035055D01*
X015000Y035055D02*
X014915Y035048D01*
X014915Y035048D02*
X014833Y035026D01*
X015314Y034941D02*
X015244Y034990D01*
X015244Y034990D02*
X015167Y035026D01*
X015167Y035026D02*
X015085Y035048D01*
X015459Y034400D02*
X015481Y034482D01*
X015085Y034086D02*
X015167Y034108D01*
X015167Y034108D02*
X015244Y034144D01*
X015244Y034144D02*
X015314Y034193D01*
X017020Y036327D02*
X017020Y035890D01*
X012980Y036327D02*
X012980Y035890D01*
X015000Y034079D02*
X015085Y034086D01*
X015314Y034193D02*
X015374Y034253D01*
X025478Y010181D02*
X025478Y012819D01*
X025478Y012819D02*
X024022Y012819D01*
X024022Y012819D02*
X024022Y010181D01*
X015374Y034253D02*
X015423Y034323D01*
X015423Y034323D02*
X015459Y034400D01*
X024022Y010181D02*
X025478Y010181D01*
X015202Y032248D02*
X015202Y031559D01*
X015202Y031559D02*
X014798Y031559D01*
X014833Y034108D02*
X014915Y034086D01*
X014915Y034086D02*
X015000Y034079D01*
X014798Y032248D02*
X014798Y031559D01*
X014756Y034144D02*
X014833Y034108D01*
X014626Y034881D02*
X014577Y034811D01*
X014577Y034811D02*
X014541Y034734D01*
X014541Y034734D02*
X014519Y034652D01*
X014833Y035026D02*
X014756Y034990D01*
X014756Y034990D02*
X014686Y034941D01*
X014686Y034941D02*
X014626Y034881D01*
X014519Y034652D02*
X014512Y034567D01*
X014577Y034323D02*
X014626Y034253D01*
X014626Y034253D02*
X014686Y034193D01*
X014686Y034193D02*
X014756Y034144D01*
X014512Y034567D02*
X014519Y034482D01*
X014519Y034482D02*
X014541Y034400D01*
X014541Y034400D02*
X014577Y034323D01*
X016212Y036510D02*
X013788Y036510D01*
X019077Y034323D02*
X019126Y034253D01*
X019126Y034253D02*
X019186Y034193D01*
X019186Y034193D02*
X019256Y034144D01*
X019012Y034567D02*
X019019Y034482D01*
X019019Y034482D02*
X019041Y034400D01*
X019041Y034400D02*
X019077Y034323D01*
X019256Y034144D02*
X019333Y034108D01*
X019702Y032248D02*
X019702Y031559D01*
X019702Y031559D02*
X019298Y031559D01*
X019333Y034108D02*
X019415Y034086D01*
X019415Y034086D02*
X019500Y034079D01*
X019298Y032248D02*
X019298Y031559D01*
X019019Y034652D02*
X019012Y034567D01*
X019667Y035026D02*
X019585Y035048D01*
X019585Y035048D02*
X019500Y035055D01*
X019500Y035055D02*
X019415Y035048D01*
X019874Y034881D02*
X019814Y034941D01*
X019814Y034941D02*
X019744Y034990D01*
X019744Y034990D02*
X019667Y035026D01*
X019415Y035048D02*
X019333Y035026D01*
X019126Y034881D02*
X019077Y034811D01*
X019077Y034811D02*
X019041Y034734D01*
X019041Y034734D02*
X019019Y034652D01*
X019333Y035026D02*
X019256Y034990D01*
X019256Y034990D02*
X019186Y034941D01*
X019186Y034941D02*
X019126Y034881D01*
X012980Y035890D02*
X012980Y032248D01*
X017020Y035526D02*
X012980Y035526D01*
X016268Y030407D02*
X016268Y032238D01*
X017020Y035890D02*
X017020Y032248D01*
X017020Y035890D02*
X012980Y035890D01*
X017020Y032248D02*
X012980Y032248D01*
X015732Y032238D02*
X015732Y030407D01*
X015732Y030407D02*
X016268Y030407D01*
X017020Y036327D02*
X016212Y036510D01*
X013788Y036510D02*
X012980Y036327D01*
X014268Y030407D02*
X014268Y032238D01*
X013732Y030407D02*
X013732Y032238D01*
X013732Y030407D02*
X014268Y030407D01*
X019981Y023902D02*
X019959Y023984D01*
X019959Y023984D02*
X019923Y024061D01*
X019923Y024061D02*
X019874Y024131D01*
X019959Y023650D02*
X019981Y023732D01*
X019981Y023732D02*
X019988Y023817D01*
X019988Y023817D02*
X019981Y023902D01*
X019874Y024131D02*
X019814Y024191D01*
X019585Y024298D02*
X019500Y024305D01*
X019500Y024305D02*
X019415Y024298D01*
X019415Y024298D02*
X019333Y024276D01*
X019814Y024191D02*
X019744Y024240D01*
X019744Y024240D02*
X019667Y024276D01*
X019667Y024276D02*
X019585Y024298D01*
X019923Y023573D02*
X019959Y023650D01*
X028770Y032823D02*
X028770Y029181D01*
X020712Y025760D02*
X018288Y025760D01*
X021520Y025577D02*
X021520Y025140D01*
X024730Y032823D02*
X024730Y029181D01*
X028770Y029181D02*
X024730Y029181D01*
X028770Y032823D02*
X024730Y032823D01*
X017480Y025577D02*
X017480Y025140D01*
X019744Y023394D02*
X019814Y023443D01*
X019814Y023443D02*
X019874Y023503D01*
X019874Y023503D02*
X019923Y023573D01*
X019500Y023329D02*
X019585Y023336D01*
X019585Y023336D02*
X019667Y023358D01*
X019667Y023358D02*
X019744Y023394D01*
X019333Y024276D02*
X019256Y024240D01*
X019077Y024061D02*
X019041Y023984D01*
X019041Y023984D02*
X019019Y023902D01*
X019019Y023902D02*
X019012Y023817D01*
X019256Y024240D02*
X019186Y024191D01*
X019186Y024191D02*
X019126Y024131D01*
X019126Y024131D02*
X019077Y024061D01*
X019012Y023817D02*
X019019Y023732D01*
X028770Y032459D02*
X024730Y032459D01*
X026269Y031585D02*
X026262Y031500D01*
X026291Y031667D02*
X026269Y031585D01*
X026327Y031744D02*
X026291Y031667D01*
X026291Y031333D02*
X026327Y031256D01*
X026269Y031415D02*
X026291Y031333D01*
X026262Y031500D02*
X026269Y031415D01*
X026376Y031814D02*
X026327Y031744D01*
X026665Y031981D02*
X026583Y031959D01*
X026750Y031988D02*
X026665Y031981D01*
X026835Y031981D02*
X026750Y031988D01*
X026436Y031874D02*
X026376Y031814D01*
X026506Y031923D02*
X026436Y031874D01*
X026583Y031959D02*
X026506Y031923D01*
X026327Y031256D02*
X026376Y031186D01*
X021520Y025577D02*
X020712Y025760D01*
X018288Y025760D02*
X017480Y025577D01*
X026952Y028492D02*
X026548Y028492D01*
X018232Y019657D02*
X018232Y021488D01*
X018232Y019657D02*
X018768Y019657D01*
X020232Y019657D02*
X020768Y019657D01*
X026952Y029181D02*
X026952Y028492D01*
X026506Y031077D02*
X026583Y031041D01*
X026436Y031126D02*
X026506Y031077D01*
X026376Y031186D02*
X026436Y031126D01*
X026548Y029181D02*
X026548Y028492D01*
X026665Y031019D02*
X026750Y031012D01*
X026583Y031041D02*
X026665Y031019D01*
X026917Y031959D02*
X026835Y031981D01*
X028770Y033260D02*
X028770Y032823D01*
X027962Y033443D02*
X025538Y033443D01*
X025538Y033443D02*
X024730Y033260D01*
X026835Y031019D02*
X026917Y031041D01*
X026750Y031012D02*
X026835Y031019D01*
X024730Y033260D02*
X024730Y032823D01*
X028770Y033260D02*
X027962Y033443D01*
X026018Y027341D02*
X026018Y029171D01*
X027482Y029171D02*
X027482Y027341D01*
X028018Y027341D02*
X028018Y029171D01*
X027482Y027341D02*
X028018Y027341D01*
X025482Y027341D02*
X026018Y027341D01*
X025482Y027341D02*
X025482Y029171D01*
X026917Y031041D02*
X026994Y031077D01*
X027173Y031744D02*
X027124Y031814D01*
X027209Y031667D02*
X027173Y031744D01*
X027231Y031585D02*
X027209Y031667D01*
X026994Y031923D02*
X026917Y031959D01*
X027064Y031874D02*
X026994Y031923D01*
X027124Y031814D02*
X027064Y031874D01*
X027238Y031500D02*
X027231Y031585D01*
X027124Y031186D02*
X027173Y031256D01*
X027064Y031126D02*
X027124Y031186D01*
X026994Y031077D02*
X027064Y031126D01*
X027231Y031415D02*
X027238Y031500D01*
X027209Y031333D02*
X027231Y031415D01*
X027173Y031256D02*
X027209Y031333D01*
X019702Y020809D02*
X019298Y020809D01*
X019702Y021498D02*
X019702Y020809D01*
X019019Y023732D02*
X019041Y023650D01*
X019298Y021498D02*
X019298Y020809D01*
X017020Y023640D02*
X017020Y019998D01*
X019126Y023503D02*
X019186Y023443D01*
X019186Y023443D02*
X019256Y023394D01*
X019041Y023650D02*
X019077Y023573D01*
X019077Y023573D02*
X019126Y023503D01*
X019256Y023394D02*
X019333Y023358D01*
X019415Y023336D02*
X019500Y023329D01*
X019333Y023358D02*
X019415Y023336D01*
D53*
X023238Y005502D03*
D54*
X015250Y009000D02*
X015250Y005063D01*
X017250Y009000D02*
X017250Y005063D01*
X013250Y009000D02*
X013250Y005500D01*
X014250Y009000D02*
X014250Y005063D01*
X016250Y009000D02*
X016250Y005063D01*
D59*
X032500Y010250D03*
X008750Y010250D03*
M02*
